<ttFont>
    <TTGlyph name=".ttfautohint" xMin="0" yMin="0" xMax="0" yMax="0">
      <contour>
        <pt x="0" y="0" on="1"/>
      </contour>
    </TTGlyph>
    <TTGlyph name="A" xMin="15" yMin="0" xMax="567" yMax="700">
      <contour>
        <pt x="567" y="0" on="1"/>
        <pt x="473" y="0" on="1"/>
        <pt x="418" y="191" on="1"/>
        <pt x="163" y="191" on="1"/>
        <pt x="109" y="0" on="1"/>
        <pt x="15" y="0" on="1"/>
        <pt x="215" y="700" on="1"/>
        <pt x="367" y="700" on="1"/>
      </contour>
      <contour>
        <pt x="186" y="269" on="1"/>
        <pt x="396" y="269" on="1"/>
        <pt x="291" y="637" on="1"/>
      </contour>
    </TTGlyph>
    <TTGlyph name="AE" xMin="5" yMin="0" xMax="795" yMax="700">
      <contour>
        <pt x="795" y="622" on="1"/>
        <pt x="501" y="622" on="1"/>
        <pt x="501" y="359" on="1"/>
        <pt x="765" y="359" on="1"/>
        <pt x="765" y="281" on="1"/>
        <pt x="501" y="281" on="1"/>
        <pt x="501" y="78" on="1"/>
        <pt x="795" y="78" on="1"/>
        <pt x="795" y="0" on="1"/>
        <pt x="405" y="0" on="1"/>
        <pt x="405" y="281" on="1"/>
        <pt x="236" y="281" on="1"/>
        <pt x="104" y="0" on="1"/>
        <pt x="5" y="0" on="1"/>
        <pt x="335" y="700" on="1"/>
        <pt x="795" y="700" on="1"/>
      </contour>
      <contour>
        <pt x="273" y="359" on="1"/>
        <pt x="405" y="359" on="1"/>
        <pt x="405" y="622" on="1"/>
        <pt x="397" y="622" on="1"/>
      </contour>
    </TTGlyph>
    <TTGlyph name="Aacute" xMin="15" yMin="0" xMax="567" yMax="940">
      <component glyphName=".ttfautohint" x="15" y="0" flags="0x0"/>
      <component glyphName="A" x="0" y="0" flags="0x204"/>
      <component glyphName="acute" x="66" y="150" flags="0x4"/>
    </TTGlyph>
    <TTGlyph name="Acircumflex" xMin="15" yMin="0" xMax="567" yMax="940">
      <component glyphName=".ttfautohint" x="15" y="0" flags="0x0"/>
      <component glyphName="A" x="0" y="0" flags="0x204"/>
      <component glyphName="circumflex" x="73" y="150" flags="0x4"/>
    </TTGlyph>
    <TTGlyph name="Adieresis" xMin="15" yMin="0" xMax="567" yMax="906">
      <component glyphName=".ttfautohint" x="15" y="0" flags="0x0"/>
      <component glyphName="A" x="0" y="0" flags="0x204"/>
      <component glyphName="dieresis" x="143" y="150" flags="0x4"/>
    </TTGlyph>
    <TTGlyph name="Agrave" xMin="15" yMin="0" xMax="567" yMax="940">
      <component glyphName=".ttfautohint" x="15" y="0" flags="0x0"/>
      <component glyphName="A" x="0" y="0" flags="0x204"/>
      <component glyphName="grave" x="47" y="150" flags="0x4"/>
    </TTGlyph>
    <TTGlyph name="Aring" xMin="15" yMin="0" xMax="567" yMax="960">
      <component glyphName=".ttfautohint" x="15" y="0" flags="0x0"/>
      <component glyphName="A" x="0" y="0" flags="0x204"/>
      <component glyphName="ring" x="143" y="150" flags="0x4"/>
    </TTGlyph>
    <TTGlyph name="Atilde" xMin="15" yMin="0" xMax="567" yMax="904">
      <component glyphName=".ttfautohint" x="15" y="0" flags="0x0"/>
      <component glyphName="A" x="0" y="0" flags="0x204"/>
      <component glyphName="tilde" x="13" y="150" flags="0x4"/>
    </TTGlyph>
    <TTGlyph name="B" xMin="100" yMin="0" xMax="546" yMax="700">
      <contour>
        <pt x="302" y="700" on="1"/>
        <pt x="356" y="700" on="0"/>
        <pt x="436" y="668" on="0"/>
        <pt x="489" y="615" on="0"/>
        <pt x="516" y="545" on="0"/>
        <pt x="516" y="506" on="1"/>
        <pt x="516" y="405" on="0"/>
        <pt x="430" y="364" on="1"/>
        <pt x="488" y="344" on="0"/>
        <pt x="546" y="258" on="0"/>
        <pt x="546" y="195" on="1"/>
        <pt x="546" y="107" on="0"/>
        <pt x="440" y="0" on="0"/>
        <pt x="332" y="0" on="1"/>
        <pt x="100" y="0" on="1"/>
        <pt x="100" y="700" on="1"/>
      </contour>
      <contour>
        <pt x="196" y="321" on="1"/>
        <pt x="196" y="78" on="1"/>
        <pt x="332" y="78" on="1"/>
        <pt x="367" y="78" on="0"/>
        <pt x="414" y="100" on="0"/>
        <pt x="442" y="135" on="0"/>
        <pt x="453" y="179" on="0"/>
        <pt x="453" y="201" on="1"/>
        <pt x="453" y="223" on="0"/>
        <pt x="442" y="267" on="0"/>
        <pt x="414" y="300" on="0"/>
        <pt x="367" y="321" on="0"/>
        <pt x="332" y="321" on="1"/>
      </contour>
      <contour>
        <pt x="196" y="622" on="1"/>
        <pt x="196" y="399" on="1"/>
        <pt x="302" y="399" on="1"/>
        <pt x="337" y="399" on="0"/>
        <pt x="384" y="420" on="0"/>
        <pt x="412" y="452" on="0"/>
        <pt x="423" y="492" on="0"/>
        <pt x="423" y="512" on="1"/>
        <pt x="423" y="532" on="0"/>
        <pt x="412" y="571" on="0"/>
        <pt x="384" y="603" on="0"/>
        <pt x="337" y="622" on="0"/>
        <pt x="302" y="622" on="1"/>
      </contour>
    </TTGlyph>
    <TTGlyph name="C" xMin="70" yMin="-15" xMax="581" yMax="715">
      <contour>
        <pt x="495" y="532" on="1"/>
        <pt x="479" y="585" on="0"/>
        <pt x="408" y="637" on="0"/>
        <pt x="362" y="637" on="1"/>
        <pt x="320" y="637" on="0"/>
        <pt x="250" y="602" on="0"/>
        <pt x="199" y="532" on="0"/>
        <pt x="170" y="424" on="0"/>
        <pt x="170" y="351" on="1"/>
        <pt x="170" y="278" on="0"/>
        <pt x="199" y="170" on="0"/>
        <pt x="251" y="98" on="0"/>
        <pt x="323" y="63" on="0"/>
        <pt x="365" y="63" on="1"/>
        <pt x="419" y="63" on="0"/>
        <pt x="508" y="105" on="0"/>
        <pt x="535" y="134" on="1"/>
        <pt x="581" y="75" on="1"/>
        <pt x="543" y="38" on="0"/>
        <pt x="430" y="-15" on="0"/>
        <pt x="361" y="-15" on="1"/>
        <pt x="298" y="-15" on="0"/>
        <pt x="191" y="32" on="0"/>
        <pt x="113" y="124" on="0"/>
        <pt x="70" y="261" on="0"/>
        <pt x="70" y="351" on="1"/>
        <pt x="70" y="441" on="0"/>
        <pt x="114" y="578" on="0"/>
        <pt x="192" y="669" on="0"/>
        <pt x="297" y="715" on="0"/>
        <pt x="359" y="715" on="1"/>
        <pt x="441" y="715" on="0"/>
        <pt x="554" y="647" on="0"/>
        <pt x="580" y="563" on="1"/>
      </contour>
    </TTGlyph>
    <TTGlyph name="Ccedilla" xMin="70" yMin="-210" xMax="581" yMax="715">
      <component glyphName=".ttfautohint" x="70" y="0" flags="0x0"/>
      <component glyphName="C" x="0" y="0" flags="0x204"/>
      <component glyphName="cedilla" x="44" y="0" flags="0x4"/>
    </TTGlyph>
    <TTGlyph name="D" xMin="100" yMin="0" xMax="614" yMax="700">
      <contour>
        <pt x="196" y="622" on="1"/>
        <pt x="196" y="78" on="1"/>
        <pt x="319" y="78" on="1"/>
        <pt x="361" y="78" on="0"/>
        <pt x="433" y="111" on="0"/>
        <pt x="485" y="179" on="0"/>
        <pt x="514" y="282" on="0"/>
        <pt x="514" y="351" on="1"/>
        <pt x="514" y="420" on="0"/>
        <pt x="485" y="522" on="0"/>
        <pt x="434" y="589" on="0"/>
        <pt x="364" y="622" on="0"/>
        <pt x="322" y="622" on="1"/>
      </contour>
      <contour>
        <pt x="325" y="700" on="1"/>
        <pt x="386" y="700" on="0"/>
        <pt x="492" y="656" on="0"/>
        <pt x="570" y="568" on="0"/>
        <pt x="614" y="438" on="0"/>
        <pt x="614" y="351" on="1"/>
        <pt x="614" y="264" on="0"/>
        <pt x="571" y="133" on="0"/>
        <pt x="493" y="45" on="0"/>
        <pt x="386" y="0" on="0"/>
        <pt x="323" y="0" on="1"/>
        <pt x="100" y="0" on="1"/>
        <pt x="100" y="700" on="1"/>
      </contour>
    </TTGlyph>
    <TTGlyph name="Delta" xMin="15" yMin="0" xMax="567" yMax="700">
      <contour>
        <pt x="567" y="0" on="1"/>
        <pt x="15" y="0" on="1"/>
        <pt x="225" y="700" on="1"/>
        <pt x="357" y="700" on="1"/>
      </contour>
      <contour>
        <pt x="114" y="68" on="1"/>
        <pt x="452" y="68" on="1"/>
        <pt x="283" y="631" on="1"/>
      </contour>
    </TTGlyph>
    <TTGlyph name="E" xMin="100" yMin="0" xMax="490" yMax="700">
      <contour>
        <pt x="490" y="622" on="1"/>
        <pt x="196" y="622" on="1"/>
        <pt x="196" y="389" on="1"/>
        <pt x="460" y="389" on="1"/>
        <pt x="460" y="311" on="1"/>
        <pt x="196" y="311" on="1"/>
        <pt x="196" y="78" on="1"/>
        <pt x="490" y="78" on="1"/>
        <pt x="490" y="0" on="1"/>
        <pt x="100" y="0" on="1"/>
        <pt x="100" y="700" on="1"/>
        <pt x="490" y="700" on="1"/>
      </contour>
    </TTGlyph>
    <TTGlyph name="Eacute" xMin="100" yMin="0" xMax="490" yMax="940">
      <component glyphName=".ttfautohint" x="100" y="0" flags="0x0"/>
      <component glyphName="E" x="0" y="0" flags="0x204"/>
      <component glyphName="acute" x="52" y="150" flags="0x4"/>
    </TTGlyph>
    <TTGlyph name="Ecircumflex" xMin="100" yMin="0" xMax="490" yMax="940">
      <component glyphName=".ttfautohint" x="100" y="0" flags="0x0"/>
      <component glyphName="E" x="0" y="0" flags="0x204"/>
      <component glyphName="circumflex" x="59" y="150" flags="0x4"/>
    </TTGlyph>
    <TTGlyph name="Edieresis" xMin="100" yMin="0" xMax="490" yMax="906">
      <component glyphName=".ttfautohint" x="100" y="0" flags="0x0"/>
      <component glyphName="E" x="0" y="0" flags="0x204"/>
      <component glyphName="dieresis" x="129" y="150" flags="0x4"/>
    </TTGlyph>
    <TTGlyph name="Egrave" xMin="100" yMin="0" xMax="490" yMax="940">
      <component glyphName=".ttfautohint" x="100" y="0" flags="0x0"/>
      <component glyphName="E" x="0" y="0" flags="0x204"/>
      <component glyphName="grave" x="34" y="150" flags="0x4"/>
    </TTGlyph>
    <TTGlyph name="Eth" xMin="27" yMin="0" xMax="614" yMax="700">
      <component glyphName=".ttfautohint" x="27" y="0" flags="0x0"/>
      <component glyphName="D" x="0" y="0" flags="0x204"/>
      <component glyphName="barra" x="-38" y="51" flags="0x4"/>
    </TTGlyph>
    <TTGlyph name="Euro" xMin="0" yMin="-15" xMax="515" yMax="675">
      <contour>
        <pt x="0" y="454" on="1"/>
        <pt x="72" y="454" on="1"/>
        <pt x="96" y="564" on="0"/>
        <pt x="223" y="675" on="0"/>
        <pt x="311" y="675" on="1"/>
        <pt x="398" y="675" on="0"/>
        <pt x="493" y="597" on="0"/>
        <pt x="515" y="523" on="1"/>
        <pt x="431" y="493" on="1"/>
        <pt x="417" y="542" on="0"/>
        <pt x="360" y="597" on="0"/>
        <pt x="311" y="597" on="1"/>
        <pt x="260" y="597" on="0"/>
        <pt x="186" y="526" on="0"/>
        <pt x="169" y="454" on="1"/>
        <pt x="370" y="454" on="1"/>
        <pt x="370" y="384" on="1"/>
        <pt x="159" y="384" on="1"/>
        <pt x="157" y="371" on="0"/>
        <pt x="157" y="345" on="0"/>
        <pt x="157" y="331" on="1"/>
        <pt x="157" y="317" on="0"/>
        <pt x="157" y="291" on="0"/>
        <pt x="159" y="279" on="1"/>
        <pt x="370" y="279" on="1"/>
        <pt x="370" y="209" on="1"/>
        <pt x="169" y="209" on="1"/>
        <pt x="186" y="135" on="0"/>
        <pt x="260" y="63" on="0"/>
        <pt x="311" y="63" on="1"/>
        <pt x="360" y="63" on="0"/>
        <pt x="417" y="118" on="0"/>
        <pt x="431" y="167" on="1"/>
        <pt x="515" y="137" on="1"/>
        <pt x="493" y="63" on="0"/>
        <pt x="398" y="-15" on="0"/>
        <pt x="311" y="-15" on="1"/>
        <pt x="223" y="-15" on="0"/>
        <pt x="95" y="98" on="0"/>
        <pt x="72" y="209" on="1"/>
        <pt x="0" y="209" on="1"/>
        <pt x="0" y="279" on="1"/>
        <pt x="62" y="279" on="1"/>
        <pt x="60" y="291" on="0"/>
        <pt x="60" y="317" on="0"/>
        <pt x="60" y="331" on="1"/>
        <pt x="60" y="345" on="0"/>
        <pt x="60" y="371" on="0"/>
        <pt x="62" y="384" on="1"/>
        <pt x="0" y="384" on="1"/>
      </contour>
    </TTGlyph>
    <TTGlyph name="F" xMin="100" yMin="0" xMax="470" yMax="700">
      <contour>
        <pt x="470" y="622" on="1"/>
        <pt x="196" y="622" on="1"/>
        <pt x="196" y="389" on="1"/>
        <pt x="440" y="389" on="1"/>
        <pt x="440" y="311" on="1"/>
        <pt x="196" y="311" on="1"/>
        <pt x="196" y="0" on="1"/>
        <pt x="100" y="0" on="1"/>
        <pt x="100" y="700" on="1"/>
        <pt x="470" y="700" on="1"/>
      </contour>
    </TTGlyph>
    <TTGlyph name="G" xMin="70" yMin="-15" xMax="594" yMax="715">
      <contour>
        <pt x="594" y="360" on="1"/>
        <pt x="594" y="0" on="1"/>
        <pt x="548" y="0" on="1"/>
        <pt x="530" y="40" on="1"/>
        <pt x="496" y="16" on="0"/>
        <pt x="413" y="-15" on="0"/>
        <pt x="361" y="-15" on="1"/>
        <pt x="298" y="-15" on="0"/>
        <pt x="191" y="32" on="0"/>
        <pt x="113" y="124" on="0"/>
        <pt x="70" y="261" on="0"/>
        <pt x="70" y="351" on="1"/>
        <pt x="70" y="441" on="0"/>
        <pt x="114" y="578" on="0"/>
        <pt x="192" y="669" on="0"/>
        <pt x="297" y="715" on="0"/>
        <pt x="359" y="715" on="1"/>
        <pt x="441" y="715" on="0"/>
        <pt x="554" y="647" on="0"/>
        <pt x="580" y="563" on="1"/>
        <pt x="495" y="532" on="1"/>
        <pt x="479" y="585" on="0"/>
        <pt x="408" y="637" on="0"/>
        <pt x="362" y="637" on="1"/>
        <pt x="320" y="637" on="0"/>
        <pt x="250" y="602" on="0"/>
        <pt x="199" y="532" on="0"/>
        <pt x="170" y="424" on="0"/>
        <pt x="170" y="351" on="1"/>
        <pt x="170" y="278" on="0"/>
        <pt x="199" y="170" on="0"/>
        <pt x="251" y="98" on="0"/>
        <pt x="323" y="63" on="0"/>
        <pt x="365" y="63" on="1"/>
        <pt x="407" y="63" on="0"/>
        <pt x="480" y="90" on="0"/>
        <pt x="508" y="110" on="1"/>
        <pt x="508" y="282" on="1"/>
        <pt x="389" y="282" on="1"/>
        <pt x="389" y="360" on="1"/>
        <pt x="508" y="360" on="1"/>
      </contour>
    </TTGlyph>
    <TTGlyph name="H" xMin="100" yMin="0" xMax="586" yMax="700">
      <contour>
        <pt x="586" y="0" on="1"/>
        <pt x="490" y="0" on="1"/>
        <pt x="490" y="311" on="1"/>
        <pt x="196" y="311" on="1"/>
        <pt x="196" y="0" on="1"/>
        <pt x="100" y="0" on="1"/>
        <pt x="100" y="700" on="1"/>
        <pt x="196" y="700" on="1"/>
        <pt x="196" y="389" on="1"/>
        <pt x="490" y="389" on="1"/>
        <pt x="490" y="700" on="1"/>
        <pt x="586" y="700" on="1"/>
      </contour>
    </TTGlyph>
    <TTGlyph name="I" xMin="100" yMin="0" xMax="196" yMax="700">
      <contour>
        <pt x="196" y="0" on="1"/>
        <pt x="100" y="0" on="1"/>
        <pt x="100" y="700" on="1"/>
        <pt x="196" y="700" on="1"/>
      </contour>
    </TTGlyph>
    <TTGlyph name="Iacute" xMin="26" yMin="0" xMax="273" yMax="940">
      <component glyphName=".ttfautohint" x="26" y="0" flags="0x0"/>
      <component glyphName="I" x="0" y="0" flags="0x204"/>
      <component glyphName="acute" x="-76" y="150" flags="0x4"/>
    </TTGlyph>
    <TTGlyph name="Icircumflex" xMin="-15" yMin="0" xMax="313" yMax="940">
      <component glyphName=".ttfautohint" x="0" y="0" flags="0x0"/>
      <component glyphName="I" x="0" y="0" flags="0x204"/>
      <component glyphName="circumflex" x="-69" y="150" flags="0x4"/>
    </TTGlyph>
    <TTGlyph name="Idieresis" xMin="-4" yMin="0" xMax="300" yMax="906">
      <component glyphName=".ttfautohint" x="0" y="0" flags="0x0"/>
      <component glyphName="I" x="0" y="0" flags="0x204"/>
      <component glyphName="dieresis" x="0" y="150" flags="0x4"/>
    </TTGlyph>
    <TTGlyph name="Igrave" xMin="26" yMin="0" xMax="273" yMax="940">
      <component glyphName=".ttfautohint" x="26" y="0" flags="0x0"/>
      <component glyphName="I" x="0" y="0" flags="0x204"/>
      <component glyphName="grave" x="-94" y="150" flags="0x4"/>
    </TTGlyph>
    <TTGlyph name="J" xMin="-10" yMin="-15" xMax="330" yMax="700">
      <contour>
        <pt x="330" y="199" on="1"/>
        <pt x="330" y="140" on="0"/>
        <pt x="309" y="59" on="0"/>
        <pt x="265" y="8" on="0"/>
        <pt x="200" y="-15" on="0"/>
        <pt x="156" y="-15" on="1"/>
        <pt x="97" y="-15" on="0"/>
        <pt x="12" y="46" on="0"/>
        <pt x="-10" y="118" on="1"/>
        <pt x="73" y="146" on="1"/>
        <pt x="91" y="63" on="0"/>
        <pt x="156" y="63" on="1"/>
        <pt x="191" y="63" on="0"/>
        <pt x="234" y="109" on="0"/>
        <pt x="234" y="164" on="1"/>
        <pt x="234" y="700" on="1"/>
        <pt x="330" y="700" on="1"/>
      </contour>
    </TTGlyph>
    <TTGlyph name="K" xMin="100" yMin="0" xMax="561" yMax="700">
      <contour>
        <pt x="196" y="374" on="1"/>
        <pt x="441" y="700" on="1"/>
        <pt x="546" y="700" on="1"/>
        <pt x="307" y="387" on="1"/>
        <pt x="561" y="0" on="1"/>
        <pt x="456" y="0" on="1"/>
        <pt x="251" y="313" on="1"/>
        <pt x="196" y="241" on="1"/>
        <pt x="196" y="0" on="1"/>
        <pt x="100" y="0" on="1"/>
        <pt x="100" y="700" on="1"/>
        <pt x="196" y="700" on="1"/>
      </contour>
    </TTGlyph>
    <TTGlyph name="L" xMin="100" yMin="0" xMax="440" yMax="700">
      <contour>
        <pt x="100" y="0" on="1"/>
        <pt x="100" y="700" on="1"/>
        <pt x="196" y="700" on="1"/>
        <pt x="196" y="78" on="1"/>
        <pt x="440" y="78" on="1"/>
        <pt x="440" y="0" on="1"/>
      </contour>
    </TTGlyph>
    <TTGlyph name="Lslash" xMin="-7" yMin="0" xMax="440" yMax="700">
      <component glyphName=".ttfautohint" x="0" y="0" flags="0x0"/>
      <component glyphName="L" x="0" y="0" flags="0x204"/>
      <component glyphName="eslash" x="-37" y="-86" flags="0x4"/>
    </TTGlyph>
    <TTGlyph name="M" xMin="100" yMin="0" xMax="718" yMax="700">
      <contour>
        <pt x="622" y="580" on="1"/>
        <pt x="446" y="100" on="1"/>
        <pt x="372" y="100" on="1"/>
        <pt x="196" y="580" on="1"/>
        <pt x="196" y="0" on="1"/>
        <pt x="100" y="0" on="1"/>
        <pt x="100" y="700" on="1"/>
        <pt x="236" y="700" on="1"/>
        <pt x="409" y="227" on="1"/>
        <pt x="582" y="700" on="1"/>
        <pt x="718" y="700" on="1"/>
        <pt x="718" y="0" on="1"/>
        <pt x="622" y="0" on="1"/>
      </contour>
    </TTGlyph>
    <TTGlyph name="N" xMin="100" yMin="0" xMax="596" yMax="700">
      <contour>
        <pt x="596" y="0" on="1"/>
        <pt x="460" y="0" on="1"/>
        <pt x="196" y="577" on="1"/>
        <pt x="196" y="0" on="1"/>
        <pt x="100" y="0" on="1"/>
        <pt x="100" y="700" on="1"/>
        <pt x="236" y="700" on="1"/>
        <pt x="500" y="122" on="1"/>
        <pt x="500" y="700" on="1"/>
        <pt x="596" y="700" on="1"/>
      </contour>
    </TTGlyph>
    <TTGlyph name="Ntilde" xMin="100" yMin="0" xMax="596" yMax="904">
      <component glyphName=".ttfautohint" x="100" y="0" flags="0x0"/>
      <component glyphName="N" x="0" y="0" flags="0x204"/>
      <component glyphName="tilde" x="70" y="150" flags="0x4"/>
    </TTGlyph>
    <TTGlyph name="O" xMin="70" yMin="-15" xMax="654" yMax="715">
      <contour>
        <pt x="70" y="351" on="1"/>
        <pt x="70" y="441" on="0"/>
        <pt x="114" y="577" on="0"/>
        <pt x="192" y="669" on="0"/>
        <pt x="299" y="715" on="0"/>
        <pt x="361" y="715" on="1"/>
        <pt x="423" y="715" on="0"/>
        <pt x="530" y="669" on="0"/>
        <pt x="609" y="577" on="0"/>
        <pt x="654" y="441" on="0"/>
        <pt x="654" y="351" on="1"/>
        <pt x="654" y="260" on="0"/>
        <pt x="609" y="123" on="0"/>
        <pt x="530" y="31" on="0"/>
        <pt x="423" y="-15" on="0"/>
        <pt x="361" y="-15" on="1"/>
        <pt x="299" y="-15" on="0"/>
        <pt x="192" y="31" on="0"/>
        <pt x="114" y="123" on="0"/>
        <pt x="70" y="260" on="0"/>
      </contour>
      <contour>
        <pt x="170" y="351" on="1"/>
        <pt x="170" y="277" on="0"/>
        <pt x="198" y="169" on="0"/>
        <pt x="249" y="98" on="0"/>
        <pt x="319" y="63" on="0"/>
        <pt x="361" y="63" on="1"/>
        <pt x="404" y="63" on="0"/>
        <pt x="475" y="98" on="0"/>
        <pt x="526" y="169" on="0"/>
        <pt x="554" y="277" on="0"/>
        <pt x="554" y="351" on="1"/>
        <pt x="554" y="424" on="0"/>
        <pt x="526" y="531" on="0"/>
        <pt x="475" y="602" on="0"/>
        <pt x="404" y="637" on="0"/>
        <pt x="361" y="637" on="1"/>
        <pt x="319" y="637" on="0"/>
        <pt x="249" y="602" on="0"/>
        <pt x="198" y="531" on="0"/>
        <pt x="170" y="424" on="0"/>
      </contour>
    </TTGlyph>
    <TTGlyph name="OE" xMin="70" yMin="0" xMax="841" yMax="700">
      <contour>
        <pt x="488" y="0" on="1"/>
        <pt x="361" y="0" on="1"/>
        <pt x="298" y="0" on="0"/>
        <pt x="191" y="45" on="0"/>
        <pt x="113" y="133" on="0"/>
        <pt x="70" y="264" on="0"/>
        <pt x="70" y="351" on="1"/>
        <pt x="70" y="438" on="0"/>
        <pt x="114" y="568" on="0"/>
        <pt x="192" y="656" on="0"/>
        <pt x="297" y="700" on="0"/>
        <pt x="359" y="700" on="1"/>
        <pt x="488" y="700" on="1"/>
        <pt x="488" y="622" on="1"/>
        <pt x="362" y="622" on="1"/>
        <pt x="320" y="622" on="0"/>
        <pt x="250" y="589" on="0"/>
        <pt x="199" y="522" on="0"/>
        <pt x="170" y="420" on="0"/>
        <pt x="170" y="351" on="1"/>
        <pt x="170" y="282" on="0"/>
        <pt x="199" y="179" on="0"/>
        <pt x="251" y="111" on="0"/>
        <pt x="323" y="78" on="0"/>
        <pt x="365" y="78" on="1"/>
        <pt x="488" y="78" on="1"/>
      </contour>
      <contour>
        <pt x="841" y="622" on="1"/>
        <pt x="547" y="622" on="1"/>
        <pt x="547" y="389" on="1"/>
        <pt x="811" y="389" on="1"/>
        <pt x="811" y="311" on="1"/>
        <pt x="547" y="311" on="1"/>
        <pt x="547" y="78" on="1"/>
        <pt x="841" y="78" on="1"/>
        <pt x="841" y="0" on="1"/>
        <pt x="451" y="0" on="1"/>
        <pt x="451" y="700" on="1"/>
        <pt x="841" y="700" on="1"/>
      </contour>
    </TTGlyph>
    <TTGlyph name="Oacute" xMin="70" yMin="-15" xMax="654" yMax="940">
      <component glyphName=".ttfautohint" x="70" y="0" flags="0x0"/>
      <component glyphName="O" x="0" y="0" flags="0x204"/>
      <component glyphName="acute" x="136" y="150" flags="0x4"/>
    </TTGlyph>
    <TTGlyph name="Ocircumflex" xMin="70" yMin="-15" xMax="654" yMax="940">
      <component glyphName=".ttfautohint" x="70" y="0" flags="0x0"/>
      <component glyphName="O" x="0" y="0" flags="0x204"/>
      <component glyphName="circumflex" x="144" y="150" flags="0x4"/>
    </TTGlyph>
    <TTGlyph name="Odieresis" xMin="70" yMin="-15" xMax="654" yMax="906">
      <component glyphName=".ttfautohint" x="70" y="0" flags="0x0"/>
      <component glyphName="O" x="0" y="0" flags="0x204"/>
      <component glyphName="dieresis" x="214" y="150" flags="0x4"/>
    </TTGlyph>
    <TTGlyph name="Ograve" xMin="70" yMin="-15" xMax="654" yMax="940">
      <component glyphName=".ttfautohint" x="70" y="0" flags="0x0"/>
      <component glyphName="O" x="0" y="0" flags="0x204"/>
      <component glyphName="grave" x="118" y="150" flags="0x4"/>
    </TTGlyph>
    <TTGlyph name="Omega" xMin="69" yMin="0" xMax="698" yMax="715">
      <contour>
        <pt x="464" y="197" on="1"/>
        <pt x="527" y="217" on="0"/>
        <pt x="608" y="324" on="0"/>
        <pt x="608" y="411" on="1"/>
        <pt x="608" y="467" on="0"/>
        <pt x="573" y="553" on="0"/>
        <pt x="512" y="611" on="0"/>
        <pt x="430" y="641" on="0"/>
        <pt x="384" y="641" on="1"/>
        <pt x="337" y="641" on="0"/>
        <pt x="256" y="611" on="0"/>
        <pt x="194" y="553" on="0"/>
        <pt x="159" y="467" on="0"/>
        <pt x="159" y="411" on="1"/>
        <pt x="159" y="324" on="0"/>
        <pt x="240" y="217" on="0"/>
        <pt x="304" y="197" on="1"/>
        <pt x="304" y="0" on="1"/>
        <pt x="88" y="0" on="1"/>
        <pt x="88" y="68" on="1"/>
        <pt x="228" y="68" on="1"/>
        <pt x="228" y="153" on="1"/>
        <pt x="156" y="186" on="0"/>
        <pt x="69" y="316" on="0"/>
        <pt x="69" y="401" on="1"/>
        <pt x="69" y="479" on="0"/>
        <pt x="119" y="596" on="0"/>
        <pt x="204" y="675" on="0"/>
        <pt x="319" y="715" on="0"/>
        <pt x="384" y="715" on="1"/>
        <pt x="449" y="715" on="0"/>
        <pt x="563" y="675" on="0"/>
        <pt x="649" y="596" on="0"/>
        <pt x="698" y="479" on="0"/>
        <pt x="698" y="401" on="1"/>
        <pt x="698" y="316" on="0"/>
        <pt x="611" y="186" on="0"/>
        <pt x="540" y="153" on="1"/>
        <pt x="540" y="68" on="1"/>
        <pt x="680" y="68" on="1"/>
        <pt x="680" y="0" on="1"/>
        <pt x="464" y="0" on="1"/>
      </contour>
    </TTGlyph>
    <TTGlyph name="Oslash" xMin="70" yMin="-55" xMax="654" yMax="755">
      <component glyphName=".ttfautohint" x="70" y="0" flags="0x0"/>
      <component glyphName="O" x="0" y="0" flags="0x204"/>
      <component glyphName="thin-slash" x="171" y="0" flags="0x4"/>
    </TTGlyph>
    <TTGlyph name="Otilde" xMin="70" yMin="-15" xMax="654" yMax="904">
      <component glyphName=".ttfautohint" x="70" y="0" flags="0x0"/>
      <component glyphName="O" x="0" y="0" flags="0x204"/>
      <component glyphName="tilde" x="84" y="150" flags="0x4"/>
    </TTGlyph>
    <TTGlyph name="P" xMin="100" yMin="0" xMax="541" yMax="700">
      <contour>
        <pt x="302" y="700" on="1"/>
        <pt x="362" y="700" on="0"/>
        <pt x="452" y="667" on="0"/>
        <pt x="511" y="608" on="0"/>
        <pt x="541" y="527" on="0"/>
        <pt x="541" y="480" on="1"/>
        <pt x="541" y="432" on="0"/>
        <pt x="511" y="352" on="0"/>
        <pt x="452" y="293" on="0"/>
        <pt x="362" y="261" on="0"/>
        <pt x="302" y="261" on="1"/>
        <pt x="196" y="261" on="1"/>
        <pt x="196" y="0" on="1"/>
        <pt x="100" y="0" on="1"/>
        <pt x="100" y="700" on="1"/>
      </contour>
      <contour>
        <pt x="196" y="622" on="1"/>
        <pt x="196" y="339" on="1"/>
        <pt x="302" y="339" on="1"/>
        <pt x="345" y="339" on="0"/>
        <pt x="401" y="364" on="0"/>
        <pt x="434" y="404" on="0"/>
        <pt x="448" y="454" on="0"/>
        <pt x="448" y="480" on="1"/>
        <pt x="448" y="505" on="0"/>
        <pt x="434" y="556" on="0"/>
        <pt x="401" y="597" on="0"/>
        <pt x="345" y="622" on="0"/>
        <pt x="302" y="622" on="1"/>
      </contour>
    </TTGlyph>
    <TTGlyph name="Q" xMin="70" yMin="-153" xMax="654" yMax="715">
      <contour>
        <pt x="488" y="-153" on="1"/>
        <pt x="464" y="-153" on="1"/>
        <pt x="464" y="-122" on="0"/>
        <pt x="443" y="-71" on="0"/>
        <pt x="412" y="-35" on="0"/>
        <pt x="376" y="-15" on="0"/>
        <pt x="361" y="-15" on="1"/>
        <pt x="361" y="30" on="1"/>
        <pt x="398" y="30" on="0"/>
        <pt x="465" y="14" on="0"/>
        <pt x="516" y="-23" on="0"/>
        <pt x="546" y="-84" on="0"/>
        <pt x="546" y="-129" on="1"/>
      </contour>
      <contour>
        <pt x="70" y="351" on="1"/>
        <pt x="70" y="441" on="0"/>
        <pt x="114" y="577" on="0"/>
        <pt x="192" y="669" on="0"/>
        <pt x="299" y="715" on="0"/>
        <pt x="361" y="715" on="1"/>
        <pt x="423" y="715" on="0"/>
        <pt x="530" y="669" on="0"/>
        <pt x="609" y="577" on="0"/>
        <pt x="654" y="441" on="0"/>
        <pt x="654" y="351" on="1"/>
        <pt x="654" y="260" on="0"/>
        <pt x="609" y="123" on="0"/>
        <pt x="530" y="31" on="0"/>
        <pt x="423" y="-15" on="0"/>
        <pt x="361" y="-15" on="1"/>
        <pt x="299" y="-15" on="0"/>
        <pt x="192" y="31" on="0"/>
        <pt x="114" y="123" on="0"/>
        <pt x="70" y="260" on="0"/>
      </contour>
      <contour>
        <pt x="170" y="351" on="1"/>
        <pt x="170" y="277" on="0"/>
        <pt x="198" y="169" on="0"/>
        <pt x="249" y="98" on="0"/>
        <pt x="319" y="63" on="0"/>
        <pt x="361" y="63" on="1"/>
        <pt x="404" y="63" on="0"/>
        <pt x="475" y="98" on="0"/>
        <pt x="526" y="169" on="0"/>
        <pt x="554" y="277" on="0"/>
        <pt x="554" y="351" on="1"/>
        <pt x="554" y="424" on="0"/>
        <pt x="526" y="531" on="0"/>
        <pt x="475" y="602" on="0"/>
        <pt x="404" y="637" on="0"/>
        <pt x="361" y="637" on="1"/>
        <pt x="319" y="637" on="0"/>
        <pt x="249" y="602" on="0"/>
        <pt x="198" y="531" on="0"/>
        <pt x="170" y="424" on="0"/>
      </contour>
    </TTGlyph>
    <TTGlyph name="R" xMin="100" yMin="0" xMax="581" yMax="700">
      <contour>
        <pt x="365" y="242" on="1"/>
        <pt x="353" y="268" on="0"/>
        <pt x="323" y="286" on="0"/>
        <pt x="303" y="286" on="1"/>
        <pt x="302" y="286" on="1"/>
        <pt x="196" y="286" on="1"/>
        <pt x="196" y="0" on="1"/>
        <pt x="100" y="0" on="1"/>
        <pt x="100" y="700" on="1"/>
        <pt x="302" y="700" on="1"/>
        <pt x="362" y="700" on="0"/>
        <pt x="452" y="667" on="0"/>
        <pt x="511" y="610" on="0"/>
        <pt x="541" y="534" on="0"/>
        <pt x="541" y="490" on="1"/>
        <pt x="541" y="425" on="0"/>
        <pt x="480" y="329" on="0"/>
        <pt x="419" y="305" on="1"/>
        <pt x="433" y="295" on="0"/>
        <pt x="450" y="270" on="0"/>
        <pt x="456" y="258" on="1"/>
        <pt x="581" y="0" on="1"/>
        <pt x="476" y="0" on="1"/>
      </contour>
      <contour>
        <pt x="196" y="622" on="1"/>
        <pt x="196" y="364" on="1"/>
        <pt x="302" y="364" on="1"/>
        <pt x="345" y="364" on="0"/>
        <pt x="401" y="387" on="0"/>
        <pt x="434" y="423" on="0"/>
        <pt x="448" y="469" on="0"/>
        <pt x="448" y="493" on="1"/>
        <pt x="448" y="516" on="0"/>
        <pt x="434" y="562" on="0"/>
        <pt x="401" y="599" on="0"/>
        <pt x="345" y="622" on="0"/>
        <pt x="302" y="622" on="1"/>
      </contour>
    </TTGlyph>
    <TTGlyph name="S" xMin="48" yMin="-15" xMax="514" yMax="715">
      <contour>
        <pt x="418" y="163" on="1"/>
        <pt x="418" y="203" on="0"/>
        <pt x="366" y="255" on="0"/>
        <pt x="289" y="295" on="0"/>
        <pt x="198" y="333" on="0"/>
        <pt x="121" y="387" on="0"/>
        <pt x="69" y="466" on="0"/>
        <pt x="69" y="527" on="1"/>
        <pt x="69" y="557" on="0"/>
        <pt x="92" y="623" on="0"/>
        <pt x="144" y="679" on="0"/>
        <pt x="229" y="715" on="0"/>
        <pt x="292" y="715" on="1"/>
        <pt x="375" y="715" on="0"/>
        <pt x="486" y="644" on="0"/>
        <pt x="510" y="563" on="1"/>
        <pt x="423" y="532" on="1"/>
        <pt x="406" y="581" on="0"/>
        <pt x="334" y="637" on="0"/>
        <pt x="279" y="637" on="1"/>
        <pt x="228" y="637" on="0"/>
        <pt x="165" y="583" on="0"/>
        <pt x="165" y="535" on="1"/>
        <pt x="165" y="494" on="0"/>
        <pt x="217" y="441" on="0"/>
        <pt x="294" y="400" on="0"/>
        <pt x="385" y="362" on="0"/>
        <pt x="462" y="311" on="0"/>
        <pt x="514" y="238" on="0"/>
        <pt x="514" y="182" on="1"/>
        <pt x="514" y="151" on="0"/>
        <pt x="490" y="82" on="0"/>
        <pt x="436" y="23" on="0"/>
        <pt x="347" y="-15" on="0"/>
        <pt x="281" y="-15" on="1"/>
        <pt x="192" y="-15" on="0"/>
        <pt x="73" y="72" on="0"/>
        <pt x="48" y="171" on="1"/>
        <pt x="134" y="202" on="1"/>
        <pt x="169" y="63" on="0"/>
        <pt x="290" y="63" on="1"/>
        <pt x="346" y="63" on="0"/>
        <pt x="418" y="120" on="0"/>
      </contour>
    </TTGlyph>
    <TTGlyph name="Scaron" xMin="48" yMin="-15" xMax="514" yMax="937">
      <component glyphName=".ttfautohint" x="48" y="0" flags="0x0"/>
      <component glyphName="S" x="0" y="0" flags="0x204"/>
      <component glyphName="caron" x="80" y="150" flags="0x4"/>
    </TTGlyph>
    <TTGlyph name="T" xMin="5" yMin="0" xMax="469" yMax="700">
      <contour>
        <pt x="469" y="700" on="1"/>
        <pt x="469" y="622" on="1"/>
        <pt x="285" y="622" on="1"/>
        <pt x="285" y="0" on="1"/>
        <pt x="189" y="0" on="1"/>
        <pt x="189" y="622" on="1"/>
        <pt x="5" y="622" on="1"/>
        <pt x="5" y="700" on="1"/>
      </contour>
    </TTGlyph>
    <TTGlyph name="Thorn" xMin="100" yMin="0" xMax="541" yMax="700">
      <contour>
        <pt x="196" y="570" on="1"/>
        <pt x="302" y="570" on="1"/>
        <pt x="362" y="570" on="0"/>
        <pt x="452" y="536" on="0"/>
        <pt x="511" y="477" on="0"/>
        <pt x="541" y="396" on="0"/>
        <pt x="541" y="349" on="1"/>
        <pt x="541" y="301" on="0"/>
        <pt x="511" y="221" on="0"/>
        <pt x="452" y="162" on="0"/>
        <pt x="362" y="130" on="0"/>
        <pt x="302" y="130" on="1"/>
        <pt x="196" y="130" on="1"/>
        <pt x="196" y="0" on="1"/>
        <pt x="100" y="0" on="1"/>
        <pt x="100" y="700" on="1"/>
        <pt x="196" y="700" on="1"/>
      </contour>
      <contour>
        <pt x="196" y="492" on="1"/>
        <pt x="196" y="208" on="1"/>
        <pt x="302" y="208" on="1"/>
        <pt x="345" y="208" on="0"/>
        <pt x="401" y="233" on="0"/>
        <pt x="434" y="273" on="0"/>
        <pt x="448" y="323" on="0"/>
        <pt x="448" y="349" on="1"/>
        <pt x="448" y="374" on="0"/>
        <pt x="434" y="426" on="0"/>
        <pt x="401" y="466" on="0"/>
        <pt x="345" y="492" on="0"/>
        <pt x="302" y="492" on="1"/>
      </contour>
    </TTGlyph>
    <TTGlyph name="U" xMin="90" yMin="-15" xMax="581" yMax="700">
      <contour>
        <pt x="581" y="236" on="1"/>
        <pt x="581" y="171" on="0"/>
        <pt x="543" y="77" on="0"/>
        <pt x="477" y="15" on="0"/>
        <pt x="387" y="-15" on="0"/>
        <pt x="335" y="-15" on="1"/>
        <pt x="282" y="-15" on="0"/>
        <pt x="193" y="15" on="0"/>
        <pt x="127" y="77" on="0"/>
        <pt x="90" y="171" on="0"/>
        <pt x="90" y="236" on="1"/>
        <pt x="90" y="700" on="1"/>
        <pt x="186" y="700" on="1"/>
        <pt x="186" y="236" on="1"/>
        <pt x="186" y="188" on="0"/>
        <pt x="208" y="121" on="0"/>
        <pt x="247" y="79" on="0"/>
        <pt x="302" y="60" on="0"/>
        <pt x="335" y="60" on="1"/>
        <pt x="369" y="60" on="0"/>
        <pt x="424" y="79" on="0"/>
        <pt x="463" y="121" on="0"/>
        <pt x="485" y="188" on="0"/>
        <pt x="485" y="236" on="1"/>
        <pt x="485" y="700" on="1"/>
        <pt x="581" y="700" on="1"/>
      </contour>
    </TTGlyph>
    <TTGlyph name="Uacute" xMin="90" yMin="-15" xMax="581" yMax="940">
      <component glyphName=".ttfautohint" x="90" y="0" flags="0x0"/>
      <component glyphName="U" x="0" y="0" flags="0x204"/>
      <component glyphName="acute" x="130" y="150" flags="0x4"/>
    </TTGlyph>
    <TTGlyph name="Ucircumflex" xMin="90" yMin="-15" xMax="581" yMax="940">
      <component glyphName=".ttfautohint" x="90" y="0" flags="0x0"/>
      <component glyphName="U" x="0" y="0" flags="0x204"/>
      <component glyphName="circumflex" x="117" y="150" flags="0x4"/>
    </TTGlyph>
    <TTGlyph name="Udieresis" xMin="90" yMin="-15" xMax="581" yMax="906">
      <component glyphName=".ttfautohint" x="90" y="0" flags="0x0"/>
      <component glyphName="U" x="0" y="0" flags="0x204"/>
      <component glyphName="dieresis" x="187" y="150" flags="0x4"/>
    </TTGlyph>
    <TTGlyph name="Ugrave" xMin="90" yMin="-15" xMax="581" yMax="940">
      <component glyphName=".ttfautohint" x="90" y="0" flags="0x0"/>
      <component glyphName="U" x="0" y="0" flags="0x204"/>
      <component glyphName="grave" x="92" y="150" flags="0x4"/>
    </TTGlyph>
    <TTGlyph name="V" xMin="20" yMin="0" xMax="542" yMax="700">
      <contour>
        <pt x="357" y="0" on="1"/>
        <pt x="205" y="0" on="1"/>
        <pt x="20" y="700" on="1"/>
        <pt x="114" y="700" on="1"/>
        <pt x="281" y="68" on="1"/>
        <pt x="448" y="700" on="1"/>
        <pt x="542" y="700" on="1"/>
      </contour>
    </TTGlyph>
    <TTGlyph name="W" xMin="30" yMin="0" xMax="890" yMax="700">
      <contour>
        <pt x="460" y="564" on="1"/>
        <pt x="327" y="0" on="1"/>
        <pt x="185" y="0" on="1"/>
        <pt x="30" y="700" on="1"/>
        <pt x="124" y="700" on="1"/>
        <pt x="261" y="78" on="1"/>
        <pt x="408" y="700" on="1"/>
        <pt x="512" y="700" on="1"/>
        <pt x="658" y="79" on="1"/>
        <pt x="796" y="700" on="1"/>
        <pt x="890" y="700" on="1"/>
        <pt x="735" y="0" on="1"/>
        <pt x="593" y="0" on="1"/>
      </contour>
    </TTGlyph>
    <TTGlyph name="X" xMin="30" yMin="0" xMax="566" yMax="700">
      <contour>
        <pt x="300" y="440" on="1"/>
        <pt x="455" y="700" on="1"/>
        <pt x="560" y="700" on="1"/>
        <pt x="353" y="352" on="1"/>
        <pt x="566" y="0" on="1"/>
        <pt x="458" y="0" on="1"/>
        <pt x="295" y="269" on="1"/>
        <pt x="135" y="0" on="1"/>
        <pt x="30" y="0" on="1"/>
        <pt x="243" y="356" on="1"/>
        <pt x="36" y="700" on="1"/>
        <pt x="144" y="700" on="1"/>
      </contour>
    </TTGlyph>
    <TTGlyph name="Y" xMin="15" yMin="0" xMax="501" yMax="700">
      <contour>
        <pt x="258" y="361" on="1"/>
        <pt x="402" y="700" on="1"/>
        <pt x="501" y="700" on="1"/>
        <pt x="306" y="260" on="1"/>
        <pt x="306" y="0" on="1"/>
        <pt x="210" y="0" on="1"/>
        <pt x="210" y="260" on="1"/>
        <pt x="15" y="700" on="1"/>
        <pt x="114" y="700" on="1"/>
      </contour>
    </TTGlyph>
    <TTGlyph name="Yacute" xMin="15" yMin="0" xMax="501" yMax="940">
      <component glyphName=".ttfautohint" x="15" y="0" flags="0x0"/>
      <component glyphName="Y" x="0" y="0" flags="0x204"/>
      <component glyphName="acute" x="52" y="150" flags="0x4"/>
    </TTGlyph>
    <TTGlyph name="Ydieresis" xMin="15" yMin="0" xMax="501" yMax="906">
      <component glyphName=".ttfautohint" x="15" y="0" flags="0x0"/>
      <component glyphName="Y" x="0" y="0" flags="0x204"/>
      <component glyphName="dieresis" x="110" y="150" flags="0x4"/>
    </TTGlyph>
    <TTGlyph name="Z" xMin="35" yMin="0" xMax="492" yMax="700">
      <contour>
        <pt x="35" y="44" on="1"/>
        <pt x="368" y="622" on="1"/>
        <pt x="60" y="622" on="1"/>
        <pt x="60" y="700" on="1"/>
        <pt x="492" y="700" on="1"/>
        <pt x="492" y="656" on="1"/>
        <pt x="159" y="78" on="1"/>
        <pt x="485" y="78" on="1"/>
        <pt x="485" y="0" on="1"/>
        <pt x="35" y="0" on="1"/>
      </contour>
    </TTGlyph>
    <TTGlyph name="Zcaron" xMin="35" yMin="0" xMax="492" yMax="937">
      <component glyphName=".ttfautohint" x="35" y="0" flags="0x0"/>
      <component glyphName="Z" x="0" y="0" flags="0x204"/>
      <component glyphName="caron" x="70" y="150" flags="0x4"/>
    </TTGlyph>
    <TTGlyph name="a" xMin="55" yMin="-15" xMax="542" yMax="545">
      <contour>
        <pt x="268" y="467" on="1"/>
        <pt x="184" y="467" on="0"/>
        <pt x="159" y="384" on="1"/>
        <pt x="76" y="412" on="1"/>
        <pt x="116" y="545" on="0"/>
        <pt x="268" y="545" on="1"/>
        <pt x="373" y="545" on="0"/>
        <pt x="466" y="440" on="0"/>
        <pt x="466" y="321" on="1"/>
        <pt x="466" y="85" on="1"/>
        <pt x="466" y="69" on="0"/>
        <pt x="481" y="58" on="0"/>
        <pt x="492" y="58" on="1"/>
        <pt x="500" y="58" on="0"/>
        <pt x="518" y="63" on="0"/>
        <pt x="526" y="67" on="1"/>
        <pt x="542" y="5" on="1"/>
        <pt x="526" y="-3" on="0"/>
        <pt x="488" y="-15" on="0"/>
        <pt x="465" y="-15" on="1"/>
        <pt x="429" y="-15" on="0"/>
        <pt x="380" y="20" on="0"/>
        <pt x="375" y="70" on="1"/>
        <pt x="360" y="54" on="0"/>
        <pt x="322" y="23" on="0"/>
        <pt x="277" y="-1" on="0"/>
        <pt x="226" y="-15" on="0"/>
        <pt x="198" y="-15" on="1"/>
        <pt x="168" y="-15" on="0"/>
        <pt x="115" y="8" on="0"/>
        <pt x="77" y="48" on="0"/>
        <pt x="55" y="103" on="0"/>
        <pt x="55" y="135" on="1"/>
        <pt x="55" y="217" on="0"/>
        <pt x="166" y="309" on="0"/>
        <pt x="264" y="309" on="1"/>
        <pt x="291" y="309" on="0"/>
        <pt x="345" y="301" on="0"/>
        <pt x="370" y="293" on="1"/>
        <pt x="370" y="356" on="1"/>
        <pt x="370" y="408" on="0"/>
        <pt x="316" y="467" on="0"/>
      </contour>
      <contour>
        <pt x="227" y="63" on="1"/>
        <pt x="265" y="63" on="0"/>
        <pt x="338" y="100" on="0"/>
        <pt x="370" y="132" on="1"/>
        <pt x="370" y="229" on="1"/>
        <pt x="349" y="236" on="0"/>
        <pt x="301" y="244" on="0"/>
        <pt x="278" y="244" on="1"/>
        <pt x="253" y="244" on="0"/>
        <pt x="207" y="234" on="0"/>
        <pt x="172" y="210" on="0"/>
        <pt x="151" y="171" on="0"/>
        <pt x="151" y="143" on="1"/>
        <pt x="151" y="110" on="0"/>
        <pt x="193" y="63" on="0"/>
      </contour>
    </TTGlyph>
    <TTGlyph name="aacute" xMin="55" yMin="-15" xMax="542" yMax="790">
      <component glyphName=".ttfautohint" x="55" y="0" flags="0x0"/>
      <component glyphName="a" x="0" y="0" flags="0x204"/>
      <component glyphName="acute" x="74" y="0" flags="0x4"/>
    </TTGlyph>
    <TTGlyph name="acircumflex" xMin="55" yMin="-15" xMax="542" yMax="790">
      <component glyphName=".ttfautohint" x="55" y="0" flags="0x0"/>
      <component glyphName="a" x="0" y="0" flags="0x204"/>
      <component glyphName="circumflex" x="65" y="0" flags="0x4"/>
    </TTGlyph>
    <TTGlyph name="acute" xMin="102" yMin="607" xMax="349" yMax="790">
      <contour>
        <pt x="308" y="790" on="1"/>
        <pt x="349" y="717" on="1"/>
        <pt x="134" y="607" on="1"/>
        <pt x="102" y="665" on="1"/>
      </contour>
    </TTGlyph>
    <TTGlyph name="acute.case" xMin="102" yMin="757" xMax="349" yMax="940">
      <component glyphName=".ttfautohint" x="102" y="757" flags="0x0"/>
      <component glyphName="acute" x="0" y="150" flags="0x204"/>
    </TTGlyph>
    <TTGlyph name="adieresis" xMin="55" yMin="-15" xMax="542" yMax="756">
      <component glyphName=".ttfautohint" x="55" y="0" flags="0x0"/>
      <component glyphName="a" x="0" y="0" flags="0x204"/>
      <component glyphName="dieresis" x="135" y="0" flags="0x4"/>
    </TTGlyph>
    <TTGlyph name="ae" xMin="55" yMin="-15" xMax="821" yMax="545">
      <contour>
        <pt x="618" y="63" on="1"/>
        <pt x="669" y="63" on="0"/>
        <pt x="744" y="102" on="0"/>
        <pt x="767" y="124" on="1"/>
        <pt x="810" y="72" on="1"/>
        <pt x="779" y="37" on="0"/>
        <pt x="679" y="-15" on="0"/>
        <pt x="615" y="-15" on="1"/>
        <pt x="552" y="-15" on="0"/>
        <pt x="451" y="34" on="0"/>
        <pt x="418" y="82" on="1"/>
        <pt x="381" y="40" on="0"/>
        <pt x="268" y="-15" on="0"/>
        <pt x="208" y="-15" on="1"/>
        <pt x="177" y="-15" on="0"/>
        <pt x="122" y="1" on="0"/>
        <pt x="80" y="37" on="0"/>
        <pt x="55" y="94" on="0"/>
        <pt x="55" y="135" on="1"/>
        <pt x="55" y="217" on="0"/>
        <pt x="160" y="307" on="0"/>
        <pt x="258" y="307" on="1"/>
        <pt x="370" y="307" on="1"/>
        <pt x="370" y="356" on="1"/>
        <pt x="370" y="411" on="0"/>
        <pt x="313" y="467" on="0"/>
        <pt x="268" y="467" on="1"/>
        <pt x="184" y="467" on="0"/>
        <pt x="159" y="384" on="1"/>
        <pt x="76" y="412" on="1"/>
        <pt x="98" y="484" on="0"/>
        <pt x="197" y="545" on="0"/>
        <pt x="268" y="545" on="1"/>
        <pt x="330" y="545" on="0"/>
        <pt x="411" y="509" on="0"/>
        <pt x="434" y="469" on="1"/>
        <pt x="466" y="507" on="0"/>
        <pt x="555" y="545" on="0"/>
        <pt x="608" y="545" on="1"/>
        <pt x="655" y="545" on="0"/>
        <pt x="734" y="516" on="0"/>
        <pt x="790" y="456" on="0"/>
        <pt x="821" y="367" on="0"/>
        <pt x="821" y="307" on="1"/>
        <pt x="821" y="237" on="1"/>
        <pt x="467" y="237" on="1"/>
        <pt x="473" y="148" on="0"/>
        <pt x="558" y="63" on="0"/>
      </contour>
      <contour>
        <pt x="726" y="307" on="1"/>
        <pt x="726" y="384" on="0"/>
        <pt x="665" y="467" on="0"/>
        <pt x="609" y="467" on="1"/>
        <pt x="555" y="467" on="0"/>
        <pt x="477" y="388" on="0"/>
        <pt x="468" y="307" on="1"/>
      </contour>
      <contour>
        <pt x="227" y="63" on="1"/>
        <pt x="269" y="63" on="0"/>
        <pt x="353" y="108" on="0"/>
        <pt x="387" y="145" on="1"/>
        <pt x="374" y="184" on="0"/>
        <pt x="371" y="237" on="1"/>
        <pt x="278" y="237" on="1"/>
        <pt x="253" y="237" on="0"/>
        <pt x="207" y="229" on="0"/>
        <pt x="172" y="208" on="0"/>
        <pt x="151" y="171" on="0"/>
        <pt x="151" y="143" on="1"/>
        <pt x="151" y="110" on="0"/>
        <pt x="193" y="63" on="0"/>
      </contour>
    </TTGlyph>
    <TTGlyph name="agrave" xMin="55" yMin="-15" xMax="542" yMax="790">
      <component glyphName=".ttfautohint" x="55" y="0" flags="0x0"/>
      <component glyphName="a" x="0" y="0" flags="0x204"/>
      <component glyphName="grave" x="39" y="0" flags="0x4"/>
    </TTGlyph>
    <TTGlyph name="ampersand" xMin="40" yMin="-15" xMax="625" yMax="715">
      <contour>
        <pt x="550" y="314" on="1"/>
        <pt x="550" y="268" on="0"/>
        <pt x="531" y="179" on="0"/>
        <pt x="511" y="139" on="1"/>
        <pt x="535" y="119" on="0"/>
        <pt x="576" y="89" on="0"/>
        <pt x="592" y="78" on="1"/>
        <pt x="610" y="65" on="0"/>
        <pt x="625" y="55" on="1"/>
        <pt x="573" y="-9" on="1"/>
        <pt x="559" y="1" on="0"/>
        <pt x="542" y="13" on="1"/>
        <pt x="528" y="24" on="0"/>
        <pt x="488" y="52" on="0"/>
        <pt x="465" y="71" on="1"/>
        <pt x="429" y="32" on="0"/>
        <pt x="325" y="-15" on="0"/>
        <pt x="256" y="-15" on="1"/>
        <pt x="200" y="-15" on="0"/>
        <pt x="118" y="17" on="0"/>
        <pt x="65" y="70" on="0"/>
        <pt x="40" y="140" on="0"/>
        <pt x="40" y="179" on="1"/>
        <pt x="40" y="219" on="0"/>
        <pt x="62" y="280" on="0"/>
        <pt x="99" y="326" on="0"/>
        <pt x="148" y="360" on="0"/>
        <pt x="176" y="374" on="1"/>
        <pt x="150" y="415" on="0"/>
        <pt x="121" y="497" on="0"/>
        <pt x="121" y="536" on="1"/>
        <pt x="121" y="579" on="0"/>
        <pt x="154" y="646" on="0"/>
        <pt x="208" y="691" on="0"/>
        <pt x="277" y="715" on="0"/>
        <pt x="312" y="715" on="1"/>
        <pt x="346" y="715" on="0"/>
        <pt x="411" y="694" on="0"/>
        <pt x="461" y="653" on="0"/>
        <pt x="491" y="591" on="0"/>
        <pt x="491" y="550" on="1"/>
        <pt x="491" y="510" on="0"/>
        <pt x="461" y="449" on="0"/>
        <pt x="408" y="400" on="0"/>
        <pt x="339" y="361" on="0"/>
        <pt x="300" y="343" on="1"/>
        <pt x="332" y="302" on="0"/>
        <pt x="410" y="226" on="0"/>
        <pt x="448" y="192" on="1"/>
        <pt x="457" y="214" on="0"/>
        <pt x="467" y="257" on="0"/>
        <pt x="471" y="291" on="0"/>
        <pt x="472" y="312" on="0"/>
        <pt x="472" y="314" on="1"/>
      </contour>
      <contour>
        <pt x="256" y="63" on="1"/>
        <pt x="308" y="63" on="0"/>
        <pt x="380" y="96" on="0"/>
        <pt x="404" y="122" on="1"/>
        <pt x="358" y="162" on="0"/>
        <pt x="262" y="256" on="0"/>
        <pt x="222" y="308" on="1"/>
        <pt x="203" y="298" on="0"/>
        <pt x="169" y="275" on="0"/>
        <pt x="144" y="244" on="0"/>
        <pt x="130" y="205" on="0"/>
        <pt x="130" y="179" on="1"/>
        <pt x="130" y="156" on="0"/>
        <pt x="145" y="114" on="0"/>
        <pt x="175" y="82" on="0"/>
        <pt x="223" y="63" on="0"/>
      </contour>
      <contour>
        <pt x="211" y="536" on="1"/>
        <pt x="211" y="506" on="0"/>
        <pt x="233" y="442" on="0"/>
        <pt x="253" y="409" on="1"/>
        <pt x="287" y="424" on="0"/>
        <pt x="342" y="451" on="0"/>
        <pt x="381" y="482" on="0"/>
        <pt x="401" y="521" on="0"/>
        <pt x="401" y="550" on="1"/>
        <pt x="401" y="571" on="0"/>
        <pt x="386" y="603" on="0"/>
        <pt x="361" y="625" on="0"/>
        <pt x="329" y="637" on="0"/>
        <pt x="312" y="637" on="1"/>
        <pt x="293" y="637" on="0"/>
        <pt x="257" y="624" on="0"/>
        <pt x="228" y="598" on="0"/>
        <pt x="211" y="560" on="0"/>
      </contour>
    </TTGlyph>
    <TTGlyph name="apple" xMin="120" yMin="-114" xMax="843" yMax="608">
      <contour>
        <pt x="576" y="-89" on="1"/>
        <pt x="562" y="-93" on="0"/>
        <pt x="541" y="-112" on="0"/>
        <pt x="528" y="-112" on="1"/>
        <pt x="517" y="-112" on="0"/>
        <pt x="493" y="-102" on="0"/>
        <pt x="482" y="-102" on="1"/>
        <pt x="470" y="-102" on="0"/>
        <pt x="447" y="-114" on="0"/>
        <pt x="436" y="-114" on="1"/>
        <pt x="428" y="-114" on="0"/>
        <pt x="416" y="-106" on="0"/>
        <pt x="404" y="-97" on="0"/>
        <pt x="390" y="-89" on="0"/>
        <pt x="381" y="-89" on="1"/>
        <pt x="375" y="-89" on="0"/>
        <pt x="362" y="-91" on="0"/>
        <pt x="357" y="-91" on="1"/>
        <pt x="347" y="-91" on="0"/>
        <pt x="333" y="-82" on="0"/>
        <pt x="321" y="-70" on="0"/>
        <pt x="311" y="-58" on="0"/>
        <pt x="306" y="-55" on="1"/>
        <pt x="297" y="-51" on="0"/>
        <pt x="285" y="-48" on="0"/>
        <pt x="275" y="-47" on="0"/>
        <pt x="266" y="-46" on="0"/>
        <pt x="260" y="-42" on="1"/>
        <pt x="253" y="-38" on="0"/>
        <pt x="246" y="-26" on="0"/>
        <pt x="240" y="-12" on="0"/>
        <pt x="235" y="0" on="0"/>
        <pt x="230" y="4" on="1"/>
        <pt x="220" y="12" on="0"/>
        <pt x="199" y="16" on="0"/>
        <pt x="191" y="28" on="1"/>
        <pt x="183" y="42" on="0"/>
        <pt x="184" y="61" on="0"/>
        <pt x="176" y="75" on="1"/>
        <pt x="173" y="79" on="0"/>
        <pt x="162" y="89" on="0"/>
        <pt x="150" y="100" on="0"/>
        <pt x="142" y="114" on="0"/>
        <pt x="142" y="124" on="1"/>
        <pt x="142" y="131" on="0"/>
        <pt x="145" y="143" on="0"/>
        <pt x="145" y="149" on="1"/>
        <pt x="145" y="156" on="0"/>
        <pt x="137" y="169" on="0"/>
        <pt x="128" y="182" on="0"/>
        <pt x="120" y="196" on="0"/>
        <pt x="120" y="204" on="1"/>
        <pt x="120" y="215" on="0"/>
        <pt x="132" y="237" on="0"/>
        <pt x="132" y="248" on="1"/>
        <pt x="132" y="261" on="0"/>
        <pt x="120" y="279" on="0"/>
        <pt x="120" y="290" on="1"/>
        <pt x="120" y="298" on="0"/>
        <pt x="128" y="314" on="0"/>
        <pt x="137" y="329" on="0"/>
        <pt x="145" y="344" on="0"/>
        <pt x="145" y="351" on="1"/>
        <pt x="145" y="357" on="0"/>
        <pt x="144" y="370" on="0"/>
        <pt x="144" y="376" on="1"/>
        <pt x="144" y="385" on="0"/>
        <pt x="152" y="398" on="0"/>
        <pt x="163" y="408" on="0"/>
        <pt x="175" y="418" on="0"/>
        <pt x="179" y="424" on="1"/>
        <pt x="184" y="432" on="0"/>
        <pt x="185" y="459" on="0"/>
        <pt x="190" y="467" on="1"/>
        <pt x="196" y="477" on="0"/>
        <pt x="222" y="483" on="0"/>
        <pt x="230" y="491" on="1"/>
        <pt x="238" y="499" on="0"/>
        <pt x="247" y="524" on="0"/>
        <pt x="255" y="532" on="1"/>
        <pt x="265" y="540" on="0"/>
        <pt x="294" y="543" on="0"/>
        <pt x="306" y="549" on="1"/>
        <pt x="312" y="552" on="0"/>
        <pt x="322" y="565" on="0"/>
        <pt x="333" y="577" on="0"/>
        <pt x="346" y="587" on="0"/>
        <pt x="355" y="587" on="1"/>
        <pt x="361" y="587" on="0"/>
        <pt x="374" y="585" on="0"/>
        <pt x="381" y="585" on="1"/>
        <pt x="390" y="585" on="0"/>
        <pt x="404" y="592" on="0"/>
        <pt x="416" y="601" on="0"/>
        <pt x="428" y="608" on="0"/>
        <pt x="436" y="608" on="1"/>
        <pt x="446" y="608" on="0"/>
        <pt x="470" y="596" on="0"/>
        <pt x="480" y="596" on="1"/>
        <pt x="491" y="596" on="0"/>
        <pt x="514" y="608" on="0"/>
        <pt x="525" y="608" on="1"/>
        <pt x="535" y="608" on="0"/>
        <pt x="548" y="600" on="0"/>
        <pt x="560" y="591" on="0"/>
        <pt x="573" y="583" on="0"/>
        <pt x="582" y="583" on="1"/>
        <pt x="588" y="583" on="0"/>
        <pt x="602" y="586" on="0"/>
        <pt x="610" y="586" on="1"/>
        <pt x="620" y="586" on="0"/>
        <pt x="632" y="578" on="0"/>
        <pt x="642" y="566" on="0"/>
        <pt x="651" y="554" on="0"/>
        <pt x="658" y="550" on="1"/>
        <pt x="669" y="544" on="0"/>
        <pt x="692" y="543" on="0"/>
        <pt x="703" y="535" on="1"/>
        <pt x="713" y="528" on="0"/>
        <pt x="717" y="505" on="0"/>
        <pt x="726" y="496" on="1"/>
        <pt x="737" y="486" on="0"/>
        <pt x="769" y="474" on="0"/>
        <pt x="777" y="460" on="1"/>
        <pt x="782" y="452" on="0"/>
        <pt x="779" y="426" on="0"/>
        <pt x="784" y="418" on="1"/>
        <pt x="788" y="411" on="0"/>
        <pt x="800" y="402" on="0"/>
        <pt x="812" y="392" on="0"/>
        <pt x="820" y="379" on="0"/>
        <pt x="820" y="369" on="1"/>
        <pt x="820" y="362" on="0"/>
        <pt x="819" y="350" on="0"/>
        <pt x="819" y="344" on="1"/>
        <pt x="819" y="335" on="0"/>
        <pt x="826" y="319" on="0"/>
        <pt x="835" y="305" on="0"/>
        <pt x="843" y="291" on="0"/>
        <pt x="843" y="283" on="1"/>
        <pt x="843" y="272" on="0"/>
        <pt x="832" y="254" on="0"/>
        <pt x="832" y="244" on="1"/>
        <pt x="832" y="233" on="0"/>
        <pt x="843" y="211" on="0"/>
        <pt x="843" y="200" on="1"/>
        <pt x="842" y="192" on="0"/>
        <pt x="834" y="183" on="0"/>
        <pt x="825" y="173" on="0"/>
        <pt x="818" y="161" on="0"/>
        <pt x="818" y="152" on="1"/>
        <pt x="818" y="144" on="0"/>
        <pt x="820" y="128" on="0"/>
        <pt x="820" y="120" on="1"/>
        <pt x="820" y="109" on="0"/>
        <pt x="812" y="97" on="0"/>
        <pt x="801" y="88" on="0"/>
        <pt x="790" y="80" on="0"/>
        <pt x="786" y="74" on="1"/>
        <pt x="780" y="63" on="0"/>
        <pt x="776" y="33" on="0"/>
        <pt x="768" y="23" on="1"/>
        <pt x="761" y="15" on="0"/>
        <pt x="741" y="9" on="0"/>
        <pt x="733" y="1" on="1"/>
        <pt x="724" y="-8" on="0"/>
        <pt x="713" y="-35" on="0"/>
        <pt x="703" y="-42" on="1"/>
        <pt x="693" y="-49" on="0"/>
        <pt x="665" y="-54" on="0"/>
        <pt x="654" y="-60" on="1"/>
        <pt x="648" y="-64" on="0"/>
        <pt x="639" y="-74" on="0"/>
        <pt x="630" y="-83" on="0"/>
        <pt x="619" y="-89" on="0"/>
        <pt x="609" y="-89" on="1"/>
        <pt x="603" y="-89" on="0"/>
        <pt x="592" y="-88" on="0"/>
        <pt x="586" y="-88" on="1"/>
        <pt x="579" y="-88" on="0"/>
      </contour>
      <contour>
        <pt x="550" y="3" on="1"/>
        <pt x="553" y="4" on="0"/>
        <pt x="559" y="4" on="1"/>
        <pt x="563" y="4" on="0"/>
        <pt x="570" y="3" on="0"/>
        <pt x="574" y="3" on="1"/>
        <pt x="589" y="3" on="0"/>
        <pt x="598" y="20" on="0"/>
        <pt x="607" y="24" on="1"/>
        <pt x="615" y="29" on="0"/>
        <pt x="635" y="33" on="0"/>
        <pt x="642" y="38" on="1"/>
        <pt x="650" y="43" on="0"/>
        <pt x="658" y="62" on="0"/>
        <pt x="664" y="68" on="1"/>
        <pt x="669" y="74" on="0"/>
        <pt x="685" y="78" on="0"/>
        <pt x="690" y="84" on="1"/>
        <pt x="695" y="92" on="0"/>
        <pt x="698" y="114" on="0"/>
        <pt x="703" y="122" on="1"/>
        <pt x="706" y="127" on="0"/>
        <pt x="714" y="133" on="0"/>
        <pt x="722" y="139" on="0"/>
        <pt x="727" y="148" on="0"/>
        <pt x="727" y="157" on="1"/>
        <pt x="727" y="162" on="0"/>
        <pt x="726" y="172" on="0"/>
        <pt x="726" y="177" on="1"/>
        <pt x="726" y="184" on="0"/>
        <pt x="731" y="193" on="0"/>
        <pt x="737" y="201" on="0"/>
        <pt x="743" y="208" on="0"/>
        <pt x="744" y="213" on="1"/>
        <pt x="744" y="221" on="0"/>
        <pt x="736" y="237" on="0"/>
        <pt x="736" y="245" on="1"/>
        <pt x="736" y="252" on="0"/>
        <pt x="744" y="266" on="0"/>
        <pt x="744" y="273" on="1"/>
        <pt x="744" y="285" on="0"/>
        <pt x="726" y="304" on="0"/>
        <pt x="726" y="318" on="1"/>
        <pt x="726" y="322" on="0"/>
        <pt x="727" y="330" on="0"/>
        <pt x="727" y="335" on="1"/>
        <pt x="727" y="343" on="0"/>
        <pt x="721" y="352" on="0"/>
        <pt x="713" y="359" on="0"/>
        <pt x="704" y="366" on="0"/>
        <pt x="701" y="371" on="1"/>
        <pt x="698" y="377" on="0"/>
        <pt x="699" y="396" on="0"/>
        <pt x="696" y="402" on="1"/>
        <pt x="690" y="412" on="0"/>
        <pt x="667" y="420" on="0"/>
        <pt x="659" y="428" on="1"/>
        <pt x="652" y="434" on="0"/>
        <pt x="650" y="451" on="0"/>
        <pt x="642" y="456" on="1"/>
        <pt x="634" y="462" on="0"/>
        <pt x="618" y="462" on="0"/>
        <pt x="609" y="467" on="1"/>
        <pt x="604" y="470" on="0"/>
        <pt x="598" y="478" on="0"/>
        <pt x="591" y="487" on="0"/>
        <pt x="582" y="493" on="0"/>
        <pt x="575" y="493" on="1"/>
        <pt x="570" y="493" on="0"/>
        <pt x="560" y="491" on="0"/>
        <pt x="555" y="491" on="1"/>
        <pt x="548" y="491" on="0"/>
        <pt x="539" y="497" on="0"/>
        <pt x="530" y="503" on="0"/>
        <pt x="521" y="509" on="0"/>
        <pt x="514" y="509" on="1"/>
        <pt x="506" y="509" on="0"/>
        <pt x="489" y="500" on="0"/>
        <pt x="481" y="500" on="1"/>
        <pt x="473" y="500" on="0"/>
        <pt x="457" y="509" on="0"/>
        <pt x="449" y="509" on="1"/>
        <pt x="437" y="509" on="0"/>
        <pt x="421" y="492" on="0"/>
        <pt x="407" y="492" on="1"/>
        <pt x="402" y="492" on="0"/>
        <pt x="395" y="493" on="0"/>
        <pt x="390" y="493" on="1"/>
        <pt x="376" y="493" on="0"/>
        <pt x="364" y="471" on="0"/>
        <pt x="354" y="466" on="1"/>
        <pt x="346" y="461" on="0"/>
        <pt x="325" y="460" on="0"/>
        <pt x="318" y="454" on="1"/>
        <pt x="311" y="449" on="0"/>
        <pt x="305" y="430" on="0"/>
        <pt x="299" y="424" on="1"/>
        <pt x="293" y="418" on="0"/>
        <pt x="275" y="414" on="0"/>
        <pt x="270" y="407" on="1"/>
        <pt x="266" y="401" on="0"/>
        <pt x="266" y="382" on="0"/>
        <pt x="262" y="376" on="1"/>
        <pt x="259" y="371" on="0"/>
        <pt x="251" y="364" on="0"/>
        <pt x="242" y="356" on="0"/>
        <pt x="236" y="347" on="0"/>
        <pt x="236" y="340" on="1"/>
        <pt x="236" y="336" on="0"/>
        <pt x="237" y="328" on="0"/>
        <pt x="237" y="324" on="1"/>
        <pt x="237" y="312" on="0"/>
        <pt x="220" y="290" on="0"/>
        <pt x="220" y="278" on="1"/>
        <pt x="220" y="270" on="0"/>
        <pt x="228" y="257" on="0"/>
        <pt x="228" y="248" on="1"/>
        <pt x="228" y="240" on="0"/>
        <pt x="220" y="223" on="0"/>
        <pt x="220" y="215" on="1"/>
        <pt x="220" y="204" on="0"/>
        <pt x="237" y="185" on="0"/>
        <pt x="237" y="174" on="1"/>
        <pt x="237" y="170" on="0"/>
        <pt x="235" y="162" on="0"/>
        <pt x="235" y="158" on="1"/>
        <pt x="235" y="144" on="0"/>
        <pt x="256" y="130" on="0"/>
        <pt x="260" y="123" on="1"/>
        <pt x="266" y="113" on="0"/>
        <pt x="265" y="98" on="0"/>
        <pt x="271" y="88" on="1"/>
        <pt x="276" y="80" on="0"/>
        <pt x="292" y="77" on="0"/>
        <pt x="299" y="71" on="1"/>
        <pt x="307" y="65" on="0"/>
        <pt x="311" y="43" on="0"/>
        <pt x="321" y="37" on="1"/>
        <pt x="325" y="34" on="0"/>
        <pt x="332" y="33" on="0"/>
        <pt x="339" y="33" on="0"/>
        <pt x="348" y="31" on="0"/>
        <pt x="354" y="28" on="1"/>
        <pt x="362" y="24" on="0"/>
        <pt x="377" y="2" on="0"/>
        <pt x="391" y="2" on="1"/>
        <pt x="395" y="2" on="0"/>
        <pt x="402" y="3" on="0"/>
        <pt x="406" y="3" on="1"/>
        <pt x="420" y="3" on="0"/>
        <pt x="435" y="-13" on="0"/>
        <pt x="446" y="-15" on="1"/>
        <pt x="455" y="-15" on="0"/>
        <pt x="473" y="-6" on="0"/>
        <pt x="482" y="-6" on="1"/>
        <pt x="490" y="-6" on="0"/>
        <pt x="507" y="-13" on="0"/>
        <pt x="515" y="-13" on="1"/>
        <pt x="524" y="-13" on="0"/>
        <pt x="540" y="1" on="0"/>
      </contour>
      <contour>
        <pt x="482" y="417" on="1"/>
        <pt x="517" y="417" on="0"/>
        <pt x="579" y="390" on="0"/>
        <pt x="625" y="344" on="0"/>
        <pt x="652" y="282" on="0"/>
        <pt x="652" y="247" on="1"/>
        <pt x="652" y="212" on="0"/>
        <pt x="625" y="150" on="0"/>
        <pt x="579" y="104" on="0"/>
        <pt x="517" y="77" on="0"/>
        <pt x="482" y="77" on="1"/>
        <pt x="447" y="77" on="0"/>
        <pt x="385" y="104" on="0"/>
        <pt x="339" y="150" on="0"/>
        <pt x="312" y="212" on="0"/>
        <pt x="312" y="247" on="1"/>
        <pt x="312" y="282" on="0"/>
        <pt x="339" y="344" on="0"/>
        <pt x="385" y="390" on="0"/>
        <pt x="447" y="417" on="0"/>
      </contour>
      <contour>
        <pt x="577" y="292" on="1"/>
        <pt x="577" y="360" on="1"/>
        <pt x="386" y="360" on="1"/>
        <pt x="386" y="292" on="1"/>
        <pt x="439" y="292" on="1"/>
        <pt x="439" y="117" on="1"/>
        <pt x="524" y="117" on="1"/>
        <pt x="524" y="292" on="1"/>
      </contour>
    </TTGlyph>
    <TTGlyph name="approxequal" xMin="80" yMin="159" xMax="462" yMax="497">
      <contour>
        <pt x="80" y="470" on="1"/>
        <pt x="99" y="455" on="0"/>
        <pt x="143" y="441" on="0"/>
        <pt x="167" y="441" on="1"/>
        <pt x="192" y="441" on="0"/>
        <pt x="241" y="458" on="0"/>
        <pt x="290" y="479" on="0"/>
        <pt x="340" y="497" on="0"/>
        <pt x="367" y="497" on="1"/>
        <pt x="418" y="497" on="0"/>
        <pt x="462" y="470" on="1"/>
        <pt x="462" y="390" on="1"/>
        <pt x="421" y="417" on="0"/>
        <pt x="371" y="417" on="1"/>
        <pt x="344" y="417" on="0"/>
        <pt x="295" y="399" on="0"/>
        <pt x="247" y="377" on="0"/>
        <pt x="197" y="359" on="0"/>
        <pt x="169" y="359" on="1"/>
        <pt x="145" y="359" on="0"/>
        <pt x="99" y="374" on="0"/>
        <pt x="80" y="390" on="1"/>
      </contour>
      <contour>
        <pt x="80" y="270" on="1"/>
        <pt x="98" y="254" on="0"/>
        <pt x="143" y="239" on="0"/>
        <pt x="167" y="239" on="1"/>
        <pt x="193" y="239" on="0"/>
        <pt x="242" y="258" on="0"/>
        <pt x="290" y="280" on="0"/>
        <pt x="340" y="299" on="0"/>
        <pt x="367" y="299" on="1"/>
        <pt x="393" y="299" on="0"/>
        <pt x="441" y="285" on="0"/>
        <pt x="462" y="270" on="1"/>
        <pt x="462" y="190" on="1"/>
        <pt x="422" y="219" on="0"/>
        <pt x="370" y="219" on="1"/>
        <pt x="342" y="219" on="0"/>
        <pt x="294" y="200" on="0"/>
        <pt x="247" y="178" on="0"/>
        <pt x="197" y="159" on="0"/>
        <pt x="169" y="159" on="1"/>
        <pt x="145" y="159" on="0"/>
        <pt x="99" y="173" on="0"/>
        <pt x="80" y="190" on="1"/>
      </contour>
    </TTGlyph>
    <TTGlyph name="aring" xMin="55" yMin="-15" xMax="542" yMax="810">
      <component glyphName=".ttfautohint" x="55" y="0" flags="0x0"/>
      <component glyphName="a" x="0" y="0" flags="0x204"/>
      <component glyphName="ring" x="135" y="0" flags="0x4"/>
    </TTGlyph>
    <TTGlyph name="asciicircum" xMin="84" yMin="428" xMax="458" yMax="660">
      <contour>
        <pt x="317" y="660" on="1"/>
        <pt x="458" y="428" on="1"/>
        <pt x="371" y="428" on="1"/>
        <pt x="271" y="595" on="1"/>
        <pt x="171" y="428" on="1"/>
        <pt x="84" y="428" on="1"/>
        <pt x="225" y="660" on="1"/>
      </contour>
    </TTGlyph>
    <TTGlyph name="asciitilde" xMin="80" yMin="259" xMax="462" yMax="401">
      <contour>
        <pt x="462" y="290" on="1"/>
        <pt x="421" y="317" on="0"/>
        <pt x="371" y="317" on="1"/>
        <pt x="344" y="317" on="0"/>
        <pt x="295" y="299" on="0"/>
        <pt x="247" y="277" on="0"/>
        <pt x="197" y="259" on="0"/>
        <pt x="169" y="259" on="1"/>
        <pt x="145" y="259" on="0"/>
        <pt x="99" y="274" on="0"/>
        <pt x="80" y="290" on="1"/>
        <pt x="80" y="370" on="1"/>
        <pt x="120" y="343" on="0"/>
        <pt x="171" y="343" on="1"/>
        <pt x="198" y="343" on="0"/>
        <pt x="247" y="361" on="0"/>
        <pt x="295" y="383" on="0"/>
        <pt x="345" y="401" on="0"/>
        <pt x="373" y="401" on="1"/>
        <pt x="397" y="401" on="0"/>
        <pt x="443" y="386" on="0"/>
        <pt x="462" y="370" on="1"/>
      </contour>
    </TTGlyph>
    <TTGlyph name="asterisk" xMin="50" yMin="355" xMax="467" yMax="750">
      <contour>
        <pt x="290" y="599" on="1"/>
        <pt x="227" y="599" on="1"/>
        <pt x="214" y="750" on="1"/>
        <pt x="304" y="750" on="1"/>
      </contour>
      <contour>
        <pt x="219" y="593" on="1"/>
        <pt x="201" y="533" on="1"/>
        <pt x="50" y="568" on="1"/>
        <pt x="79" y="654" on="1"/>
      </contour>
      <contour>
        <pt x="204" y="522" on="1"/>
        <pt x="254" y="487" on="1"/>
        <pt x="175" y="355" on="1"/>
        <pt x="102" y="408" on="1"/>
      </contour>
      <contour>
        <pt x="263" y="487" on="1"/>
        <pt x="315" y="523" on="1"/>
        <pt x="415" y="408" on="1"/>
        <pt x="343" y="355" on="1"/>
      </contour>
      <contour>
        <pt x="317" y="533" on="1"/>
        <pt x="298" y="593" on="1"/>
        <pt x="439" y="654" on="1"/>
        <pt x="467" y="568" on="1"/>
      </contour>
    </TTGlyph>
    <TTGlyph name="at" xMin="80" yMin="-186" xMax="997" yMax="731">
      <contour>
        <pt x="766" y="-15" on="1"/>
        <pt x="794" y="-15" on="0"/>
        <pt x="846" y="36" on="0"/>
        <pt x="886" y="117" on="0"/>
        <pt x="910" y="220" on="0"/>
        <pt x="910" y="273" on="1"/>
        <pt x="910" y="365" on="0"/>
        <pt x="852" y="507" on="0"/>
        <pt x="751" y="604" on="0"/>
        <pt x="616" y="654" on="0"/>
        <pt x="539" y="654" on="1"/>
        <pt x="462" y="654" on="0"/>
        <pt x="327" y="604" on="0"/>
        <pt x="226" y="507" on="0"/>
        <pt x="167" y="365" on="0"/>
        <pt x="167" y="273" on="1"/>
        <pt x="167" y="181" on="0"/>
        <pt x="226" y="38" on="0"/>
        <pt x="327" y="-59" on="0"/>
        <pt x="462" y="-109" on="0"/>
        <pt x="539" y="-109" on="1"/>
        <pt x="569" y="-109" on="0"/>
        <pt x="596" y="-106" on="1"/>
        <pt x="602" y="-183" on="1"/>
        <pt x="570" y="-186" on="0"/>
        <pt x="539" y="-186" on="1"/>
        <pt x="444" y="-186" on="0"/>
        <pt x="277" y="-128" on="0"/>
        <pt x="152" y="-12" on="0"/>
        <pt x="80" y="159" on="0"/>
        <pt x="80" y="273" on="1"/>
        <pt x="80" y="387" on="0"/>
        <pt x="152" y="558" on="0"/>
        <pt x="277" y="673" on="0"/>
        <pt x="444" y="731" on="0"/>
        <pt x="539" y="731" on="1"/>
        <pt x="634" y="731" on="0"/>
        <pt x="801" y="673" on="0"/>
        <pt x="925" y="558" on="0"/>
        <pt x="997" y="387" on="0"/>
        <pt x="997" y="273" on="1"/>
        <pt x="997" y="197" on="0"/>
        <pt x="958" y="66" on="0"/>
        <pt x="892" y="-30" on="0"/>
        <pt x="804" y="-85" on="0"/>
        <pt x="756" y="-85" on="1"/>
        <pt x="684" y="-85" on="0"/>
        <pt x="612" y="27" on="0"/>
        <pt x="612" y="125" on="1"/>
        <pt x="584" y="75" on="0"/>
        <pt x="514" y="27" on="0"/>
        <pt x="467" y="27" on="1"/>
        <pt x="399" y="27" on="0"/>
        <pt x="323" y="117" on="0"/>
        <pt x="323" y="208" on="1"/>
        <pt x="323" y="281" on="0"/>
        <pt x="359" y="393" on="0"/>
        <pt x="420" y="467" on="0"/>
        <pt x="501" y="505" on="0"/>
        <pt x="546" y="505" on="1"/>
        <pt x="581" y="505" on="0"/>
        <pt x="641" y="481" on="0"/>
        <pt x="664" y="461" on="1"/>
        <pt x="677" y="482" on="0"/>
        <pt x="693" y="505" on="1"/>
        <pt x="742" y="495" on="1"/>
        <pt x="734" y="463" on="0"/>
        <pt x="714" y="377" on="0"/>
        <pt x="698" y="282" on="0"/>
        <pt x="687" y="184" on="0"/>
        <pt x="687" y="141" on="1"/>
        <pt x="687" y="108" on="0"/>
        <pt x="695" y="51" on="0"/>
        <pt x="713" y="9" on="0"/>
        <pt x="743" y="-15" on="0"/>
      </contour>
      <contour>
        <pt x="488" y="98" on="1"/>
        <pt x="506" y="98" on="0"/>
        <pt x="551" y="125" on="0"/>
        <pt x="593" y="194" on="0"/>
        <pt x="627" y="312" on="0"/>
        <pt x="635" y="403" on="1"/>
        <pt x="619" y="417" on="0"/>
        <pt x="573" y="437" on="0"/>
        <pt x="544" y="437" on="1"/>
        <pt x="520" y="437" on="0"/>
        <pt x="474" y="409" on="0"/>
        <pt x="438" y="354" on="0"/>
        <pt x="417" y="272" on="0"/>
        <pt x="417" y="217" on="1"/>
        <pt x="417" y="98" on="0"/>
      </contour>
    </TTGlyph>
    <TTGlyph name="atilde" xMin="55" yMin="-15" xMax="542" yMax="754">
      <component glyphName=".ttfautohint" x="55" y="0" flags="0x0"/>
      <component glyphName="a" x="0" y="0" flags="0x204"/>
      <component glyphName="tilde" x="6" y="0" flags="0x4"/>
    </TTGlyph>
    <TTGlyph name="b" xMin="100" yMin="-15" xMax="555" yMax="750">
      <contour>
        <pt x="352" y="545" on="1"/>
        <pt x="398" y="545" on="0"/>
        <pt x="473" y="510" on="0"/>
        <pt x="526" y="439" on="0"/>
        <pt x="555" y="334" on="0"/>
        <pt x="555" y="265" on="1"/>
        <pt x="555" y="196" on="0"/>
        <pt x="519" y="91" on="0"/>
        <pt x="457" y="20" on="0"/>
        <pt x="373" y="-15" on="0"/>
        <pt x="325" y="-15" on="1"/>
        <pt x="279" y="-15" on="0"/>
        <pt x="201" y="19" on="0"/>
        <pt x="171" y="45" on="1"/>
        <pt x="146" y="0" on="1"/>
        <pt x="100" y="0" on="1"/>
        <pt x="100" y="750" on="1"/>
        <pt x="196" y="750" on="1"/>
        <pt x="196" y="478" on="1"/>
        <pt x="224" y="505" on="0"/>
        <pt x="301" y="545" on="0"/>
      </contour>
      <contour>
        <pt x="331" y="467" on="1"/>
        <pt x="291" y="467" on="0"/>
        <pt x="224" y="435" on="0"/>
        <pt x="196" y="408" on="1"/>
        <pt x="196" y="105" on="1"/>
        <pt x="219" y="87" on="0"/>
        <pt x="283" y="63" on="0"/>
        <pt x="321" y="63" on="1"/>
        <pt x="380" y="63" on="0"/>
        <pt x="455" y="162" on="0"/>
        <pt x="455" y="265" on="1"/>
        <pt x="455" y="368" on="0"/>
        <pt x="386" y="467" on="0"/>
      </contour>
    </TTGlyph>
    <TTGlyph name="backslash" xMin="0" yMin="-15" xMax="382" yMax="715">
      <contour>
        <pt x="0" y="715" on="1"/>
        <pt x="76" y="715" on="1"/>
        <pt x="382" y="-15" on="1"/>
        <pt x="307" y="-15" on="1"/>
      </contour>
    </TTGlyph>
    <TTGlyph name="bar" xMin="200" yMin="-100" xMax="276" yMax="800">
      <contour>
        <pt x="276" y="-100" on="1"/>
        <pt x="200" y="-100" on="1"/>
        <pt x="200" y="800" on="1"/>
        <pt x="276" y="800" on="1"/>
      </contour>
    </TTGlyph>
    <TTGlyph name="barra" xMin="65" yMin="266" xMax="405" yMax="336">
      <contour>
        <pt x="65" y="336" on="1"/>
        <pt x="405" y="336" on="1"/>
        <pt x="405" y="266" on="1"/>
        <pt x="65" y="266" on="1"/>
      </contour>
    </TTGlyph>
    <TTGlyph name="braceleft" xMin="46" yMin="-106" xMax="330" yMax="764">
      <contour>
        <pt x="151" y="324" on="1"/>
        <pt x="171" y="324" on="0"/>
        <pt x="197" y="311" on="0"/>
        <pt x="211" y="290" on="0"/>
        <pt x="216" y="263" on="0"/>
        <pt x="216" y="249" on="1"/>
        <pt x="216" y="215" on="0"/>
        <pt x="211" y="145" on="0"/>
        <pt x="204" y="82" on="0"/>
        <pt x="199" y="31" on="0"/>
        <pt x="199" y="15" on="1"/>
        <pt x="199" y="-11" on="0"/>
        <pt x="224" y="-32" on="0"/>
        <pt x="253" y="-32" on="1"/>
        <pt x="267" y="-32" on="0"/>
        <pt x="297" y="-28" on="0"/>
        <pt x="320" y="-24" on="1"/>
        <pt x="330" y="-92" on="1"/>
        <pt x="315" y="-96" on="0"/>
        <pt x="291" y="-102" on="0"/>
        <pt x="267" y="-105" on="0"/>
        <pt x="241" y="-106" on="0"/>
        <pt x="224" y="-106" on="1"/>
        <pt x="198" y="-106" on="0"/>
        <pt x="154" y="-96" on="0"/>
        <pt x="122" y="-72" on="0"/>
        <pt x="104" y="-32" on="0"/>
        <pt x="104" y="-2" on="1"/>
        <pt x="104" y="10" on="0"/>
        <pt x="109" y="66" on="0"/>
        <pt x="115" y="138" on="0"/>
        <pt x="120" y="216" on="0"/>
        <pt x="120" y="249" on="1"/>
        <pt x="120" y="275" on="0"/>
        <pt x="85" y="299" on="0"/>
        <pt x="46" y="299" on="1"/>
        <pt x="46" y="359" on="1"/>
        <pt x="85" y="359" on="0"/>
        <pt x="120" y="383" on="0"/>
        <pt x="120" y="409" on="1"/>
        <pt x="120" y="442" on="0"/>
        <pt x="115" y="520" on="0"/>
        <pt x="109" y="592" on="0"/>
        <pt x="104" y="648" on="0"/>
        <pt x="104" y="660" on="1"/>
        <pt x="104" y="690" on="0"/>
        <pt x="122" y="730" on="0"/>
        <pt x="154" y="754" on="0"/>
        <pt x="198" y="764" on="0"/>
        <pt x="224" y="764" on="1"/>
        <pt x="241" y="764" on="0"/>
        <pt x="267" y="763" on="0"/>
        <pt x="291" y="760" on="0"/>
        <pt x="315" y="754" on="0"/>
        <pt x="330" y="750" on="1"/>
        <pt x="320" y="682" on="1"/>
        <pt x="297" y="686" on="0"/>
        <pt x="267" y="690" on="0"/>
        <pt x="253" y="690" on="1"/>
        <pt x="224" y="690" on="0"/>
        <pt x="199" y="669" on="0"/>
        <pt x="199" y="643" on="1"/>
        <pt x="199" y="627" on="0"/>
        <pt x="204" y="576" on="0"/>
        <pt x="211" y="513" on="0"/>
        <pt x="216" y="443" on="0"/>
        <pt x="216" y="409" on="1"/>
        <pt x="216" y="395" on="0"/>
        <pt x="211" y="368" on="0"/>
        <pt x="197" y="347" on="0"/>
        <pt x="171" y="334" on="0"/>
        <pt x="151" y="334" on="1"/>
      </contour>
    </TTGlyph>
    <TTGlyph name="braceright" xMin="30" yMin="-106" xMax="314" yMax="764">
      <component glyphName=".ttfautohint" x="30" y="0" flags="0x0"/>
      <component glyphName="braceleft" x="360" y="0" scalex="-0.999938964844" scaley="1.0" flags="0x4"/>
    </TTGlyph>
    <TTGlyph name="bracketleft" xMin="100" yMin="-100" xMax="340" yMax="760">
      <contour>
        <pt x="100" y="-100" on="1"/>
        <pt x="100" y="760" on="1"/>
        <pt x="340" y="760" on="1"/>
        <pt x="340" y="682" on="1"/>
        <pt x="196" y="682" on="1"/>
        <pt x="196" y="-22" on="1"/>
        <pt x="340" y="-22" on="1"/>
        <pt x="340" y="-100" on="1"/>
      </contour>
    </TTGlyph>
    <TTGlyph name="bracketright" xMin="20" yMin="-100" xMax="260" yMax="760">
      <component glyphName=".ttfautohint" x="20" y="0" flags="0x0"/>
      <component glyphName="bracketleft" x="360" y="0" scalex="-0.999938964844" scaley="1.0" flags="0x4"/>
    </TTGlyph>
    <TTGlyph name="breve" xMin="59" yMin="609" xMax="377" yMax="780">
      <contour>
        <pt x="377" y="753" on="1"/>
        <pt x="364" y="725" on="0"/>
        <pt x="332" y="673" on="0"/>
        <pt x="292" y="633" on="0"/>
        <pt x="245" y="609" on="0"/>
        <pt x="217" y="609" on="1"/>
        <pt x="190" y="609" on="0"/>
        <pt x="143" y="633" on="0"/>
        <pt x="104" y="673" on="0"/>
        <pt x="72" y="725" on="0"/>
        <pt x="59" y="753" on="1"/>
        <pt x="116" y="780" on="1"/>
        <pt x="126" y="766" on="0"/>
        <pt x="146" y="736" on="0"/>
        <pt x="171" y="710" on="0"/>
        <pt x="201" y="693" on="0"/>
        <pt x="221" y="693" on="1"/>
        <pt x="240" y="693" on="0"/>
        <pt x="270" y="711" on="0"/>
        <pt x="294" y="738" on="0"/>
        <pt x="312" y="768" on="0"/>
        <pt x="320" y="780" on="1"/>
      </contour>
    </TTGlyph>
    <TTGlyph name="breve.case" xMin="59" yMin="759" xMax="377" yMax="930">
      <component glyphName=".ttfautohint" x="59" y="759" flags="0x0"/>
      <component glyphName="breve" x="0" y="150" flags="0x204"/>
    </TTGlyph>
    <TTGlyph name="brokenbar" xMin="150" yMin="-100" xMax="226" yMax="800">
      <contour>
        <pt x="226" y="470" on="1"/>
        <pt x="150" y="470" on="1"/>
        <pt x="150" y="800" on="1"/>
        <pt x="226" y="800" on="1"/>
      </contour>
      <contour>
        <pt x="226" y="-100" on="1"/>
        <pt x="150" y="-100" on="1"/>
        <pt x="150" y="230" on="1"/>
        <pt x="226" y="230" on="1"/>
      </contour>
    </TTGlyph>
    <TTGlyph name="bullet" xMin="100" yMin="206" xMax="287" yMax="396">
      <contour>
        <pt x="100" y="301" on="1"/>
        <pt x="100" y="351" on="0"/>
        <pt x="153" y="396" on="0"/>
        <pt x="193" y="396" on="1"/>
        <pt x="234" y="396" on="0"/>
        <pt x="287" y="351" on="0"/>
        <pt x="287" y="301" on="1"/>
        <pt x="287" y="251" on="0"/>
        <pt x="234" y="206" on="0"/>
        <pt x="193" y="206" on="1"/>
        <pt x="153" y="206" on="0"/>
        <pt x="100" y="251" on="0"/>
      </contour>
    </TTGlyph>
    <TTGlyph name="c" xMin="70" yMin="-15" xMax="498" yMax="545">
      <contour>
        <pt x="414" y="384" on="1"/>
        <pt x="391" y="467" on="0"/>
        <pt x="312" y="467" on="1"/>
        <pt x="250" y="467" on="0"/>
        <pt x="170" y="368" on="0"/>
        <pt x="170" y="265" on="1"/>
        <pt x="170" y="162" on="0"/>
        <pt x="252" y="63" on="0"/>
        <pt x="315" y="63" on="1"/>
        <pt x="360" y="63" on="0"/>
        <pt x="432" y="102" on="0"/>
        <pt x="455" y="124" on="1"/>
        <pt x="498" y="72" on="1"/>
        <pt x="467" y="37" on="0"/>
        <pt x="369" y="-15" on="0"/>
        <pt x="311" y="-15" on="1"/>
        <pt x="258" y="-15" on="0"/>
        <pt x="170" y="20" on="0"/>
        <pt x="106" y="91" on="0"/>
        <pt x="70" y="196" on="0"/>
        <pt x="70" y="265" on="1"/>
        <pt x="70" y="334" on="0"/>
        <pt x="107" y="439" on="0"/>
        <pt x="171" y="510" on="0"/>
        <pt x="259" y="545" on="0"/>
        <pt x="310" y="545" on="1"/>
        <pt x="378" y="545" on="0"/>
        <pt x="475" y="484" on="0"/>
        <pt x="497" y="412" on="1"/>
      </contour>
    </TTGlyph>
    <TTGlyph name="caron" xMin="54" yMin="604" xMax="382" yMax="787">
      <contour>
        <pt x="54" y="736" on="1"/>
        <pt x="91" y="787" on="1"/>
        <pt x="218" y="698" on="1"/>
        <pt x="345" y="787" on="1"/>
        <pt x="382" y="736" on="1"/>
        <pt x="231" y="604" on="1"/>
        <pt x="205" y="604" on="1"/>
      </contour>
    </TTGlyph>
    <TTGlyph name="caron.case" xMin="54" yMin="754" xMax="382" yMax="937">
      <component glyphName=".ttfautohint" x="54" y="754" flags="0x0"/>
      <component glyphName="caron" x="0" y="150" flags="0x204"/>
    </TTGlyph>
    <TTGlyph name="ccedilla" xMin="70" yMin="-210" xMax="498" yMax="545">
      <component glyphName=".ttfautohint" x="70" y="0" flags="0x0"/>
      <component glyphName="c" x="0" y="0" flags="0x204"/>
      <component glyphName="cedilla" x="1" y="0" flags="0x4"/>
    </TTGlyph>
    <TTGlyph name="cedilla" xMin="145" yMin="-210" xMax="381" yMax="27">
      <contour>
        <pt x="173" y="-116" on="1"/>
        <pt x="188" y="-127" on="0"/>
        <pt x="225" y="-139" on="0"/>
        <pt x="243" y="-139" on="1"/>
        <pt x="266" y="-139" on="0"/>
        <pt x="299" y="-114" on="0"/>
        <pt x="299" y="-85" on="1"/>
        <pt x="299" y="-65" on="0"/>
        <pt x="272" y="-21" on="0"/>
        <pt x="243" y="-6" on="1"/>
        <pt x="259" y="27" on="1"/>
        <pt x="321" y="7" on="0"/>
        <pt x="381" y="-61" on="0"/>
        <pt x="381" y="-101" on="1"/>
        <pt x="381" y="-122" on="0"/>
        <pt x="365" y="-162" on="0"/>
        <pt x="334" y="-192" on="0"/>
        <pt x="289" y="-210" on="0"/>
        <pt x="260" y="-210" on="1"/>
        <pt x="224" y="-210" on="0"/>
        <pt x="165" y="-183" on="0"/>
        <pt x="145" y="-169" on="1"/>
      </contour>
    </TTGlyph>
    <TTGlyph name="cent" xMin="70" yMin="-121" xMax="498" yMax="779">
      <contour>
        <pt x="414" y="449" on="1"/>
        <pt x="391" y="532" on="0"/>
        <pt x="312" y="532" on="1"/>
        <pt x="250" y="532" on="0"/>
        <pt x="170" y="433" on="0"/>
        <pt x="170" y="330" on="1"/>
        <pt x="170" y="227" on="0"/>
        <pt x="252" y="128" on="0"/>
        <pt x="315" y="128" on="1"/>
        <pt x="360" y="128" on="0"/>
        <pt x="432" y="167" on="0"/>
        <pt x="455" y="189" on="1"/>
        <pt x="498" y="137" on="1"/>
        <pt x="467" y="102" on="0"/>
        <pt x="369" y="50" on="0"/>
        <pt x="311" y="50" on="1"/>
        <pt x="258" y="50" on="0"/>
        <pt x="170" y="85" on="0"/>
        <pt x="106" y="156" on="0"/>
        <pt x="70" y="261" on="0"/>
        <pt x="70" y="330" on="1"/>
        <pt x="70" y="399" on="0"/>
        <pt x="107" y="504" on="0"/>
        <pt x="171" y="575" on="0"/>
        <pt x="259" y="610" on="0"/>
        <pt x="310" y="610" on="1"/>
        <pt x="378" y="610" on="0"/>
        <pt x="475" y="549" on="0"/>
        <pt x="497" y="477" on="1"/>
      </contour>
      <contour>
        <pt x="344" y="-121" on="1"/>
        <pt x="268" y="-121" on="1"/>
        <pt x="268" y="779" on="1"/>
        <pt x="344" y="779" on="1"/>
      </contour>
    </TTGlyph>
    <TTGlyph name="circumflex" xMin="54" yMin="607" xMax="382" yMax="790">
      <contour>
        <pt x="382" y="658" on="1"/>
        <pt x="345" y="607" on="1"/>
        <pt x="218" y="696" on="1"/>
        <pt x="91" y="607" on="1"/>
        <pt x="54" y="658" on="1"/>
        <pt x="205" y="790" on="1"/>
        <pt x="231" y="790" on="1"/>
      </contour>
    </TTGlyph>
    <TTGlyph name="circumflex.case" xMin="54" yMin="757" xMax="382" yMax="940">
      <component glyphName=".ttfautohint" x="54" y="757" flags="0x0"/>
      <component glyphName="circumflex" x="0" y="150" flags="0x204"/>
    </TTGlyph>
    <TTGlyph name="colon" xMin="50" yMin="-15" xMax="183" yMax="500">
      <component glyphName=".ttfautohint" x="50" y="0" flags="0x0"/>
      <component glyphName="period" x="0" y="0" flags="0x204"/>
      <component glyphName="period" x="0" y="379" flags="0x4"/>
    </TTGlyph>
    <TTGlyph name="comma" xMin="47" yMin="-168" xMax="183" yMax="121">
      <contour>
        <pt x="82" y="-43" on="1"/>
        <pt x="82" y="-27" on="0"/>
        <pt x="72" y="-5" on="0"/>
        <pt x="60" y="14" on="0"/>
        <pt x="50" y="36" on="0"/>
        <pt x="50" y="53" on="1"/>
        <pt x="50" y="88" on="0"/>
        <pt x="87" y="121" on="0"/>
        <pt x="116" y="121" on="1"/>
        <pt x="145" y="121" on="0"/>
        <pt x="183" y="88" on="0"/>
        <pt x="183" y="53" on="1"/>
        <pt x="183" y="27" on="0"/>
        <pt x="167" y="-34" on="0"/>
        <pt x="142" y="-94" on="0"/>
        <pt x="109" y="-148" on="0"/>
        <pt x="92" y="-168" on="1"/>
        <pt x="47" y="-138" on="1"/>
        <pt x="61" y="-118" on="0"/>
        <pt x="82" y="-67" on="0"/>
      </contour>
    </TTGlyph>
    <TTGlyph name="copyright" xMin="60" yMin="156" xMax="720" yMax="816">
      <contour>
        <pt x="464" y="581" on="1"/>
        <pt x="454" y="613" on="0"/>
        <pt x="416" y="644" on="0"/>
        <pt x="392" y="644" on="1"/>
        <pt x="347" y="644" on="0"/>
        <pt x="289" y="568" on="0"/>
        <pt x="289" y="486" on="1"/>
        <pt x="289" y="405" on="0"/>
        <pt x="348" y="327" on="0"/>
        <pt x="394" y="327" on="1"/>
        <pt x="424" y="327" on="0"/>
        <pt x="477" y="354" on="0"/>
        <pt x="494" y="371" on="1"/>
        <pt x="532" y="325" on="1"/>
        <pt x="506" y="299" on="0"/>
        <pt x="434" y="263" on="0"/>
        <pt x="392" y="263" on="1"/>
        <pt x="353" y="263" on="0"/>
        <pt x="287" y="291" on="0"/>
        <pt x="240" y="347" on="0"/>
        <pt x="213" y="431" on="0"/>
        <pt x="213" y="486" on="1"/>
        <pt x="213" y="541" on="0"/>
        <pt x="240" y="624" on="0"/>
        <pt x="288" y="680" on="0"/>
        <pt x="352" y="708" on="0"/>
        <pt x="390" y="708" on="1"/>
        <pt x="441" y="708" on="0"/>
        <pt x="513" y="662" on="0"/>
        <pt x="530" y="605" on="1"/>
      </contour>
      <contour>
        <pt x="60" y="486" on="1"/>
        <pt x="60" y="568" on="0"/>
        <pt x="112" y="691" on="0"/>
        <pt x="202" y="774" on="0"/>
        <pt x="322" y="816" on="0"/>
        <pt x="390" y="816" on="1"/>
        <pt x="458" y="816" on="0"/>
        <pt x="578" y="774" on="0"/>
        <pt x="668" y="691" on="0"/>
        <pt x="720" y="568" on="0"/>
        <pt x="720" y="486" on="1"/>
        <pt x="720" y="404" on="0"/>
        <pt x="668" y="281" on="0"/>
        <pt x="578" y="198" on="0"/>
        <pt x="458" y="156" on="0"/>
        <pt x="390" y="156" on="1"/>
        <pt x="322" y="156" on="0"/>
        <pt x="202" y="198" on="0"/>
        <pt x="112" y="281" on="0"/>
        <pt x="60" y="404" on="0"/>
      </contour>
      <contour>
        <pt x="115" y="486" on="1"/>
        <pt x="115" y="418" on="0"/>
        <pt x="158" y="315" on="0"/>
        <pt x="233" y="246" on="0"/>
        <pt x="333" y="211" on="0"/>
        <pt x="390" y="211" on="1"/>
        <pt x="447" y="211" on="0"/>
        <pt x="547" y="246" on="0"/>
        <pt x="622" y="315" on="0"/>
        <pt x="665" y="418" on="0"/>
        <pt x="665" y="486" on="1"/>
        <pt x="665" y="554" on="0"/>
        <pt x="622" y="657" on="0"/>
        <pt x="547" y="726" on="0"/>
        <pt x="447" y="761" on="0"/>
        <pt x="390" y="761" on="1"/>
        <pt x="333" y="761" on="0"/>
        <pt x="233" y="726" on="0"/>
        <pt x="158" y="657" on="0"/>
        <pt x="115" y="554" on="0"/>
      </contour>
    </TTGlyph>
    <TTGlyph name="currency" xMin="30" yMin="72" xMax="548" yMax="590">
      <contour>
        <pt x="30" y="122" on="1"/>
        <pt x="129" y="220" on="1"/>
        <pt x="100" y="264" on="0"/>
        <pt x="100" y="331" on="1"/>
        <pt x="100" y="398" on="0"/>
        <pt x="129" y="442" on="1"/>
        <pt x="30" y="540" on="1"/>
        <pt x="80" y="590" on="1"/>
        <pt x="178" y="491" on="1"/>
        <pt x="225" y="520" on="0"/>
        <pt x="289" y="520" on="1"/>
        <pt x="352" y="520" on="0"/>
        <pt x="399" y="490" on="1"/>
        <pt x="498" y="590" on="1"/>
        <pt x="548" y="540" on="1"/>
        <pt x="448" y="441" on="1"/>
        <pt x="462" y="419" on="0"/>
        <pt x="478" y="365" on="0"/>
        <pt x="478" y="331" on="1"/>
        <pt x="478" y="297" on="0"/>
        <pt x="462" y="242" on="0"/>
        <pt x="448" y="220" on="1"/>
        <pt x="548" y="122" on="1"/>
        <pt x="498" y="72" on="1"/>
        <pt x="399" y="171" on="1"/>
        <pt x="352" y="142" on="0"/>
        <pt x="289" y="142" on="1"/>
        <pt x="225" y="142" on="0"/>
        <pt x="178" y="171" on="1"/>
        <pt x="80" y="72" on="1"/>
      </contour>
      <contour>
        <pt x="187" y="331" on="1"/>
        <pt x="187" y="271" on="0"/>
        <pt x="243" y="213" on="0"/>
        <pt x="289" y="213" on="1"/>
        <pt x="333" y="213" on="0"/>
        <pt x="389" y="271" on="0"/>
        <pt x="389" y="331" on="1"/>
        <pt x="389" y="391" on="0"/>
        <pt x="333" y="448" on="0"/>
        <pt x="289" y="448" on="1"/>
        <pt x="243" y="448" on="0"/>
        <pt x="187" y="391" on="0"/>
      </contour>
    </TTGlyph>
    <TTGlyph name="d" xMin="70" yMin="-15" xMax="601" yMax="750">
      <contour>
        <pt x="273" y="-15" on="1"/>
        <pt x="181" y="-15" on="0"/>
        <pt x="70" y="126" on="0"/>
        <pt x="70" y="265" on="1"/>
        <pt x="70" y="334" on="0"/>
        <pt x="106" y="439" on="0"/>
        <pt x="168" y="510" on="0"/>
        <pt x="252" y="545" on="0"/>
        <pt x="300" y="545" on="1"/>
        <pt x="337" y="545" on="0"/>
        <pt x="402" y="522" on="0"/>
        <pt x="429" y="504" on="1"/>
        <pt x="429" y="750" on="1"/>
        <pt x="525" y="750" on="1"/>
        <pt x="525" y="85" on="1"/>
        <pt x="525" y="69" on="0"/>
        <pt x="540" y="58" on="0"/>
        <pt x="551" y="58" on="1"/>
        <pt x="559" y="58" on="0"/>
        <pt x="577" y="63" on="0"/>
        <pt x="585" y="67" on="1"/>
        <pt x="601" y="5" on="1"/>
        <pt x="585" y="-3" on="0"/>
        <pt x="547" y="-15" on="0"/>
        <pt x="524" y="-15" on="1"/>
        <pt x="490" y="-15" on="0"/>
        <pt x="442" y="16" on="0"/>
        <pt x="436" y="59" on="1"/>
        <pt x="407" y="29" on="0"/>
        <pt x="327" y="-15" on="0"/>
      </contour>
      <contour>
        <pt x="294" y="63" on="1"/>
        <pt x="333" y="63" on="0"/>
        <pt x="400" y="95" on="0"/>
        <pt x="429" y="121" on="1"/>
        <pt x="429" y="425" on="1"/>
        <pt x="406" y="442" on="0"/>
        <pt x="341" y="467" on="0"/>
        <pt x="304" y="467" on="1"/>
        <pt x="245" y="467" on="0"/>
        <pt x="170" y="368" on="0"/>
        <pt x="170" y="265" on="1"/>
        <pt x="170" y="162" on="0"/>
        <pt x="239" y="63" on="0"/>
      </contour>
    </TTGlyph>
    <TTGlyph name="dagger" xMin="38" yMin="0" xMax="438" yMax="750">
      <contour>
        <pt x="190" y="606" on="1"/>
        <pt x="190" y="750" on="1"/>
        <pt x="286" y="750" on="1"/>
        <pt x="286" y="606" on="1"/>
        <pt x="438" y="606" on="1"/>
        <pt x="438" y="530" on="1"/>
        <pt x="286" y="530" on="1"/>
        <pt x="286" y="0" on="1"/>
        <pt x="190" y="0" on="1"/>
        <pt x="190" y="530" on="1"/>
        <pt x="38" y="530" on="1"/>
        <pt x="38" y="606" on="1"/>
      </contour>
    </TTGlyph>
    <TTGlyph name="daggerdbl" xMin="38" yMin="0" xMax="438" yMax="750">
      <contour>
        <pt x="190" y="606" on="1"/>
        <pt x="190" y="750" on="1"/>
        <pt x="286" y="750" on="1"/>
        <pt x="286" y="606" on="1"/>
        <pt x="438" y="606" on="1"/>
        <pt x="438" y="530" on="1"/>
        <pt x="286" y="530" on="1"/>
        <pt x="286" y="220" on="1"/>
        <pt x="438" y="220" on="1"/>
        <pt x="438" y="144" on="1"/>
        <pt x="286" y="144" on="1"/>
        <pt x="286" y="0" on="1"/>
        <pt x="190" y="0" on="1"/>
        <pt x="190" y="144" on="1"/>
        <pt x="38" y="144" on="1"/>
        <pt x="38" y="220" on="1"/>
        <pt x="190" y="220" on="1"/>
        <pt x="190" y="530" on="1"/>
        <pt x="38" y="530" on="1"/>
        <pt x="38" y="606" on="1"/>
      </contour>
    </TTGlyph>
    <TTGlyph name="degree" xMin="50" yMin="417" xMax="348" yMax="715">
      <contour>
        <pt x="50" y="566" on="1"/>
        <pt x="50" y="603" on="0"/>
        <pt x="73" y="659" on="0"/>
        <pt x="113" y="696" on="0"/>
        <pt x="167" y="715" on="0"/>
        <pt x="199" y="715" on="1"/>
        <pt x="230" y="715" on="0"/>
        <pt x="285" y="696" on="0"/>
        <pt x="325" y="659" on="0"/>
        <pt x="348" y="603" on="0"/>
        <pt x="348" y="566" on="1"/>
        <pt x="348" y="529" on="0"/>
        <pt x="325" y="473" on="0"/>
        <pt x="285" y="436" on="0"/>
        <pt x="230" y="417" on="0"/>
        <pt x="199" y="417" on="1"/>
        <pt x="167" y="417" on="0"/>
        <pt x="113" y="436" on="0"/>
        <pt x="73" y="473" on="0"/>
        <pt x="50" y="529" on="0"/>
      </contour>
      <contour>
        <pt x="125" y="566" on="1"/>
        <pt x="125" y="522" on="0"/>
        <pt x="166" y="480" on="0"/>
        <pt x="199" y="480" on="1"/>
        <pt x="231" y="480" on="0"/>
        <pt x="272" y="522" on="0"/>
        <pt x="272" y="566" on="1"/>
        <pt x="272" y="610" on="0"/>
        <pt x="231" y="652" on="0"/>
        <pt x="199" y="652" on="1"/>
        <pt x="166" y="652" on="0"/>
        <pt x="125" y="610" on="0"/>
      </contour>
    </TTGlyph>
    <TTGlyph name="dieresis" xMin="-4" yMin="638" xMax="300" yMax="756">
      <contour>
        <pt x="-4" y="697" on="1"/>
        <pt x="-4" y="727" on="0"/>
        <pt x="29" y="756" on="0"/>
        <pt x="53" y="756" on="1"/>
        <pt x="78" y="756" on="0"/>
        <pt x="111" y="727" on="0"/>
        <pt x="111" y="697" on="1"/>
        <pt x="111" y="667" on="0"/>
        <pt x="78" y="638" on="0"/>
        <pt x="53" y="638" on="1"/>
        <pt x="29" y="638" on="0"/>
        <pt x="-4" y="667" on="0"/>
      </contour>
      <contour>
        <pt x="185" y="697" on="1"/>
        <pt x="185" y="727" on="0"/>
        <pt x="218" y="756" on="0"/>
        <pt x="242" y="756" on="1"/>
        <pt x="267" y="756" on="0"/>
        <pt x="300" y="727" on="0"/>
        <pt x="300" y="697" on="1"/>
        <pt x="300" y="667" on="0"/>
        <pt x="267" y="638" on="0"/>
        <pt x="242" y="638" on="1"/>
        <pt x="218" y="638" on="0"/>
        <pt x="185" y="667" on="0"/>
      </contour>
    </TTGlyph>
    <TTGlyph name="dieresis.case" xMin="-4" yMin="788" xMax="300" yMax="906">
      <component glyphName=".ttfautohint" x="0" y="788" flags="0x0"/>
      <component glyphName="dieresis" x="0" y="150" flags="0x204"/>
    </TTGlyph>
    <TTGlyph name="divide" xMin="80" yMin="87" xMax="462" yMax="573">
      <component glyphName=".ttfautohint" x="80" y="87" flags="0x0"/>
      <component glyphName="period" x="166" y="101" scale="0.900024414062" flags="0x4"/>
      <component glyphName="minus" x="0" y="0" flags="0x4"/>
      <component glyphName="period" x="166" y="464" scale="0.900024414062" flags="0x4"/>
    </TTGlyph>
    <TTGlyph name="dollar" xMin="50" yMin="-121" xMax="513" yMax="779">
      <contour>
        <pt x="416" y="157" on="1"/>
        <pt x="416" y="195" on="0"/>
        <pt x="365" y="243" on="0"/>
        <pt x="288" y="280" on="0"/>
        <pt x="198" y="316" on="0"/>
        <pt x="121" y="366" on="0"/>
        <pt x="70" y="439" on="0"/>
        <pt x="70" y="496" on="1"/>
        <pt x="70" y="524" on="0"/>
        <pt x="93" y="588" on="0"/>
        <pt x="145" y="640" on="0"/>
        <pt x="232" y="675" on="0"/>
        <pt x="295" y="675" on="1"/>
        <pt x="378" y="675" on="0"/>
        <pt x="488" y="604" on="0"/>
        <pt x="511" y="523" on="1"/>
        <pt x="427" y="493" on="1"/>
        <pt x="410" y="542" on="0"/>
        <pt x="335" y="597" on="0"/>
        <pt x="280" y="597" on="1"/>
        <pt x="229" y="597" on="0"/>
        <pt x="166" y="546" on="0"/>
        <pt x="166" y="501" on="1"/>
        <pt x="166" y="463" on="0"/>
        <pt x="217" y="413" on="0"/>
        <pt x="295" y="375" on="0"/>
        <pt x="384" y="339" on="0"/>
        <pt x="462" y="292" on="0"/>
        <pt x="513" y="223" on="0"/>
        <pt x="513" y="171" on="1"/>
        <pt x="513" y="141" on="0"/>
        <pt x="489" y="76" on="0"/>
        <pt x="433" y="21" on="0"/>
        <pt x="344" y="-15" on="0"/>
        <pt x="278" y="-15" on="1"/>
        <pt x="189" y="-15" on="0"/>
        <pt x="74" y="73" on="0"/>
        <pt x="50" y="172" on="1"/>
        <pt x="133" y="202" on="1"/>
        <pt x="168" y="63" on="0"/>
        <pt x="289" y="63" on="1"/>
        <pt x="345" y="63" on="0"/>
        <pt x="416" y="116" on="0"/>
      </contour>
      <contour>
        <pt x="324" y="-121" on="1"/>
        <pt x="248" y="-121" on="1"/>
        <pt x="248" y="779" on="1"/>
        <pt x="324" y="779" on="1"/>
      </contour>
    </TTGlyph>
    <TTGlyph name="dotaccent" xMin="87" yMin="634" xMax="210" yMax="760">
      <contour>
        <pt x="87" y="697" on="1"/>
        <pt x="87" y="729" on="0"/>
        <pt x="122" y="760" on="0"/>
        <pt x="148" y="760" on="1"/>
        <pt x="175" y="760" on="0"/>
        <pt x="210" y="729" on="0"/>
        <pt x="210" y="697" on="1"/>
        <pt x="210" y="665" on="0"/>
        <pt x="175" y="634" on="0"/>
        <pt x="148" y="634" on="1"/>
        <pt x="122" y="634" on="0"/>
        <pt x="87" y="665" on="0"/>
      </contour>
    </TTGlyph>
    <TTGlyph name="dotaccent.case" xMin="87" yMin="784" xMax="210" yMax="910">
      <component glyphName=".ttfautohint" x="87" y="784" flags="0x0"/>
      <component glyphName="dotaccent" x="0" y="150" flags="0x204"/>
    </TTGlyph>
    <TTGlyph name="dotlessi" xMin="100" yMin="0" xMax="196" yMax="530">
      <contour>
        <pt x="196" y="0" on="1"/>
        <pt x="100" y="0" on="1"/>
        <pt x="100" y="530" on="1"/>
        <pt x="196" y="530" on="1"/>
      </contour>
    </TTGlyph>
    <TTGlyph name="e" xMin="70" yMin="-15" xMax="521" yMax="545">
      <contour>
        <pt x="318" y="63" on="1"/>
        <pt x="369" y="63" on="0"/>
        <pt x="444" y="102" on="0"/>
        <pt x="467" y="124" on="1"/>
        <pt x="510" y="72" on="1"/>
        <pt x="479" y="37" on="0"/>
        <pt x="379" y="-15" on="0"/>
        <pt x="315" y="-15" on="1"/>
        <pt x="262" y="-15" on="0"/>
        <pt x="172" y="20" on="0"/>
        <pt x="107" y="91" on="0"/>
        <pt x="70" y="196" on="0"/>
        <pt x="70" y="265" on="1"/>
        <pt x="70" y="334" on="0"/>
        <pt x="106" y="439" on="0"/>
        <pt x="170" y="510" on="0"/>
        <pt x="257" y="545" on="0"/>
        <pt x="308" y="545" on="1"/>
        <pt x="355" y="545" on="0"/>
        <pt x="434" y="516" on="0"/>
        <pt x="490" y="456" on="0"/>
        <pt x="521" y="367" on="0"/>
        <pt x="521" y="307" on="1"/>
        <pt x="521" y="237" on="1"/>
        <pt x="171" y="237" on="1"/>
        <pt x="177" y="148" on="0"/>
        <pt x="258" y="63" on="0"/>
      </contour>
      <contour>
        <pt x="309" y="467" on="1"/>
        <pt x="255" y="467" on="0"/>
        <pt x="180" y="388" on="0"/>
        <pt x="172" y="307" on="1"/>
        <pt x="426" y="307" on="1"/>
        <pt x="426" y="384" on="0"/>
        <pt x="365" y="467" on="0"/>
      </contour>
    </TTGlyph>
    <TTGlyph name="eacute" xMin="70" yMin="-15" xMax="521" yMax="790">
      <component glyphName=".ttfautohint" x="70" y="0" flags="0x0"/>
      <component glyphName="e" x="0" y="0" flags="0x204"/>
      <component glyphName="acute" x="86" y="0" flags="0x4"/>
    </TTGlyph>
    <TTGlyph name="ecircumflex" xMin="70" yMin="-15" xMax="521" yMax="790">
      <component glyphName=".ttfautohint" x="70" y="0" flags="0x0"/>
      <component glyphName="e" x="0" y="0" flags="0x204"/>
      <component glyphName="circumflex" x="92" y="0" flags="0x4"/>
    </TTGlyph>
    <TTGlyph name="edieresis" xMin="70" yMin="-15" xMax="521" yMax="756">
      <component glyphName=".ttfautohint" x="70" y="0" flags="0x0"/>
      <component glyphName="e" x="0" y="0" flags="0x204"/>
      <component glyphName="dieresis" x="161" y="0" flags="0x4"/>
    </TTGlyph>
    <TTGlyph name="egrave" xMin="70" yMin="-15" xMax="521" yMax="790">
      <component glyphName=".ttfautohint" x="70" y="0" flags="0x0"/>
      <component glyphName="e" x="0" y="0" flags="0x204"/>
      <component glyphName="grave" x="51" y="0" flags="0x4"/>
    </TTGlyph>
    <TTGlyph name="eight" xMin="73" yMin="-15" xMax="521" yMax="675">
      <contour>
        <pt x="88" y="491" on="1"/>
        <pt x="88" y="541" on="0"/>
        <pt x="124" y="611" on="0"/>
        <pt x="182" y="655" on="0"/>
        <pt x="258" y="675" on="0"/>
        <pt x="297" y="675" on="1"/>
        <pt x="336" y="675" on="0"/>
        <pt x="411" y="655" on="0"/>
        <pt x="470" y="611" on="0"/>
        <pt x="506" y="540" on="0"/>
        <pt x="506" y="490" on="1"/>
        <pt x="506" y="476" on="0"/>
        <pt x="498" y="438" on="0"/>
        <pt x="480" y="398" on="0"/>
        <pt x="449" y="360" on="0"/>
        <pt x="426" y="345" on="1"/>
        <pt x="456" y="328" on="0"/>
        <pt x="494" y="287" on="0"/>
        <pt x="514" y="244" on="0"/>
        <pt x="521" y="201" on="0"/>
        <pt x="521" y="182" on="1"/>
        <pt x="521" y="129" on="0"/>
        <pt x="484" y="55" on="0"/>
        <pt x="421" y="7" on="0"/>
        <pt x="340" y="-15" on="0"/>
        <pt x="297" y="-15" on="1"/>
        <pt x="253" y="-15" on="0"/>
        <pt x="173" y="7" on="0"/>
        <pt x="110" y="55" on="0"/>
        <pt x="73" y="129" on="0"/>
        <pt x="73" y="182" on="1"/>
        <pt x="73" y="201" on="0"/>
        <pt x="80" y="244" on="0"/>
        <pt x="100" y="288" on="0"/>
        <pt x="138" y="330" on="0"/>
        <pt x="168" y="347" on="1"/>
        <pt x="144" y="362" on="0"/>
        <pt x="113" y="400" on="0"/>
        <pt x="95" y="439" on="0"/>
        <pt x="88" y="476" on="0"/>
      </contour>
      <contour>
        <pt x="172" y="182" on="1"/>
        <pt x="172" y="156" on="0"/>
        <pt x="191" y="110" on="0"/>
        <pt x="224" y="77" on="0"/>
        <pt x="270" y="58" on="0"/>
        <pt x="296" y="58" on="1"/>
        <pt x="322" y="58" on="0"/>
        <pt x="368" y="77" on="0"/>
        <pt x="402" y="110" on="0"/>
        <pt x="421" y="156" on="0"/>
        <pt x="421" y="182" on="1"/>
        <pt x="421" y="208" on="0"/>
        <pt x="402" y="254" on="0"/>
        <pt x="368" y="288" on="0"/>
        <pt x="322" y="307" on="0"/>
        <pt x="296" y="307" on="1"/>
        <pt x="270" y="307" on="0"/>
        <pt x="224" y="288" on="0"/>
        <pt x="191" y="254" on="0"/>
        <pt x="172" y="208" on="0"/>
      </contour>
      <contour>
        <pt x="182" y="493" on="1"/>
        <pt x="182" y="469" on="0"/>
        <pt x="200" y="427" on="0"/>
        <pt x="230" y="397" on="0"/>
        <pt x="272" y="379" on="0"/>
        <pt x="296" y="379" on="1"/>
        <pt x="320" y="379" on="0"/>
        <pt x="362" y="397" on="0"/>
        <pt x="393" y="427" on="0"/>
        <pt x="411" y="469" on="0"/>
        <pt x="411" y="493" on="1"/>
        <pt x="411" y="517" on="0"/>
        <pt x="393" y="559" on="0"/>
        <pt x="362" y="590" on="0"/>
        <pt x="320" y="608" on="0"/>
        <pt x="296" y="608" on="1"/>
        <pt x="272" y="608" on="0"/>
        <pt x="230" y="590" on="0"/>
        <pt x="200" y="559" on="0"/>
        <pt x="182" y="517" on="0"/>
      </contour>
    </TTGlyph>
    <TTGlyph name="eightinferior" xMin="66" yMin="-209" xMax="346" yMax="212">
      <contour>
        <pt x="75" y="96" on="1"/>
        <pt x="75" y="127" on="0"/>
        <pt x="97" y="171" on="0"/>
        <pt x="134" y="199" on="0"/>
        <pt x="181" y="212" on="0"/>
        <pt x="206" y="212" on="1"/>
        <pt x="230" y="212" on="0"/>
        <pt x="277" y="199" on="0"/>
        <pt x="314" y="171" on="0"/>
        <pt x="337" y="126" on="0"/>
        <pt x="337" y="95" on="1"/>
        <pt x="337" y="78" on="0"/>
        <pt x="321" y="30" on="0"/>
        <pt x="297" y="11" on="1"/>
        <pt x="327" y="-11" on="0"/>
        <pt x="346" y="-63" on="0"/>
        <pt x="346" y="-85" on="1"/>
        <pt x="346" y="-118" on="0"/>
        <pt x="323" y="-165" on="0"/>
        <pt x="284" y="-195" on="0"/>
        <pt x="233" y="-209" on="0"/>
        <pt x="206" y="-209" on="1"/>
        <pt x="179" y="-209" on="0"/>
        <pt x="128" y="-195" on="0"/>
        <pt x="89" y="-165" on="0"/>
        <pt x="66" y="-118" on="0"/>
        <pt x="66" y="-85" on="1"/>
        <pt x="66" y="-64" on="0"/>
        <pt x="84" y="-10" on="0"/>
        <pt x="114" y="12" on="1"/>
        <pt x="91" y="31" on="0"/>
        <pt x="75" y="79" on="0"/>
      </contour>
      <contour>
        <pt x="141" y="-85" on="1"/>
        <pt x="141" y="-112" on="0"/>
        <pt x="179" y="-148" on="0"/>
        <pt x="206" y="-148" on="1"/>
        <pt x="233" y="-148" on="0"/>
        <pt x="270" y="-112" on="0"/>
        <pt x="270" y="-85" on="1"/>
        <pt x="270" y="-58" on="0"/>
        <pt x="233" y="-21" on="0"/>
        <pt x="206" y="-21" on="1"/>
        <pt x="179" y="-21" on="0"/>
        <pt x="141" y="-58" on="0"/>
      </contour>
      <contour>
        <pt x="147" y="97" on="1"/>
        <pt x="147" y="72" on="0"/>
        <pt x="181" y="39" on="0"/>
        <pt x="206" y="39" on="1"/>
        <pt x="230" y="39" on="0"/>
        <pt x="264" y="72" on="0"/>
        <pt x="264" y="97" on="1"/>
        <pt x="264" y="122" on="0"/>
        <pt x="230" y="156" on="0"/>
        <pt x="206" y="156" on="1"/>
        <pt x="181" y="156" on="0"/>
        <pt x="147" y="122" on="0"/>
      </contour>
    </TTGlyph>
    <TTGlyph name="ellipsis" xMin="50" yMin="-15" xMax="649" yMax="121">
      <contour>
        <pt x="50" y="53" on="1"/>
        <pt x="50" y="88" on="0"/>
        <pt x="87" y="121" on="0"/>
        <pt x="116" y="121" on="1"/>
        <pt x="145" y="121" on="0"/>
        <pt x="183" y="88" on="0"/>
        <pt x="183" y="53" on="1"/>
        <pt x="183" y="18" on="0"/>
        <pt x="145" y="-15" on="0"/>
        <pt x="116" y="-15" on="1"/>
        <pt x="87" y="-15" on="0"/>
        <pt x="50" y="18" on="0"/>
      </contour>
      <contour>
        <pt x="283" y="53" on="1"/>
        <pt x="283" y="88" on="0"/>
        <pt x="320" y="121" on="0"/>
        <pt x="349" y="121" on="1"/>
        <pt x="378" y="121" on="0"/>
        <pt x="416" y="88" on="0"/>
        <pt x="416" y="53" on="1"/>
        <pt x="416" y="18" on="0"/>
        <pt x="378" y="-15" on="0"/>
        <pt x="349" y="-15" on="1"/>
        <pt x="320" y="-15" on="0"/>
        <pt x="283" y="18" on="0"/>
      </contour>
      <contour>
        <pt x="516" y="53" on="1"/>
        <pt x="516" y="88" on="0"/>
        <pt x="553" y="121" on="0"/>
        <pt x="582" y="121" on="1"/>
        <pt x="611" y="121" on="0"/>
        <pt x="649" y="88" on="0"/>
        <pt x="649" y="53" on="1"/>
        <pt x="649" y="18" on="0"/>
        <pt x="611" y="-15" on="0"/>
        <pt x="582" y="-15" on="1"/>
        <pt x="553" y="-15" on="0"/>
        <pt x="516" y="18" on="0"/>
      </contour>
    </TTGlyph>
    <TTGlyph name="emdash" xMin="55" yMin="266" xMax="763" yMax="336">
      <contour>
        <pt x="55" y="336" on="1"/>
        <pt x="763" y="336" on="1"/>
        <pt x="763" y="266" on="1"/>
        <pt x="55" y="266" on="1"/>
      </contour>
    </TTGlyph>
    <TTGlyph name="endash" xMin="55" yMin="266" xMax="641" yMax="336">
      <contour>
        <pt x="55" y="336" on="1"/>
        <pt x="641" y="336" on="1"/>
        <pt x="641" y="266" on="1"/>
        <pt x="55" y="266" on="1"/>
      </contour>
    </TTGlyph>
    <TTGlyph name="equal" xMin="80" yMin="190" xMax="462" yMax="470">
      <contour>
        <pt x="80" y="470" on="1"/>
        <pt x="462" y="470" on="1"/>
        <pt x="462" y="390" on="1"/>
        <pt x="80" y="390" on="1"/>
      </contour>
      <contour>
        <pt x="80" y="270" on="1"/>
        <pt x="462" y="270" on="1"/>
        <pt x="462" y="190" on="1"/>
        <pt x="80" y="190" on="1"/>
      </contour>
    </TTGlyph>
    <TTGlyph name="eslash" xMin="30" yMin="343" xMax="342" yMax="545">
      <contour>
        <pt x="30" y="401" on="1"/>
        <pt x="312" y="545" on="1"/>
        <pt x="342" y="487" on="1"/>
        <pt x="60" y="343" on="1"/>
      </contour>
    </TTGlyph>
    <TTGlyph name="eth" xMin="77" yMin="-15" xMax="598" yMax="765">
      <contour>
        <pt x="168" y="731" on="1"/>
        <pt x="193" y="749" on="0"/>
        <pt x="255" y="765" on="0"/>
        <pt x="293" y="765" on="1"/>
        <pt x="349" y="765" on="0"/>
        <pt x="447" y="707" on="0"/>
        <pt x="519" y="593" on="0"/>
        <pt x="560" y="423" on="0"/>
        <pt x="560" y="311" on="1"/>
        <pt x="560" y="218" on="0"/>
        <pt x="523" y="93" on="0"/>
        <pt x="458" y="17" on="0"/>
        <pt x="369" y="-15" on="0"/>
        <pt x="318" y="-15" on="1"/>
        <pt x="267" y="-15" on="0"/>
        <pt x="178" y="17" on="0"/>
        <pt x="114" y="82" on="0"/>
        <pt x="77" y="177" on="0"/>
        <pt x="77" y="240" on="1"/>
        <pt x="77" y="303" on="0"/>
        <pt x="114" y="398" on="0"/>
        <pt x="178" y="463" on="0"/>
        <pt x="267" y="495" on="0"/>
        <pt x="318" y="495" on="1"/>
        <pt x="365" y="495" on="0"/>
        <pt x="438" y="462" on="0"/>
        <pt x="460" y="435" on="1"/>
        <pt x="460" y="469" on="0"/>
        <pt x="439" y="556" on="0"/>
        <pt x="396" y="634" on="0"/>
        <pt x="328" y="688" on="0"/>
        <pt x="280" y="688" on="1"/>
        <pt x="240" y="688" on="0"/>
        <pt x="192" y="669" on="1"/>
      </contour>
      <contour>
        <pt x="177" y="240" on="1"/>
        <pt x="177" y="199" on="0"/>
        <pt x="191" y="134" on="0"/>
        <pt x="224" y="88" on="0"/>
        <pt x="278" y="63" on="0"/>
        <pt x="318" y="63" on="1"/>
        <pt x="358" y="63" on="0"/>
        <pt x="412" y="88" on="0"/>
        <pt x="445" y="134" on="0"/>
        <pt x="460" y="199" on="0"/>
        <pt x="460" y="240" on="1"/>
        <pt x="460" y="280" on="0"/>
        <pt x="445" y="346" on="0"/>
        <pt x="412" y="392" on="0"/>
        <pt x="358" y="417" on="0"/>
        <pt x="318" y="417" on="1"/>
        <pt x="278" y="417" on="0"/>
        <pt x="224" y="392" on="0"/>
        <pt x="191" y="346" on="0"/>
        <pt x="177" y="280" on="0"/>
      </contour>
      <contour>
        <pt x="286" y="603" on="1"/>
        <pt x="568" y="747" on="1"/>
        <pt x="598" y="689" on="1"/>
        <pt x="316" y="545" on="1"/>
      </contour>
    </TTGlyph>
    <TTGlyph name="exclam" xMin="100" yMin="-15" xMax="233" yMax="750">
      <contour>
        <pt x="100" y="53" on="1"/>
        <pt x="100" y="88" on="0"/>
        <pt x="137" y="121" on="0"/>
        <pt x="166" y="121" on="1"/>
        <pt x="195" y="121" on="0"/>
        <pt x="233" y="88" on="0"/>
        <pt x="233" y="53" on="1"/>
        <pt x="233" y="18" on="0"/>
        <pt x="195" y="-15" on="0"/>
        <pt x="166" y="-15" on="1"/>
        <pt x="137" y="-15" on="0"/>
        <pt x="100" y="18" on="0"/>
      </contour>
      <contour>
        <pt x="213" y="430" on="1"/>
        <pt x="198" y="218" on="1"/>
        <pt x="134" y="218" on="1"/>
        <pt x="119" y="430" on="1"/>
        <pt x="119" y="750" on="1"/>
        <pt x="214" y="750" on="1"/>
      </contour>
    </TTGlyph>
    <TTGlyph name="exclamdown" xMin="100" yMin="-220" xMax="233" yMax="545">
      <component glyphName=".ttfautohint" x="100" y="0" flags="0x0"/>
      <component glyphName="exclam" x="0" y="530" scalex="1.0" scaley="-0.999938964844" flags="0x4"/>
    </TTGlyph>
    <TTGlyph name="f" xMin="55" yMin="0" xMax="431" yMax="765">
      <contour>
        <pt x="55" y="530" on="1"/>
        <pt x="131" y="530" on="1"/>
        <pt x="131" y="591" on="1"/>
        <pt x="131" y="685" on="0"/>
        <pt x="212" y="765" on="0"/>
        <pt x="289" y="765" on="1"/>
        <pt x="340" y="765" on="0"/>
        <pt x="409" y="723" on="0"/>
        <pt x="431" y="664" on="1"/>
        <pt x="351" y="637" on="1"/>
        <pt x="342" y="661" on="0"/>
        <pt x="314" y="687" on="0"/>
        <pt x="288" y="687" on="1"/>
        <pt x="258" y="687" on="0"/>
        <pt x="227" y="646" on="0"/>
        <pt x="227" y="601" on="1"/>
        <pt x="227" y="530" on="1"/>
        <pt x="357" y="530" on="1"/>
        <pt x="357" y="460" on="1"/>
        <pt x="227" y="460" on="1"/>
        <pt x="227" y="0" on="1"/>
        <pt x="131" y="0" on="1"/>
        <pt x="131" y="460" on="1"/>
        <pt x="55" y="460" on="1"/>
      </contour>
    </TTGlyph>
    <TTGlyph name="fi" xMin="55" yMin="0" xMax="590" yMax="765">
      <component glyphName=".ttfautohint" x="55" y="0" flags="0x0"/>
      <component glyphName="f" x="0" y="0" flags="0x4"/>
      <component glyphName="i" x="380" y="0" flags="0x4"/>
    </TTGlyph>
    <TTGlyph name="five" xMin="51" yMin="-15" xMax="488" yMax="660">
      <contour>
        <pt x="447" y="660" on="1"/>
        <pt x="447" y="582" on="1"/>
        <pt x="187" y="582" on="1"/>
        <pt x="181" y="388" on="1"/>
        <pt x="224" y="397" on="0"/>
        <pt x="262" y="397" on="1"/>
        <pt x="321" y="397" on="0"/>
        <pt x="406" y="361" on="0"/>
        <pt x="462" y="303" on="0"/>
        <pt x="488" y="228" on="0"/>
        <pt x="488" y="188" on="1"/>
        <pt x="488" y="150" on="0"/>
        <pt x="460" y="77" on="0"/>
        <pt x="403" y="20" on="0"/>
        <pt x="316" y="-15" on="0"/>
        <pt x="258" y="-15" on="1"/>
        <pt x="224" y="-15" on="0"/>
        <pt x="159" y="0" on="0"/>
        <pt x="104" y="32" on="0"/>
        <pt x="62" y="82" on="0"/>
        <pt x="51" y="118" on="1"/>
        <pt x="134" y="146" on="1"/>
        <pt x="140" y="126" on="0"/>
        <pt x="165" y="95" on="0"/>
        <pt x="198" y="74" on="0"/>
        <pt x="237" y="63" on="0"/>
        <pt x="256" y="63" on="1"/>
        <pt x="318" y="63" on="0"/>
        <pt x="388" y="125" on="0"/>
        <pt x="388" y="183" on="1"/>
        <pt x="388" y="211" on="0"/>
        <pt x="371" y="263" on="0"/>
        <pt x="335" y="301" on="0"/>
        <pt x="277" y="324" on="0"/>
        <pt x="235" y="324" on="1"/>
        <pt x="190" y="324" on="0"/>
        <pt x="125" y="307" on="1"/>
        <pt x="95" y="337" on="1"/>
        <pt x="102" y="660" on="1"/>
      </contour>
    </TTGlyph>
    <TTGlyph name="fiveinferior" xMin="51" yMin="-209" xMax="326" yMax="204">
      <contour>
        <pt x="302" y="204" on="1"/>
        <pt x="302" y="140" on="1"/>
        <pt x="150" y="140" on="1"/>
        <pt x="148" y="47" on="1"/>
        <pt x="167" y="50" on="0"/>
        <pt x="185" y="50" on="1"/>
        <pt x="222" y="50" on="0"/>
        <pt x="275" y="28" on="0"/>
        <pt x="309" y="-9" on="0"/>
        <pt x="326" y="-56" on="0"/>
        <pt x="326" y="-81" on="1"/>
        <pt x="326" y="-105" on="0"/>
        <pt x="309" y="-151" on="0"/>
        <pt x="273" y="-187" on="0"/>
        <pt x="219" y="-209" on="0"/>
        <pt x="183" y="-209" on="1"/>
        <pt x="162" y="-209" on="0"/>
        <pt x="121" y="-199" on="0"/>
        <pt x="85" y="-176" on="0"/>
        <pt x="58" y="-141" on="0"/>
        <pt x="51" y="-116" on="1"/>
        <pt x="116" y="-94" on="1"/>
        <pt x="123" y="-120" on="0"/>
        <pt x="162" y="-145" on="0"/>
        <pt x="182" y="-145" on="1"/>
        <pt x="214" y="-145" on="0"/>
        <pt x="250" y="-113" on="0"/>
        <pt x="250" y="-84" on="1"/>
        <pt x="250" y="-55" on="0"/>
        <pt x="214" y="-11" on="0"/>
        <pt x="169" y="-11" on="1"/>
        <pt x="156" y="-11" on="0"/>
        <pt x="123" y="-16" on="0"/>
        <pt x="103" y="-22" on="1"/>
        <pt x="79" y="3" on="1"/>
        <pt x="83" y="204" on="1"/>
      </contour>
    </TTGlyph>
    <TTGlyph name="fl" xMin="55" yMin="-15" xMax="652" yMax="765">
      <component glyphName=".ttfautohint" x="55" y="0" flags="0x0"/>
      <component glyphName="f" x="0" y="0" flags="0x4"/>
      <component glyphName="l" x="380" y="0" flags="0x4"/>
    </TTGlyph>
    <TTGlyph name="florin" xMin="103" yMin="-232" xMax="530" yMax="675">
      <contour>
        <pt x="126" y="-155" on="1"/>
        <pt x="166" y="-151" on="0"/>
        <pt x="214" y="-91" on="0"/>
        <pt x="214" y="-25" on="1"/>
        <pt x="214" y="466" on="1"/>
        <pt x="214" y="514" on="0"/>
        <pt x="240" y="591" on="0"/>
        <pt x="287" y="645" on="0"/>
        <pt x="353" y="675" on="0"/>
        <pt x="394" y="675" on="1"/>
        <pt x="429" y="675" on="0"/>
        <pt x="501" y="657" on="0"/>
        <pt x="530" y="639" on="1"/>
        <pt x="493" y="563" on="1"/>
        <pt x="484" y="570" on="0"/>
        <pt x="458" y="580" on="0"/>
        <pt x="431" y="587" on="0"/>
        <pt x="406" y="591" on="0"/>
        <pt x="397" y="591" on="1"/>
        <pt x="356" y="591" on="0"/>
        <pt x="310" y="529" on="0"/>
        <pt x="310" y="460" on="1"/>
        <pt x="310" y="-25" on="1"/>
        <pt x="310" y="-62" on="0"/>
        <pt x="292" y="-131" on="0"/>
        <pt x="251" y="-188" on="0"/>
        <pt x="185" y="-226" on="0"/>
        <pt x="136" y="-232" on="1"/>
      </contour>
      <contour>
        <pt x="103" y="336" on="1"/>
        <pt x="443" y="336" on="1"/>
        <pt x="443" y="266" on="1"/>
        <pt x="103" y="266" on="1"/>
      </contour>
    </TTGlyph>
    <TTGlyph name="four" xMin="10" yMin="0" xMax="500" yMax="660">
      <contour>
        <pt x="283" y="660" on="1"/>
        <pt x="418" y="660" on="1"/>
        <pt x="418" y="219" on="1"/>
        <pt x="500" y="219" on="1"/>
        <pt x="500" y="141" on="1"/>
        <pt x="418" y="141" on="1"/>
        <pt x="418" y="0" on="1"/>
        <pt x="322" y="0" on="1"/>
        <pt x="322" y="141" on="1"/>
        <pt x="10" y="141" on="1"/>
        <pt x="10" y="185" on="1"/>
      </contour>
      <contour>
        <pt x="322" y="219" on="1"/>
        <pt x="322" y="572" on="1"/>
        <pt x="119" y="219" on="1"/>
      </contour>
    </TTGlyph>
    <TTGlyph name="fourinferior" xMin="35" yMin="-200" xMax="339" yMax="204">
      <contour>
        <pt x="199" y="204" on="1"/>
        <pt x="291" y="204" on="1"/>
        <pt x="291" y="-55" on="1"/>
        <pt x="339" y="-55" on="1"/>
        <pt x="339" y="-117" on="1"/>
        <pt x="291" y="-117" on="1"/>
        <pt x="291" y="-200" on="1"/>
        <pt x="217" y="-200" on="1"/>
        <pt x="217" y="-117" on="1"/>
        <pt x="35" y="-117" on="1"/>
        <pt x="35" y="-81" on="1"/>
      </contour>
      <contour>
        <pt x="217" y="-55" on="1"/>
        <pt x="217" y="110" on="1"/>
        <pt x="193" y="68" on="0"/>
        <pt x="147" y="-10" on="0"/>
        <pt x="122" y="-55" on="1"/>
      </contour>
    </TTGlyph>
    <TTGlyph name="fraction" xMin="-10" yMin="-15" xMax="313" yMax="675">
      <contour>
        <pt x="69" y="-15" on="1"/>
        <pt x="-10" y="-15" on="1"/>
        <pt x="232" y="675" on="1"/>
        <pt x="313" y="675" on="1"/>
      </contour>
    </TTGlyph>
    <TTGlyph name="g" xMin="50" yMin="-235" xMax="534" yMax="618">
      <contour>
        <pt x="362" y="70" on="1"/>
        <pt x="396" y="70" on="0"/>
        <pt x="458" y="55" on="0"/>
        <pt x="506" y="21" on="0"/>
        <pt x="534" y="-33" on="0"/>
        <pt x="534" y="-72" on="1"/>
        <pt x="534" y="-149" on="0"/>
        <pt x="412" y="-235" on="0"/>
        <pt x="292" y="-235" on="1"/>
        <pt x="50" y="-235" on="0"/>
        <pt x="50" y="-82" on="1"/>
        <pt x="50" y="-48" on="0"/>
        <pt x="90" y="10" on="0"/>
        <pt x="123" y="28" on="1"/>
        <pt x="87" y="61" on="0"/>
        <pt x="87" y="119" on="1"/>
        <pt x="87" y="149" on="0"/>
        <pt x="111" y="203" on="0"/>
        <pt x="137" y="223" on="1"/>
        <pt x="90" y="273" on="0"/>
        <pt x="90" y="353" on="1"/>
        <pt x="90" y="398" on="0"/>
        <pt x="121" y="470" on="0"/>
        <pt x="175" y="519" on="0"/>
        <pt x="249" y="545" on="0"/>
        <pt x="293" y="545" on="1"/>
        <pt x="342" y="545" on="0"/>
        <pt x="384" y="528" on="1"/>
        <pt x="407" y="529" on="0"/>
        <pt x="441" y="567" on="0"/>
        <pt x="441" y="618" on="1"/>
        <pt x="461" y="618" on="1"/>
        <pt x="519" y="598" on="1"/>
        <pt x="519" y="546" on="0"/>
        <pt x="482" y="493" on="0"/>
        <pt x="450" y="482" on="1"/>
        <pt x="472" y="458" on="0"/>
        <pt x="497" y="393" on="0"/>
        <pt x="497" y="353" on="1"/>
        <pt x="497" y="308" on="0"/>
        <pt x="466" y="237" on="0"/>
        <pt x="411" y="188" on="0"/>
        <pt x="336" y="162" on="0"/>
        <pt x="293" y="162" on="1"/>
        <pt x="231" y="162" on="0"/>
        <pt x="185" y="186" on="1"/>
        <pt x="173" y="175" on="0"/>
        <pt x="160" y="144" on="0"/>
        <pt x="160" y="128" on="1"/>
        <pt x="160" y="103" on="0"/>
        <pt x="194" y="70" on="0"/>
        <pt x="230" y="70" on="1"/>
      </contour>
      <contour>
        <pt x="182" y="353" on="1"/>
        <pt x="182" y="321" on="0"/>
        <pt x="202" y="274" on="0"/>
        <pt x="233" y="244" on="0"/>
        <pt x="273" y="230" on="0"/>
        <pt x="293" y="230" on="1"/>
        <pt x="313" y="230" on="0"/>
        <pt x="353" y="244" on="0"/>
        <pt x="385" y="274" on="0"/>
        <pt x="405" y="321" on="0"/>
        <pt x="405" y="353" on="1"/>
        <pt x="405" y="386" on="0"/>
        <pt x="385" y="433" on="0"/>
        <pt x="353" y="463" on="0"/>
        <pt x="313" y="477" on="0"/>
        <pt x="293" y="477" on="1"/>
        <pt x="273" y="477" on="0"/>
        <pt x="233" y="463" on="0"/>
        <pt x="202" y="433" on="0"/>
        <pt x="182" y="386" on="0"/>
      </contour>
      <contour>
        <pt x="238" y="-8" on="1"/>
        <pt x="204" y="-8" on="0"/>
        <pt x="175" y="0" on="1"/>
        <pt x="161" y="-15" on="0"/>
        <pt x="138" y="-54" on="0"/>
        <pt x="138" y="-77" on="1"/>
        <pt x="138" y="-161" on="0"/>
        <pt x="292" y="-161" on="1"/>
        <pt x="370" y="-161" on="0"/>
        <pt x="446" y="-120" on="0"/>
        <pt x="446" y="-73" on="1"/>
        <pt x="446" y="-52" on="0"/>
        <pt x="429" y="-27" on="0"/>
        <pt x="404" y="-13" on="0"/>
        <pt x="373" y="-8" on="0"/>
        <pt x="358" y="-8" on="1"/>
      </contour>
    </TTGlyph>
    <TTGlyph name="germandbls" xMin="55" yMin="-15" xMax="634" yMax="765">
      <contour>
        <pt x="55" y="530" on="1"/>
        <pt x="131" y="530" on="1"/>
        <pt x="131" y="541" on="1"/>
        <pt x="131" y="588" on="0"/>
        <pt x="153" y="670" on="0"/>
        <pt x="201" y="730" on="0"/>
        <pt x="276" y="765" on="0"/>
        <pt x="329" y="765" on="1"/>
        <pt x="390" y="765" on="0"/>
        <pt x="471" y="734" on="0"/>
        <pt x="519" y="684" on="0"/>
        <pt x="539" y="622" on="0"/>
        <pt x="539" y="591" on="1"/>
        <pt x="539" y="558" on="0"/>
        <pt x="518" y="509" on="0"/>
        <pt x="486" y="471" on="0"/>
        <pt x="449" y="442" on="0"/>
        <pt x="417" y="418" on="0"/>
        <pt x="396" y="396" on="0"/>
        <pt x="396" y="385" on="1"/>
        <pt x="396" y="373" on="0"/>
        <pt x="431" y="360" on="0"/>
        <pt x="484" y="344" on="0"/>
        <pt x="546" y="321" on="0"/>
        <pt x="599" y="280" on="0"/>
        <pt x="634" y="214" on="0"/>
        <pt x="634" y="163" on="1"/>
        <pt x="634" y="133" on="0"/>
        <pt x="610" y="69" on="0"/>
        <pt x="561" y="18" on="0"/>
        <pt x="488" y="-15" on="0"/>
        <pt x="439" y="-15" on="1"/>
        <pt x="366" y="-15" on="0"/>
        <pt x="274" y="46" on="0"/>
        <pt x="257" y="118" on="1"/>
        <pt x="339" y="146" on="1"/>
        <pt x="347" y="111" on="0"/>
        <pt x="389" y="63" on="0"/>
        <pt x="437" y="63" on="1"/>
        <pt x="477" y="63" on="0"/>
        <pt x="534" y="114" on="0"/>
        <pt x="534" y="155" on="1"/>
        <pt x="534" y="193" on="0"/>
        <pt x="500" y="237" on="0"/>
        <pt x="450" y="264" on="0"/>
        <pt x="390" y="281" on="0"/>
        <pt x="340" y="305" on="0"/>
        <pt x="306" y="343" on="0"/>
        <pt x="306" y="378" on="1"/>
        <pt x="306" y="405" on="0"/>
        <pt x="326" y="442" on="0"/>
        <pt x="357" y="471" on="0"/>
        <pt x="393" y="497" on="0"/>
        <pt x="424" y="525" on="0"/>
        <pt x="444" y="561" on="0"/>
        <pt x="444" y="587" on="1"/>
        <pt x="444" y="630" on="0"/>
        <pt x="384" y="687" on="0"/>
        <pt x="336" y="687" on="1"/>
        <pt x="314" y="687" on="0"/>
        <pt x="275" y="676" on="0"/>
        <pt x="245" y="647" on="0"/>
        <pt x="227" y="597" on="0"/>
        <pt x="227" y="559" on="1"/>
        <pt x="227" y="0" on="1"/>
        <pt x="131" y="0" on="1"/>
        <pt x="131" y="460" on="1"/>
        <pt x="55" y="460" on="1"/>
      </contour>
    </TTGlyph>
    <TTGlyph name="grave" xMin="120" yMin="607" xMax="367" yMax="790">
      <contour>
        <pt x="367" y="665" on="1"/>
        <pt x="335" y="607" on="1"/>
        <pt x="120" y="717" on="1"/>
        <pt x="161" y="790" on="1"/>
      </contour>
    </TTGlyph>
    <TTGlyph name="grave.case" xMin="120" yMin="757" xMax="367" yMax="940">
      <component glyphName=".ttfautohint" x="120" y="757" flags="0x0"/>
      <component glyphName="grave" x="0" y="150" flags="0x204"/>
    </TTGlyph>
    <TTGlyph name="greater" xMin="80" yMin="130" xMax="462" yMax="530">
      <contour>
        <pt x="462" y="291" on="1"/>
        <pt x="80" y="130" on="1"/>
        <pt x="80" y="210" on="1"/>
        <pt x="368" y="330" on="1"/>
        <pt x="80" y="450" on="1"/>
        <pt x="80" y="530" on="1"/>
        <pt x="462" y="369" on="1"/>
      </contour>
    </TTGlyph>
    <TTGlyph name="greaterequal" xMin="80" yMin="-9" xMax="462" yMax="530">
      <component glyphName=".ttfautohint" x="80" y="0" flags="0x0"/>
      <component glyphName="greater" x="0" y="0" flags="0x204"/>
      <component glyphName="minus" x="0" y="-299" flags="0x4"/>
    </TTGlyph>
    <TTGlyph name="guillemotleft" xMin="50" yMin="121" xMax="455" yMax="525">
      <contour>
        <pt x="194" y="525" on="1"/>
        <pt x="248" y="488" on="1"/>
        <pt x="154" y="323" on="1"/>
        <pt x="248" y="158" on="1"/>
        <pt x="194" y="121" on="1"/>
        <pt x="50" y="309" on="1"/>
        <pt x="50" y="337" on="1"/>
      </contour>
      <contour>
        <pt x="401" y="525" on="1"/>
        <pt x="455" y="488" on="1"/>
        <pt x="361" y="323" on="1"/>
        <pt x="455" y="158" on="1"/>
        <pt x="401" y="121" on="1"/>
        <pt x="257" y="309" on="1"/>
        <pt x="257" y="337" on="1"/>
      </contour>
    </TTGlyph>
    <TTGlyph name="guillemotright" xMin="50" yMin="121" xMax="455" yMax="525">
      <component glyphName=".ttfautohint" x="50" y="121" flags="0x0"/>
      <component glyphName="guillemotleft" x="505" y="0" scalex="-0.999938964844" scaley="1.0" flags="0x4"/>
    </TTGlyph>
    <TTGlyph name="guilsinglleft" xMin="50" yMin="121" xMax="248" yMax="525">
      <contour>
        <pt x="194" y="525" on="1"/>
        <pt x="248" y="488" on="1"/>
        <pt x="154" y="323" on="1"/>
        <pt x="248" y="158" on="1"/>
        <pt x="194" y="121" on="1"/>
        <pt x="50" y="309" on="1"/>
        <pt x="50" y="337" on="1"/>
      </contour>
    </TTGlyph>
    <TTGlyph name="guilsinglright" xMin="50" yMin="121" xMax="248" yMax="525">
      <component glyphName=".ttfautohint" x="50" y="121" flags="0x0"/>
      <component glyphName="guilsinglleft" x="298" y="0" scalex="-0.999938964844" scaley="1.0" flags="0x4"/>
    </TTGlyph>
    <TTGlyph name="h" xMin="100" yMin="0" xMax="526" yMax="750">
      <contour>
        <pt x="191" y="458" on="1"/>
        <pt x="221" y="499" on="0"/>
        <pt x="305" y="545" on="0"/>
        <pt x="353" y="545" on="1"/>
        <pt x="400" y="545" on="0"/>
        <pt x="466" y="523" on="0"/>
        <pt x="507" y="476" on="0"/>
        <pt x="526" y="400" on="0"/>
        <pt x="526" y="346" on="1"/>
        <pt x="526" y="0" on="1"/>
        <pt x="430" y="0" on="1"/>
        <pt x="430" y="356" on="1"/>
        <pt x="430" y="467" on="0"/>
        <pt x="331" y="467" on="1"/>
        <pt x="248" y="467" on="0"/>
        <pt x="196" y="397" on="1"/>
        <pt x="196" y="0" on="1"/>
        <pt x="100" y="0" on="1"/>
        <pt x="100" y="750" on="1"/>
        <pt x="191" y="750" on="1"/>
      </contour>
    </TTGlyph>
    <TTGlyph name="hungarumlaut" xMin="0" yMin="607" xMax="431" yMax="790">
      <contour>
        <pt x="162" y="790" on="1"/>
        <pt x="212" y="717" on="1"/>
        <pt x="37" y="607" on="1"/>
        <pt x="0" y="658" on="1"/>
      </contour>
      <contour>
        <pt x="381" y="790" on="1"/>
        <pt x="431" y="717" on="1"/>
        <pt x="256" y="607" on="1"/>
        <pt x="219" y="658" on="1"/>
      </contour>
    </TTGlyph>
    <TTGlyph name="hyphen" xMin="55" yMin="266" xMax="367" yMax="336">
      <contour>
        <pt x="55" y="336" on="1"/>
        <pt x="367" y="336" on="1"/>
        <pt x="367" y="266" on="1"/>
        <pt x="55" y="266" on="1"/>
      </contour>
    </TTGlyph>
    <TTGlyph name="i" xMin="87" yMin="0" xMax="210" yMax="760">
      <contour>
        <pt x="196" y="0" on="1"/>
        <pt x="100" y="0" on="1"/>
        <pt x="100" y="530" on="1"/>
        <pt x="196" y="530" on="1"/>
      </contour>
      <contour>
        <pt x="87" y="697" on="1"/>
        <pt x="87" y="729" on="0"/>
        <pt x="122" y="760" on="0"/>
        <pt x="148" y="760" on="1"/>
        <pt x="175" y="760" on="0"/>
        <pt x="210" y="729" on="0"/>
        <pt x="210" y="697" on="1"/>
        <pt x="210" y="665" on="0"/>
        <pt x="175" y="634" on="0"/>
        <pt x="148" y="634" on="1"/>
        <pt x="122" y="634" on="0"/>
        <pt x="87" y="665" on="0"/>
      </contour>
    </TTGlyph>
    <TTGlyph name="iacute" xMin="42" yMin="0" xMax="289" yMax="790">
      <component glyphName=".ttfautohint" x="42" y="0" flags="0x0"/>
      <component glyphName="dotlessi" x="0" y="0" flags="0x204"/>
      <component glyphName="acute" x="-60" y="0" flags="0x4"/>
    </TTGlyph>
    <TTGlyph name="icircumflex" xMin="-15" yMin="0" xMax="313" yMax="790">
      <component glyphName=".ttfautohint" x="0" y="0" flags="0x0"/>
      <component glyphName="dotlessi" x="0" y="0" flags="0x204"/>
      <component glyphName="circumflex" x="-69" y="0" flags="0x4"/>
    </TTGlyph>
    <TTGlyph name="idieresis" xMin="-4" yMin="0" xMax="300" yMax="756">
      <component glyphName=".ttfautohint" x="0" y="0" flags="0x0"/>
      <component glyphName="dotlessi" x="0" y="0" flags="0x204"/>
      <component glyphName="dieresis" x="0" y="0" flags="0x4"/>
    </TTGlyph>
    <TTGlyph name="igrave" xMin="25" yMin="0" xMax="272" yMax="790">
      <component glyphName=".ttfautohint" x="25" y="0" flags="0x0"/>
      <component glyphName="dotlessi" x="0" y="0" flags="0x204"/>
      <component glyphName="grave" x="-95" y="0" flags="0x4"/>
    </TTGlyph>
    <TTGlyph name="infinity" xMin="30" yMin="143" xMax="795" yMax="517">
      <contour>
        <pt x="113" y="330" on="1"/>
        <pt x="113" y="308" on="0"/>
        <pt x="127" y="268" on="0"/>
        <pt x="153" y="237" on="0"/>
        <pt x="189" y="219" on="0"/>
        <pt x="211" y="219" on="1"/>
        <pt x="260" y="219" on="0"/>
        <pt x="336" y="284" on="0"/>
        <pt x="368" y="330" on="1"/>
        <pt x="336" y="376" on="0"/>
        <pt x="260" y="441" on="0"/>
        <pt x="211" y="441" on="1"/>
        <pt x="189" y="441" on="0"/>
        <pt x="153" y="423" on="0"/>
        <pt x="127" y="392" on="0"/>
        <pt x="113" y="352" on="0"/>
      </contour>
      <contour>
        <pt x="410" y="263" on="1"/>
        <pt x="392" y="239" on="0"/>
        <pt x="354" y="195" on="0"/>
        <pt x="307" y="162" on="0"/>
        <pt x="252" y="143" on="0"/>
        <pt x="218" y="143" on="1"/>
        <pt x="188" y="143" on="0"/>
        <pt x="122" y="162" on="0"/>
        <pt x="67" y="205" on="0"/>
        <pt x="30" y="277" on="0"/>
        <pt x="30" y="330" on="1"/>
        <pt x="30" y="383" on="0"/>
        <pt x="67" y="455" on="0"/>
        <pt x="122" y="498" on="0"/>
        <pt x="188" y="517" on="0"/>
        <pt x="218" y="517" on="1"/>
        <pt x="252" y="517" on="0"/>
        <pt x="307" y="497" on="0"/>
        <pt x="354" y="464" on="0"/>
        <pt x="392" y="421" on="0"/>
        <pt x="410" y="397" on="1"/>
        <pt x="428" y="421" on="0"/>
        <pt x="468" y="464" on="0"/>
        <pt x="516" y="497" on="0"/>
        <pt x="573" y="517" on="0"/>
        <pt x="607" y="517" on="1"/>
        <pt x="637" y="517" on="0"/>
        <pt x="703" y="498" on="0"/>
        <pt x="758" y="455" on="0"/>
        <pt x="795" y="383" on="0"/>
        <pt x="795" y="330" on="1"/>
        <pt x="795" y="277" on="0"/>
        <pt x="758" y="205" on="0"/>
        <pt x="703" y="162" on="0"/>
        <pt x="637" y="143" on="0"/>
        <pt x="607" y="143" on="1"/>
        <pt x="573" y="143" on="0"/>
        <pt x="516" y="162" on="0"/>
        <pt x="468" y="195" on="0"/>
        <pt x="428" y="239" on="0"/>
      </contour>
      <contour>
        <pt x="707" y="330" on="1"/>
        <pt x="707" y="352" on="0"/>
        <pt x="693" y="392" on="0"/>
        <pt x="667" y="423" on="0"/>
        <pt x="631" y="441" on="0"/>
        <pt x="609" y="441" on="1"/>
        <pt x="560" y="441" on="0"/>
        <pt x="484" y="376" on="0"/>
        <pt x="452" y="330" on="1"/>
        <pt x="484" y="284" on="0"/>
        <pt x="560" y="219" on="0"/>
        <pt x="609" y="219" on="1"/>
        <pt x="631" y="219" on="0"/>
        <pt x="667" y="237" on="0"/>
        <pt x="693" y="268" on="0"/>
        <pt x="707" y="308" on="0"/>
      </contour>
    </TTGlyph>
    <TTGlyph name="integral" xMin="30" yMin="-235" xMax="397" yMax="675">
      <contour>
        <pt x="261" y="-26" on="1"/>
        <pt x="261" y="-74" on="0"/>
        <pt x="235" y="-151" on="0"/>
        <pt x="189" y="-205" on="0"/>
        <pt x="122" y="-235" on="0"/>
        <pt x="82" y="-235" on="1"/>
        <pt x="58" y="-235" on="0"/>
        <pt x="30" y="-230" on="1"/>
        <pt x="42" y="-146" on="1"/>
        <pt x="65" y="-151" on="0"/>
        <pt x="79" y="-151" on="1"/>
        <pt x="120" y="-151" on="0"/>
        <pt x="165" y="-89" on="0"/>
        <pt x="165" y="-20" on="1"/>
        <pt x="165" y="466" on="1"/>
        <pt x="165" y="514" on="0"/>
        <pt x="191" y="591" on="0"/>
        <pt x="238" y="645" on="0"/>
        <pt x="304" y="675" on="0"/>
        <pt x="345" y="675" on="1"/>
        <pt x="369" y="675" on="0"/>
        <pt x="397" y="670" on="1"/>
        <pt x="385" y="586" on="1"/>
        <pt x="362" y="591" on="0"/>
        <pt x="348" y="591" on="1"/>
        <pt x="307" y="591" on="0"/>
        <pt x="261" y="529" on="0"/>
        <pt x="261" y="460" on="1"/>
      </contour>
    </TTGlyph>
    <TTGlyph name="j" xMin="-84" yMin="-235" xMax="204" yMax="750">
      <contour>
        <pt x="93" y="693" on="1"/>
        <pt x="93" y="722" on="0"/>
        <pt x="124" y="750" on="0"/>
        <pt x="148" y="750" on="1"/>
        <pt x="173" y="750" on="0"/>
        <pt x="204" y="722" on="0"/>
        <pt x="204" y="693" on="1"/>
        <pt x="204" y="664" on="0"/>
        <pt x="173" y="636" on="0"/>
        <pt x="148" y="636" on="1"/>
        <pt x="124" y="636" on="0"/>
        <pt x="93" y="664" on="0"/>
      </contour>
      <contour>
        <pt x="196" y="-61" on="1"/>
        <pt x="196" y="-155" on="0"/>
        <pt x="116" y="-235" on="0"/>
        <pt x="44" y="-235" on="1"/>
        <pt x="-1" y="-235" on="0"/>
        <pt x="-65" y="-193" on="0"/>
        <pt x="-84" y="-134" on="1"/>
        <pt x="-4" y="-107" on="1"/>
        <pt x="4" y="-131" on="0"/>
        <pt x="27" y="-157" on="0"/>
        <pt x="49" y="-157" on="1"/>
        <pt x="74" y="-157" on="0"/>
        <pt x="100" y="-116" on="0"/>
        <pt x="100" y="-71" on="1"/>
        <pt x="100" y="530" on="1"/>
        <pt x="196" y="530" on="1"/>
      </contour>
    </TTGlyph>
    <TTGlyph name="k" xMin="100" yMin="0" xMax="502" yMax="750">
      <contour>
        <pt x="219" y="238" on="1"/>
        <pt x="196" y="213" on="1"/>
        <pt x="196" y="0" on="1"/>
        <pt x="100" y="0" on="1"/>
        <pt x="100" y="750" on="1"/>
        <pt x="196" y="750" on="1"/>
        <pt x="196" y="328" on="1"/>
        <pt x="377" y="530" on="1"/>
        <pt x="482" y="530" on="1"/>
        <pt x="274" y="300" on="1"/>
        <pt x="502" y="0" on="1"/>
        <pt x="397" y="0" on="1"/>
      </contour>
    </TTGlyph>
    <TTGlyph name="l" xMin="100" yMin="-15" xMax="272" yMax="750">
      <contour>
        <pt x="196" y="85" on="1"/>
        <pt x="196" y="69" on="0"/>
        <pt x="209" y="58" on="0"/>
        <pt x="220" y="58" on="1"/>
        <pt x="228" y="58" on="0"/>
        <pt x="248" y="63" on="0"/>
        <pt x="256" y="67" on="1"/>
        <pt x="272" y="5" on="1"/>
        <pt x="256" y="-3" on="0"/>
        <pt x="218" y="-15" on="0"/>
        <pt x="195" y="-15" on="1"/>
        <pt x="175" y="-15" on="0"/>
        <pt x="141" y="-6" on="0"/>
        <pt x="115" y="18" on="0"/>
        <pt x="100" y="58" on="0"/>
        <pt x="100" y="88" on="1"/>
        <pt x="100" y="750" on="1"/>
        <pt x="196" y="750" on="1"/>
      </contour>
    </TTGlyph>
    <TTGlyph name="less" xMin="80" yMin="130" xMax="462" yMax="530">
      <contour>
        <pt x="80" y="369" on="1"/>
        <pt x="462" y="530" on="1"/>
        <pt x="462" y="450" on="1"/>
        <pt x="173" y="330" on="1"/>
        <pt x="462" y="210" on="1"/>
        <pt x="462" y="130" on="1"/>
        <pt x="80" y="291" on="1"/>
      </contour>
    </TTGlyph>
    <TTGlyph name="lessequal" xMin="80" yMin="-9" xMax="462" yMax="530">
      <component glyphName=".ttfautohint" x="80" y="0" flags="0x0"/>
      <component glyphName="less" x="0" y="0" flags="0x204"/>
      <component glyphName="minus" x="0" y="-299" flags="0x4"/>
    </TTGlyph>
    <TTGlyph name="logicalnot" xMin="80" yMin="139" xMax="462" yMax="370">
      <contour>
        <pt x="80" y="370" on="1"/>
        <pt x="462" y="370" on="1"/>
        <pt x="462" y="139" on="1"/>
        <pt x="390" y="139" on="1"/>
        <pt x="390" y="290" on="1"/>
        <pt x="80" y="290" on="1"/>
      </contour>
    </TTGlyph>
    <TTGlyph name="lozenge" xMin="50" yMin="0" xMax="502" yMax="700">
      <contour>
        <pt x="50" y="350" on="1"/>
        <pt x="210" y="700" on="1"/>
        <pt x="342" y="700" on="1"/>
        <pt x="502" y="350" on="1"/>
        <pt x="342" y="0" on="1"/>
        <pt x="210" y="0" on="1"/>
      </contour>
      <contour>
        <pt x="136" y="366" on="1"/>
        <pt x="283" y="45" on="1"/>
        <pt x="415" y="333" on="1"/>
        <pt x="268" y="655" on="1"/>
      </contour>
    </TTGlyph>
    <TTGlyph name="lslash" xMin="-7" yMin="-15" xMax="305" yMax="750">
      <component glyphName=".ttfautohint" x="0" y="0" flags="0x0"/>
      <component glyphName="l" x="0" y="0" flags="0x204"/>
      <component glyphName="eslash" x="-37" y="0" flags="0x4"/>
    </TTGlyph>
    <TTGlyph name="m" xMin="100" yMin="0" xMax="826" yMax="545">
      <contour>
        <pt x="181" y="530" on="1"/>
        <pt x="186" y="468" on="1"/>
        <pt x="215" y="498" on="0"/>
        <pt x="294" y="545" on="0"/>
        <pt x="342" y="545" on="1"/>
        <pt x="403" y="545" on="0"/>
        <pt x="477" y="505" on="0"/>
        <pt x="494" y="460" on="1"/>
        <pt x="523" y="493" on="0"/>
        <pt x="606" y="545" on="0"/>
        <pt x="657" y="545" on="1"/>
        <pt x="702" y="545" on="0"/>
        <pt x="767" y="523" on="0"/>
        <pt x="807" y="476" on="0"/>
        <pt x="826" y="400" on="0"/>
        <pt x="826" y="346" on="1"/>
        <pt x="826" y="0" on="1"/>
        <pt x="730" y="0" on="1"/>
        <pt x="730" y="356" on="1"/>
        <pt x="730" y="467" on="0"/>
        <pt x="635" y="467" on="1"/>
        <pt x="600" y="467" on="0"/>
        <pt x="536" y="434" on="0"/>
        <pt x="507" y="405" on="1"/>
        <pt x="509" y="391" on="0"/>
        <pt x="511" y="363" on="0"/>
        <pt x="511" y="346" on="1"/>
        <pt x="511" y="0" on="1"/>
        <pt x="415" y="0" on="1"/>
        <pt x="415" y="356" on="1"/>
        <pt x="415" y="467" on="0"/>
        <pt x="320" y="467" on="1"/>
        <pt x="287" y="467" on="0"/>
        <pt x="224" y="435" on="0"/>
        <pt x="196" y="408" on="1"/>
        <pt x="196" y="0" on="1"/>
        <pt x="100" y="0" on="1"/>
        <pt x="100" y="530" on="1"/>
      </contour>
    </TTGlyph>
    <TTGlyph name="macron" xMin="133" yMin="659" xMax="422" yMax="734">
      <contour>
        <pt x="133" y="734" on="1"/>
        <pt x="422" y="734" on="1"/>
        <pt x="422" y="659" on="1"/>
        <pt x="133" y="659" on="1"/>
      </contour>
    </TTGlyph>
    <TTGlyph name="macron.case" xMin="133" yMin="809" xMax="422" yMax="884">
      <component glyphName=".ttfautohint" x="133" y="809" flags="0x0"/>
      <component glyphName="macron" x="0" y="150" flags="0x204"/>
    </TTGlyph>
    <TTGlyph name="minus" xMin="80" yMin="290" xMax="462" yMax="370">
      <contour>
        <pt x="80" y="370" on="1"/>
        <pt x="462" y="370" on="1"/>
        <pt x="462" y="290" on="1"/>
        <pt x="80" y="290" on="1"/>
      </contour>
    </TTGlyph>
    <TTGlyph name="mu" xMin="90" yMin="-220" xMax="587" yMax="530">
      <contour>
        <pt x="90" y="530" on="1"/>
        <pt x="186" y="530" on="1"/>
        <pt x="186" y="170" on="1"/>
        <pt x="186" y="116" on="0"/>
        <pt x="224" y="63" on="0"/>
        <pt x="269" y="63" on="1"/>
        <pt x="313" y="63" on="0"/>
        <pt x="385" y="95" on="0"/>
        <pt x="415" y="122" on="1"/>
        <pt x="415" y="530" on="1"/>
        <pt x="511" y="530" on="1"/>
        <pt x="511" y="85" on="1"/>
        <pt x="511" y="69" on="0"/>
        <pt x="526" y="58" on="0"/>
        <pt x="537" y="58" on="1"/>
        <pt x="545" y="58" on="0"/>
        <pt x="563" y="63" on="0"/>
        <pt x="571" y="67" on="1"/>
        <pt x="587" y="5" on="1"/>
        <pt x="571" y="-3" on="0"/>
        <pt x="533" y="-15" on="0"/>
        <pt x="510" y="-15" on="1"/>
        <pt x="475" y="-15" on="0"/>
        <pt x="427" y="17" on="0"/>
        <pt x="421" y="61" on="1"/>
        <pt x="391" y="31" on="0"/>
        <pt x="309" y="-15" on="0"/>
        <pt x="261" y="-15" on="1"/>
        <pt x="229" y="-15" on="0"/>
        <pt x="189" y="5" on="0"/>
        <pt x="176" y="22" on="1"/>
        <pt x="176" y="-220" on="1"/>
        <pt x="90" y="-220" on="1"/>
      </contour>
    </TTGlyph>
    <TTGlyph name="multiply" xMin="86" yMin="145" xMax="456" yMax="515">
      <contour>
        <pt x="86" y="202" on="1"/>
        <pt x="214" y="330" on="1"/>
        <pt x="86" y="458" on="1"/>
        <pt x="143" y="515" on="1"/>
        <pt x="271" y="387" on="1"/>
        <pt x="399" y="515" on="1"/>
        <pt x="456" y="458" on="1"/>
        <pt x="328" y="330" on="1"/>
        <pt x="456" y="202" on="1"/>
        <pt x="399" y="145" on="1"/>
        <pt x="271" y="273" on="1"/>
        <pt x="143" y="145" on="1"/>
      </contour>
    </TTGlyph>
    <TTGlyph name="n" xMin="100" yMin="0" xMax="526" yMax="545">
      <contour>
        <pt x="181" y="530" on="1"/>
        <pt x="186" y="466" on="1"/>
        <pt x="217" y="497" on="0"/>
        <pt x="301" y="545" on="0"/>
        <pt x="353" y="545" on="1"/>
        <pt x="400" y="545" on="0"/>
        <pt x="466" y="523" on="0"/>
        <pt x="507" y="476" on="0"/>
        <pt x="526" y="400" on="0"/>
        <pt x="526" y="346" on="1"/>
        <pt x="526" y="0" on="1"/>
        <pt x="430" y="0" on="1"/>
        <pt x="430" y="356" on="1"/>
        <pt x="430" y="467" on="0"/>
        <pt x="329" y="467" on="1"/>
        <pt x="294" y="467" on="0"/>
        <pt x="226" y="435" on="0"/>
        <pt x="196" y="407" on="1"/>
        <pt x="196" y="0" on="1"/>
        <pt x="100" y="0" on="1"/>
        <pt x="100" y="530" on="1"/>
      </contour>
    </TTGlyph>
    <TTGlyph name="nine" xMin="63" yMin="-15" xMax="521" yMax="675">
      <contour>
        <pt x="258" y="63" on="1"/>
        <pt x="292" y="63" on="0"/>
        <pt x="352" y="94" on="0"/>
        <pt x="397" y="159" on="0"/>
        <pt x="425" y="257" on="0"/>
        <pt x="427" y="324" on="1"/>
        <pt x="398" y="284" on="0"/>
        <pt x="313" y="248" on="0"/>
        <pt x="260" y="248" on="1"/>
        <pt x="210" y="248" on="0"/>
        <pt x="136" y="284" on="0"/>
        <pt x="87" y="341" on="0"/>
        <pt x="63" y="413" on="0"/>
        <pt x="63" y="449" on="1"/>
        <pt x="63" y="490" on="0"/>
        <pt x="91" y="571" on="0"/>
        <pt x="148" y="635" on="0"/>
        <pt x="234" y="675" on="0"/>
        <pt x="291" y="675" on="1"/>
        <pt x="399" y="675" on="0"/>
        <pt x="521" y="512" on="0"/>
        <pt x="521" y="350" on="1"/>
        <pt x="521" y="260" on="0"/>
        <pt x="481" y="123" on="0"/>
        <pt x="410" y="31" on="0"/>
        <pt x="313" y="-15" on="0"/>
        <pt x="257" y="-15" on="1"/>
        <pt x="193" y="-15" on="0"/>
        <pt x="96" y="33" on="0"/>
        <pt x="70" y="90" on="1"/>
        <pt x="151" y="131" on="1"/>
        <pt x="167" y="97" on="0"/>
        <pt x="226" y="63" on="0"/>
      </contour>
      <contour>
        <pt x="156" y="458" on="1"/>
        <pt x="156" y="429" on="0"/>
        <pt x="176" y="379" on="0"/>
        <pt x="211" y="341" on="0"/>
        <pt x="258" y="320" on="0"/>
        <pt x="285" y="320" on="1"/>
        <pt x="312" y="320" on="0"/>
        <pt x="359" y="341" on="0"/>
        <pt x="395" y="379" on="0"/>
        <pt x="415" y="429" on="0"/>
        <pt x="415" y="458" on="1"/>
        <pt x="415" y="487" on="0"/>
        <pt x="395" y="538" on="0"/>
        <pt x="359" y="575" on="0"/>
        <pt x="312" y="597" on="0"/>
        <pt x="285" y="597" on="1"/>
        <pt x="258" y="597" on="0"/>
        <pt x="211" y="575" on="0"/>
        <pt x="176" y="538" on="0"/>
        <pt x="156" y="487" on="0"/>
      </contour>
    </TTGlyph>
    <TTGlyph name="nineinferior" xMin="60" yMin="-209" xMax="346" yMax="212">
      <contour>
        <pt x="183" y="-145" on="1"/>
        <pt x="217" y="-145" on="0"/>
        <pt x="266" y="-87" on="0"/>
        <pt x="272" y="-25" on="1"/>
        <pt x="255" y="-39" on="0"/>
        <pt x="209" y="-55" on="0"/>
        <pt x="184" y="-55" on="1"/>
        <pt x="152" y="-55" on="0"/>
        <pt x="106" y="-33" on="0"/>
        <pt x="75" y="3" on="0"/>
        <pt x="60" y="48" on="0"/>
        <pt x="60" y="71" on="1"/>
        <pt x="60" y="96" on="0"/>
        <pt x="78" y="147" on="0"/>
        <pt x="113" y="187" on="0"/>
        <pt x="167" y="212" on="0"/>
        <pt x="203" y="212" on="1"/>
        <pt x="270" y="212" on="0"/>
        <pt x="346" y="113" on="0"/>
        <pt x="346" y="14" on="1"/>
        <pt x="346" y="-42" on="0"/>
        <pt x="321" y="-125" on="0"/>
        <pt x="277" y="-181" on="0"/>
        <pt x="217" y="-209" on="0"/>
        <pt x="182" y="-209" on="1"/>
        <pt x="142" y="-209" on="0"/>
        <pt x="81" y="-175" on="0"/>
        <pt x="61" y="-135" on="1"/>
        <pt x="125" y="-103" on="1"/>
        <pt x="134" y="-124" on="0"/>
        <pt x="166" y="-145" on="0"/>
      </contour>
      <contour>
        <pt x="133" y="77" on="1"/>
        <pt x="133" y="47" on="0"/>
        <pt x="171" y="5" on="0"/>
        <pt x="199" y="5" on="1"/>
        <pt x="227" y="5" on="0"/>
        <pt x="266" y="47" on="0"/>
        <pt x="266" y="77" on="1"/>
        <pt x="266" y="107" on="0"/>
        <pt x="227" y="149" on="0"/>
        <pt x="199" y="149" on="1"/>
        <pt x="171" y="149" on="0"/>
        <pt x="133" y="107" on="0"/>
      </contour>
    </TTGlyph>
    <TTGlyph name="notequal" xMin="80" yMin="-15" xMax="462" yMax="674">
      <component glyphName=".ttfautohint" x="80" y="0" flags="0x0"/>
      <component glyphName="equal" x="0" y="0" flags="0x204"/>
      <component glyphName="thin-slash" x="109" y="32" scale="0.849975585938" flags="0x4"/>
    </TTGlyph>
    <TTGlyph name="ntilde" xMin="100" yMin="0" xMax="526" yMax="754">
      <component glyphName=".ttfautohint" x="100" y="0" flags="0x0"/>
      <component glyphName="n" x="0" y="0" flags="0x204"/>
      <component glyphName="tilde" x="30" y="0" flags="0x4"/>
    </TTGlyph>
    <TTGlyph name="numbersign" xMin="30" yMin="-15" xMax="608" yMax="675">
      <contour>
        <pt x="87" y="470" on="1"/>
        <pt x="187" y="470" on="1"/>
        <pt x="229" y="675" on="1"/>
        <pt x="310" y="675" on="1"/>
        <pt x="267" y="470" on="1"/>
        <pt x="427" y="470" on="1"/>
        <pt x="469" y="675" on="1"/>
        <pt x="550" y="675" on="1"/>
        <pt x="507" y="470" on="1"/>
        <pt x="608" y="470" on="1"/>
        <pt x="591" y="390" on="1"/>
        <pt x="491" y="390" on="1"/>
        <pt x="466" y="270" on="1"/>
        <pt x="566" y="270" on="1"/>
        <pt x="549" y="190" on="1"/>
        <pt x="449" y="190" on="1"/>
        <pt x="407" y="-15" on="1"/>
        <pt x="328" y="-15" on="1"/>
        <pt x="370" y="190" on="1"/>
        <pt x="209" y="190" on="1"/>
        <pt x="167" y="-15" on="1"/>
        <pt x="88" y="-15" on="1"/>
        <pt x="130" y="190" on="1"/>
        <pt x="30" y="190" on="1"/>
        <pt x="47" y="270" on="1"/>
        <pt x="146" y="270" on="1"/>
        <pt x="171" y="390" on="1"/>
        <pt x="70" y="390" on="1"/>
      </contour>
      <contour>
        <pt x="226" y="270" on="1"/>
        <pt x="386" y="270" on="1"/>
        <pt x="411" y="390" on="1"/>
        <pt x="251" y="390" on="1"/>
      </contour>
    </TTGlyph>
    <TTGlyph name="o" xMin="70" yMin="-15" xMax="553" yMax="545">
      <contour>
        <pt x="70" y="265" on="1"/>
        <pt x="70" y="334" on="0"/>
        <pt x="107" y="439" on="0"/>
        <pt x="171" y="510" on="0"/>
        <pt x="260" y="545" on="0"/>
        <pt x="311" y="545" on="1"/>
        <pt x="362" y="545" on="0"/>
        <pt x="451" y="510" on="0"/>
        <pt x="516" y="439" on="0"/>
        <pt x="553" y="334" on="0"/>
        <pt x="553" y="265" on="1"/>
        <pt x="553" y="196" on="0"/>
        <pt x="516" y="91" on="0"/>
        <pt x="451" y="20" on="0"/>
        <pt x="362" y="-15" on="0"/>
        <pt x="311" y="-15" on="1"/>
        <pt x="260" y="-15" on="0"/>
        <pt x="171" y="20" on="0"/>
        <pt x="107" y="91" on="0"/>
        <pt x="70" y="196" on="0"/>
      </contour>
      <contour>
        <pt x="170" y="265" on="1"/>
        <pt x="170" y="162" on="0"/>
        <pt x="249" y="63" on="0"/>
        <pt x="311" y="63" on="1"/>
        <pt x="374" y="63" on="0"/>
        <pt x="453" y="162" on="0"/>
        <pt x="453" y="265" on="1"/>
        <pt x="453" y="368" on="0"/>
        <pt x="374" y="467" on="0"/>
        <pt x="311" y="467" on="1"/>
        <pt x="249" y="467" on="0"/>
        <pt x="170" y="368" on="0"/>
      </contour>
    </TTGlyph>
    <TTGlyph name="oacute" xMin="70" yMin="-15" xMax="553" yMax="790">
      <component glyphName=".ttfautohint" x="70" y="0" flags="0x0"/>
      <component glyphName="o" x="0" y="0" flags="0x204"/>
      <component glyphName="acute" x="102" y="0" flags="0x4"/>
    </TTGlyph>
    <TTGlyph name="ocircumflex" xMin="70" yMin="-15" xMax="553" yMax="790">
      <component glyphName=".ttfautohint" x="70" y="0" flags="0x0"/>
      <component glyphName="o" x="0" y="0" flags="0x204"/>
      <component glyphName="circumflex" x="93" y="0" flags="0x4"/>
    </TTGlyph>
    <TTGlyph name="odieresis" xMin="70" yMin="-15" xMax="553" yMax="756">
      <component glyphName=".ttfautohint" x="70" y="0" flags="0x0"/>
      <component glyphName="o" x="0" y="0" flags="0x204"/>
      <component glyphName="dieresis" x="163" y="0" flags="0x4"/>
    </TTGlyph>
    <TTGlyph name="oe" xMin="70" yMin="-15" xMax="904" yMax="545">
      <component glyphName=".ttfautohint" x="70" y="0" flags="0x0"/>
      <component glyphName="o" x="0" y="0" flags="0x4"/>
      <component glyphName="e" x="383" y="0" flags="0x4"/>
    </TTGlyph>
    <TTGlyph name="ogonek" xMin="50" yMin="-204" xMax="286" yMax="33">
      <contour>
        <pt x="286" y="-163" on="1"/>
        <pt x="266" y="-177" on="0"/>
        <pt x="207" y="-204" on="0"/>
        <pt x="171" y="-204" on="1"/>
        <pt x="142" y="-204" on="0"/>
        <pt x="97" y="-186" on="0"/>
        <pt x="66" y="-156" on="0"/>
        <pt x="50" y="-116" on="0"/>
        <pt x="50" y="-95" on="1"/>
        <pt x="50" y="-55" on="0"/>
        <pt x="110" y="13" on="0"/>
        <pt x="172" y="33" on="1"/>
        <pt x="188" y="0" on="1"/>
        <pt x="159" y="-15" on="0"/>
        <pt x="132" y="-59" on="0"/>
        <pt x="132" y="-79" on="1"/>
        <pt x="132" y="-108" on="0"/>
        <pt x="165" y="-133" on="0"/>
        <pt x="188" y="-133" on="1"/>
        <pt x="206" y="-133" on="0"/>
        <pt x="243" y="-121" on="0"/>
        <pt x="258" y="-110" on="1"/>
      </contour>
    </TTGlyph>
    <TTGlyph name="ograve" xMin="70" yMin="-15" xMax="553" yMax="790">
      <component glyphName=".ttfautohint" x="70" y="0" flags="0x0"/>
      <component glyphName="o" x="0" y="0" flags="0x204"/>
      <component glyphName="grave" x="67" y="0" flags="0x4"/>
    </TTGlyph>
    <TTGlyph name="one" xMin="70" yMin="0" xMax="421" yMax="660">
      <contour>
        <pt x="311" y="660" on="1"/>
        <pt x="311" y="78" on="1"/>
        <pt x="421" y="78" on="1"/>
        <pt x="421" y="0" on="1"/>
        <pt x="105" y="0" on="1"/>
        <pt x="105" y="78" on="1"/>
        <pt x="215" y="78" on="1"/>
        <pt x="215" y="511" on="1"/>
        <pt x="172" y="469" on="0"/>
        <pt x="99" y="447" on="1"/>
        <pt x="70" y="527" on="1"/>
        <pt x="96" y="535" on="0"/>
        <pt x="149" y="563" on="0"/>
        <pt x="195" y="599" on="0"/>
        <pt x="228" y="639" on="0"/>
        <pt x="235" y="660" on="1"/>
      </contour>
    </TTGlyph>
    <TTGlyph name="onehalf" xMin="70" yMin="-15" xMax="815" yMax="675">
      <component glyphName=".ttfautohint" x="70" y="0" flags="0x0"/>
      <component glyphName="fraction" x="256" y="0" flags="0x4"/>
      <component glyphName="oneinferior" x="9" y="456" flags="0x4"/>
      <component glyphName="twoinferior" x="483" y="200" flags="0x4"/>
    </TTGlyph>
    <TTGlyph name="oneinferior" xMin="61" yMin="-200" xMax="223" yMax="204">
      <contour>
        <pt x="223" y="204" on="1"/>
        <pt x="223" y="-200" on="1"/>
        <pt x="149" y="-200" on="1"/>
        <pt x="149" y="90" on="1"/>
        <pt x="122" y="71" on="0"/>
        <pt x="84" y="58" on="1"/>
        <pt x="61" y="123" on="1"/>
        <pt x="77" y="127" on="0"/>
        <pt x="110" y="144" on="0"/>
        <pt x="138" y="166" on="0"/>
        <pt x="158" y="191" on="0"/>
        <pt x="162" y="204" on="1"/>
      </contour>
    </TTGlyph>
    <TTGlyph name="onequarter" xMin="70" yMin="-15" xMax="807" yMax="675">
      <component glyphName=".ttfautohint" x="70" y="0" flags="0x0"/>
      <component glyphName="fraction" x="256" y="0" flags="0x4"/>
      <component glyphName="oneinferior" x="9" y="456" flags="0x4"/>
      <component glyphName="fourinferior" x="468" y="200" flags="0x4"/>
    </TTGlyph>
    <TTGlyph name="onesuperior" xMin="61" yMin="311" xMax="223" yMax="715">
      <component glyphName=".ttfautohint" x="61" y="311" flags="0x0"/>
      <component glyphName="oneinferior" x="0" y="511" flags="0x204"/>
    </TTGlyph>
    <TTGlyph name="ordfeminine" xMin="61" yMin="372" xMax="358" yMax="715">
      <contour>
        <pt x="192" y="657" on="1"/>
        <pt x="146" y="657" on="0"/>
        <pt x="131" y="606" on="1"/>
        <pt x="71" y="623" on="1"/>
        <pt x="85" y="673" on="0"/>
        <pt x="147" y="715" on="0"/>
        <pt x="191" y="715" on="1"/>
        <pt x="256" y="715" on="0"/>
        <pt x="312" y="649" on="0"/>
        <pt x="312" y="577" on="1"/>
        <pt x="312" y="457" on="1"/>
        <pt x="312" y="439" on="0"/>
        <pt x="319" y="426" on="0"/>
        <pt x="327" y="426" on="1"/>
        <pt x="333" y="426" on="0"/>
        <pt x="345" y="431" on="1"/>
        <pt x="358" y="388" on="1"/>
        <pt x="346" y="382" on="0"/>
        <pt x="319" y="372" on="0"/>
        <pt x="305" y="372" on="1"/>
        <pt x="285" y="372" on="0"/>
        <pt x="256" y="392" on="0"/>
        <pt x="249" y="420" on="1"/>
        <pt x="234" y="400" on="0"/>
        <pt x="182" y="372" on="0"/>
        <pt x="153" y="372" on="1"/>
        <pt x="114" y="372" on="0"/>
        <pt x="61" y="427" on="0"/>
        <pt x="61" y="468" on="1"/>
        <pt x="61" y="518" on="0"/>
        <pt x="130" y="572" on="0"/>
        <pt x="191" y="572" on="1"/>
        <pt x="205" y="572" on="0"/>
        <pt x="232" y="569" on="0"/>
        <pt x="244" y="567" on="1"/>
        <pt x="244" y="604" on="1"/>
        <pt x="244" y="631" on="0"/>
        <pt x="215" y="657" on="0"/>
      </contour>
      <contour>
        <pt x="130" y="470" on="1"/>
        <pt x="130" y="449" on="0"/>
        <pt x="154" y="430" on="0"/>
        <pt x="171" y="430" on="1"/>
        <pt x="190" y="430" on="0"/>
        <pt x="230" y="449" on="0"/>
        <pt x="244" y="466" on="1"/>
        <pt x="244" y="516" on="1"/>
        <pt x="223" y="522" on="0"/>
        <pt x="197" y="522" on="1"/>
        <pt x="171" y="522" on="0"/>
        <pt x="130" y="500" on="0"/>
      </contour>
    </TTGlyph>
    <TTGlyph name="ordmasculine" xMin="65" yMin="372" xMax="363" yMax="715">
      <contour>
        <pt x="65" y="543" on="1"/>
        <pt x="65" y="586" on="0"/>
        <pt x="88" y="650" on="0"/>
        <pt x="128" y="693" on="0"/>
        <pt x="182" y="715" on="0"/>
        <pt x="214" y="715" on="1"/>
        <pt x="245" y="715" on="0"/>
        <pt x="300" y="693" on="0"/>
        <pt x="340" y="650" on="0"/>
        <pt x="363" y="586" on="0"/>
        <pt x="363" y="543" on="1"/>
        <pt x="363" y="501" on="0"/>
        <pt x="340" y="437" on="0"/>
        <pt x="300" y="394" on="0"/>
        <pt x="245" y="372" on="0"/>
        <pt x="214" y="372" on="1"/>
        <pt x="150" y="372" on="0"/>
        <pt x="65" y="458" on="0"/>
      </contour>
      <contour>
        <pt x="135" y="543" on="1"/>
        <pt x="135" y="486" on="0"/>
        <pt x="179" y="430" on="0"/>
        <pt x="214" y="430" on="1"/>
        <pt x="248" y="430" on="0"/>
        <pt x="292" y="486" on="0"/>
        <pt x="292" y="543" on="1"/>
        <pt x="292" y="601" on="0"/>
        <pt x="248" y="657" on="0"/>
        <pt x="214" y="657" on="1"/>
        <pt x="179" y="657" on="0"/>
        <pt x="135" y="601" on="0"/>
      </contour>
    </TTGlyph>
    <TTGlyph name="oslash" xMin="70" yMin="-79" xMax="553" yMax="610">
      <component glyphName=".ttfautohint" x="70" y="0" flags="0x0"/>
      <component glyphName="o" x="0" y="0" flags="0x204"/>
      <component glyphName="thin-slash" x="120" y="-32" scalex="1.0" scaley="0.849975585938" flags="0x4"/>
    </TTGlyph>
    <TTGlyph name="otilde" xMin="70" yMin="-15" xMax="553" yMax="754">
      <component glyphName=".ttfautohint" x="70" y="0" flags="0x0"/>
      <component glyphName="o" x="0" y="0" flags="0x204"/>
      <component glyphName="tilde" x="34" y="0" flags="0x4"/>
    </TTGlyph>
    <TTGlyph name="p" xMin="100" yMin="-235" xMax="555" yMax="545">
      <contour>
        <pt x="100" y="530" on="1"/>
        <pt x="181" y="530" on="1"/>
        <pt x="186" y="468" on="1"/>
        <pt x="215" y="498" on="0"/>
        <pt x="296" y="545" on="0"/>
        <pt x="352" y="545" on="1"/>
        <pt x="398" y="545" on="0"/>
        <pt x="473" y="510" on="0"/>
        <pt x="526" y="439" on="0"/>
        <pt x="555" y="334" on="0"/>
        <pt x="555" y="265" on="1"/>
        <pt x="555" y="196" on="0"/>
        <pt x="519" y="91" on="0"/>
        <pt x="457" y="20" on="0"/>
        <pt x="373" y="-15" on="0"/>
        <pt x="325" y="-15" on="1"/>
        <pt x="288" y="-15" on="0"/>
        <pt x="223" y="7" on="0"/>
        <pt x="196" y="26" on="1"/>
        <pt x="196" y="-235" on="1"/>
        <pt x="100" y="-235" on="1"/>
      </contour>
      <contour>
        <pt x="331" y="467" on="1"/>
        <pt x="291" y="467" on="0"/>
        <pt x="224" y="435" on="0"/>
        <pt x="196" y="408" on="1"/>
        <pt x="196" y="105" on="1"/>
        <pt x="219" y="87" on="0"/>
        <pt x="283" y="63" on="0"/>
        <pt x="321" y="63" on="1"/>
        <pt x="380" y="63" on="0"/>
        <pt x="455" y="162" on="0"/>
        <pt x="455" y="265" on="1"/>
        <pt x="455" y="368" on="0"/>
        <pt x="386" y="467" on="0"/>
      </contour>
    </TTGlyph>
    <TTGlyph name="paragraph" xMin="40" yMin="-132" xMax="431" yMax="700">
      <contour>
        <pt x="431" y="75" on="1"/>
        <pt x="431" y="38" on="0"/>
        <pt x="413" y="-31" on="0"/>
        <pt x="372" y="-88" on="0"/>
        <pt x="305" y="-126" on="0"/>
        <pt x="256" y="-132" on="1"/>
        <pt x="246" y="-55" on="1"/>
        <pt x="286" y="-51" on="0"/>
        <pt x="335" y="9" on="0"/>
        <pt x="335" y="75" on="1"/>
        <pt x="335" y="261" on="1"/>
        <pt x="279" y="261" on="1"/>
        <pt x="219" y="261" on="0"/>
        <pt x="129" y="293" on="0"/>
        <pt x="70" y="352" on="0"/>
        <pt x="40" y="432" on="0"/>
        <pt x="40" y="480" on="1"/>
        <pt x="40" y="527" on="0"/>
        <pt x="70" y="608" on="0"/>
        <pt x="129" y="667" on="0"/>
        <pt x="219" y="700" on="0"/>
        <pt x="279" y="700" on="1"/>
        <pt x="431" y="700" on="1"/>
      </contour>
      <contour>
        <pt x="279" y="331" on="1"/>
        <pt x="335" y="331" on="1"/>
        <pt x="335" y="630" on="1"/>
        <pt x="279" y="630" on="1"/>
      </contour>
    </TTGlyph>
    <TTGlyph name="parenleft" xMin="90" yMin="-106" xMax="321" yMax="765">
      <contour>
        <pt x="321" y="-106" on="1"/>
        <pt x="271" y="-106" on="0"/>
        <pt x="187" y="-52" on="0"/>
        <pt x="125" y="56" on="0"/>
        <pt x="90" y="220" on="0"/>
        <pt x="90" y="331" on="1"/>
        <pt x="90" y="440" on="0"/>
        <pt x="125" y="603" on="0"/>
        <pt x="187" y="711" on="0"/>
        <pt x="271" y="765" on="0"/>
        <pt x="321" y="765" on="1"/>
        <pt x="321" y="677" on="1"/>
        <pt x="292" y="677" on="0"/>
        <pt x="244" y="639" on="0"/>
        <pt x="209" y="555" on="0"/>
        <pt x="190" y="424" on="0"/>
        <pt x="190" y="331" on="1"/>
        <pt x="190" y="237" on="0"/>
        <pt x="209" y="105" on="0"/>
        <pt x="244" y="21" on="0"/>
        <pt x="292" y="-18" on="0"/>
        <pt x="321" y="-18" on="1"/>
      </contour>
    </TTGlyph>
    <TTGlyph name="parenright" xMin="50" yMin="-106" xMax="281" yMax="765">
      <component glyphName=".ttfautohint" x="50" y="0" flags="0x0"/>
      <component glyphName="parenleft" x="371" y="0" scalex="-0.999938964844" scaley="1.0" flags="0x4"/>
    </TTGlyph>
    <TTGlyph name="partialdiff" xMin="83" yMin="-15" xMax="571" yMax="765">
      <contour>
        <pt x="484" y="440" on="1"/>
        <pt x="485" y="449" on="0"/>
        <pt x="485" y="468" on="0"/>
        <pt x="485" y="475" on="1"/>
        <pt x="485" y="509" on="0"/>
        <pt x="471" y="584" on="0"/>
        <pt x="438" y="647" on="0"/>
        <pt x="384" y="688" on="0"/>
        <pt x="345" y="688" on="1"/>
        <pt x="306" y="688" on="0"/>
        <pt x="258" y="669" on="1"/>
        <pt x="243" y="731" on="1"/>
        <pt x="270" y="749" on="0"/>
        <pt x="332" y="765" on="0"/>
        <pt x="368" y="765" on="1"/>
        <pt x="413" y="765" on="0"/>
        <pt x="488" y="725" on="0"/>
        <pt x="541" y="645" on="0"/>
        <pt x="571" y="526" on="0"/>
        <pt x="571" y="448" on="1"/>
        <pt x="571" y="416" on="0"/>
        <pt x="566" y="349" on="0"/>
        <pt x="561" y="311" on="1"/>
        <pt x="548" y="218" on="0"/>
        <pt x="495" y="93" on="0"/>
        <pt x="421" y="17" on="0"/>
        <pt x="331" y="-15" on="0"/>
        <pt x="282" y="-15" on="1"/>
        <pt x="238" y="-15" on="0"/>
        <pt x="165" y="11" on="0"/>
        <pt x="112" y="62" on="0"/>
        <pt x="83" y="138" on="0"/>
        <pt x="83" y="188" on="1"/>
        <pt x="83" y="264" on="0"/>
        <pt x="129" y="379" on="0"/>
        <pt x="204" y="456" on="0"/>
        <pt x="302" y="495" on="0"/>
        <pt x="354" y="495" on="1"/>
        <pt x="394" y="495" on="0"/>
        <pt x="460" y="463" on="0"/>
        <pt x="475" y="437" on="1"/>
      </contour>
      <contour>
        <pt x="343" y="417" on="1"/>
        <pt x="296" y="417" on="0"/>
        <pt x="234" y="376" on="0"/>
        <pt x="195" y="311" on="0"/>
        <pt x="179" y="228" on="0"/>
        <pt x="179" y="186" on="1"/>
        <pt x="179" y="129" on="0"/>
        <pt x="230" y="63" on="0"/>
        <pt x="293" y="63" on="1"/>
        <pt x="335" y="63" on="0"/>
        <pt x="398" y="96" on="0"/>
        <pt x="439" y="156" on="0"/>
        <pt x="459" y="241" on="0"/>
        <pt x="459" y="292" on="1"/>
        <pt x="459" y="351" on="0"/>
        <pt x="406" y="417" on="0"/>
      </contour>
    </TTGlyph>
    <TTGlyph name="percent" xMin="41" yMin="-15" xMax="838" yMax="675">
      <component glyphName=".ttfautohint" x="41" y="0" flags="0x0"/>
      <component glyphName="fraction" x="287" y="0" flags="0x4"/>
      <component glyphName="zeroinferior" x="-20" y="462" flags="0x4"/>
      <component glyphName="zeroinferior" x="465" y="194" flags="0x4"/>
    </TTGlyph>
    <TTGlyph name="period" xMin="50" yMin="-15" xMax="183" yMax="121">
      <contour>
        <pt x="50" y="53" on="1"/>
        <pt x="50" y="88" on="0"/>
        <pt x="87" y="121" on="0"/>
        <pt x="116" y="121" on="1"/>
        <pt x="145" y="121" on="0"/>
        <pt x="183" y="88" on="0"/>
        <pt x="183" y="53" on="1"/>
        <pt x="183" y="18" on="0"/>
        <pt x="145" y="-15" on="0"/>
        <pt x="116" y="-15" on="1"/>
        <pt x="87" y="-15" on="0"/>
        <pt x="50" y="18" on="0"/>
      </contour>
    </TTGlyph>
    <TTGlyph name="periodcentered" xMin="100" yMin="233" xMax="233" yMax="369">
      <component glyphName=".ttfautohint" x="100" y="233" flags="0x0"/>
      <component glyphName="period" x="50" y="248" flags="0x4"/>
    </TTGlyph>
    <TTGlyph name="perthousand" xMin="41" yMin="-15" xMax="1219" yMax="675">
      <component glyphName=".ttfautohint" x="41" y="0" flags="0x0"/>
      <component glyphName="fraction" x="287" y="0" flags="0x4"/>
      <component glyphName="zeroinferior" x="-20" y="462" flags="0x4"/>
      <component glyphName="zeroinferior" x="465" y="194" flags="0x4"/>
      <component glyphName="zeroinferior" x="846" y="194" flags="0x4"/>
    </TTGlyph>
    <TTGlyph name="pi" xMin="61" yMin="-15" xMax="572" yMax="530">
      <contour>
        <pt x="61" y="530" on="1"/>
        <pt x="566" y="530" on="1"/>
        <pt x="566" y="455" on="1"/>
        <pt x="496" y="455" on="1"/>
        <pt x="496" y="85" on="1"/>
        <pt x="496" y="69" on="0"/>
        <pt x="509" y="58" on="0"/>
        <pt x="520" y="58" on="1"/>
        <pt x="528" y="58" on="0"/>
        <pt x="548" y="63" on="0"/>
        <pt x="556" y="67" on="1"/>
        <pt x="572" y="5" on="1"/>
        <pt x="556" y="-3" on="0"/>
        <pt x="518" y="-15" on="0"/>
        <pt x="495" y="-15" on="1"/>
        <pt x="475" y="-15" on="0"/>
        <pt x="441" y="-6" on="0"/>
        <pt x="415" y="18" on="0"/>
        <pt x="400" y="58" on="0"/>
        <pt x="400" y="88" on="1"/>
        <pt x="400" y="455" on="1"/>
        <pt x="227" y="455" on="1"/>
        <pt x="193" y="0" on="1"/>
        <pt x="100" y="0" on="1"/>
        <pt x="134" y="455" on="1"/>
        <pt x="61" y="455" on="1"/>
      </contour>
    </TTGlyph>
    <TTGlyph name="plus" xMin="80" yMin="139" xMax="462" yMax="521">
      <contour>
        <pt x="80" y="370" on="1"/>
        <pt x="231" y="370" on="1"/>
        <pt x="231" y="521" on="1"/>
        <pt x="311" y="521" on="1"/>
        <pt x="311" y="370" on="1"/>
        <pt x="462" y="370" on="1"/>
        <pt x="462" y="290" on="1"/>
        <pt x="311" y="290" on="1"/>
        <pt x="311" y="139" on="1"/>
        <pt x="231" y="139" on="1"/>
        <pt x="231" y="290" on="1"/>
        <pt x="80" y="290" on="1"/>
      </contour>
    </TTGlyph>
    <TTGlyph name="plusminus" xMin="80" yMin="-9" xMax="462" yMax="521">
      <component glyphName=".ttfautohint" x="80" y="0" flags="0x0"/>
      <component glyphName="plus" x="0" y="0" flags="0x204"/>
      <component glyphName="minus" x="0" y="-299" flags="0x4"/>
    </TTGlyph>
    <TTGlyph name="product" xMin="40" yMin="-100" xMax="646" yMax="700">
      <contour>
        <pt x="646" y="700" on="1"/>
        <pt x="646" y="622" on="1"/>
        <pt x="566" y="622" on="1"/>
        <pt x="566" y="-100" on="1"/>
        <pt x="470" y="-100" on="1"/>
        <pt x="470" y="622" on="1"/>
        <pt x="216" y="622" on="1"/>
        <pt x="216" y="-100" on="1"/>
        <pt x="120" y="-100" on="1"/>
        <pt x="120" y="622" on="1"/>
        <pt x="40" y="622" on="1"/>
        <pt x="40" y="700" on="1"/>
      </contour>
    </TTGlyph>
    <TTGlyph name="q" xMin="70" yMin="-235" xMax="525" yMax="545">
      <contour>
        <pt x="273" y="-15" on="1"/>
        <pt x="181" y="-15" on="0"/>
        <pt x="70" y="126" on="0"/>
        <pt x="70" y="265" on="1"/>
        <pt x="70" y="334" on="0"/>
        <pt x="106" y="439" on="0"/>
        <pt x="168" y="510" on="0"/>
        <pt x="252" y="545" on="0"/>
        <pt x="300" y="545" on="1"/>
        <pt x="345" y="545" on="0"/>
        <pt x="422" y="512" on="0"/>
        <pt x="451" y="487" on="1"/>
        <pt x="479" y="545" on="1"/>
        <pt x="525" y="545" on="1"/>
        <pt x="525" y="-235" on="1"/>
        <pt x="429" y="-235" on="1"/>
        <pt x="429" y="52" on="1"/>
        <pt x="401" y="24" on="0"/>
        <pt x="324" y="-15" on="0"/>
      </contour>
      <contour>
        <pt x="294" y="63" on="1"/>
        <pt x="333" y="63" on="0"/>
        <pt x="400" y="95" on="0"/>
        <pt x="429" y="121" on="1"/>
        <pt x="429" y="425" on="1"/>
        <pt x="406" y="442" on="0"/>
        <pt x="341" y="467" on="0"/>
        <pt x="304" y="467" on="1"/>
        <pt x="245" y="467" on="0"/>
        <pt x="170" y="368" on="0"/>
        <pt x="170" y="265" on="1"/>
        <pt x="170" y="162" on="0"/>
        <pt x="239" y="63" on="0"/>
      </contour>
    </TTGlyph>
    <TTGlyph name="question" xMin="40" yMin="-15" xMax="430" yMax="765">
      <contour>
        <pt x="157" y="53" on="1"/>
        <pt x="157" y="88" on="0"/>
        <pt x="194" y="121" on="0"/>
        <pt x="223" y="121" on="1"/>
        <pt x="252" y="121" on="0"/>
        <pt x="290" y="88" on="0"/>
        <pt x="290" y="53" on="1"/>
        <pt x="290" y="18" on="0"/>
        <pt x="252" y="-15" on="0"/>
        <pt x="223" y="-15" on="1"/>
        <pt x="194" y="-15" on="0"/>
        <pt x="157" y="18" on="0"/>
      </contour>
      <contour>
        <pt x="430" y="591" on="1"/>
        <pt x="430" y="549" on="0"/>
        <pt x="404" y="480" on="0"/>
        <pt x="365" y="419" on="0"/>
        <pt x="320" y="364" on="0"/>
        <pt x="281" y="309" on="0"/>
        <pt x="255" y="251" on="0"/>
        <pt x="255" y="218" on="1"/>
        <pt x="191" y="218" on="1"/>
        <pt x="190" y="224" on="0"/>
        <pt x="190" y="236" on="0"/>
        <pt x="190" y="242" on="1"/>
        <pt x="190" y="306" on="0"/>
        <pt x="235" y="395" on="0"/>
        <pt x="290" y="468" on="0"/>
        <pt x="335" y="538" on="0"/>
        <pt x="335" y="583" on="1"/>
        <pt x="335" y="605" on="0"/>
        <pt x="320" y="643" on="0"/>
        <pt x="294" y="672" on="0"/>
        <pt x="258" y="688" on="0"/>
        <pt x="237" y="688" on="1"/>
        <pt x="190" y="688" on="0"/>
        <pt x="138" y="633" on="0"/>
        <pt x="127" y="573" on="1"/>
        <pt x="40" y="594" on="1"/>
        <pt x="47" y="630" on="0"/>
        <pt x="80" y="693" on="0"/>
        <pt x="130" y="739" on="0"/>
        <pt x="197" y="765" on="0"/>
        <pt x="238" y="765" on="1"/>
        <pt x="292" y="765" on="0"/>
        <pt x="366" y="734" on="0"/>
        <pt x="411" y="684" on="0"/>
        <pt x="430" y="622" on="0"/>
      </contour>
    </TTGlyph>
    <TTGlyph name="questiondown" xMin="60" yMin="-235" xMax="450" yMax="545">
      <component glyphName=".ttfautohint" x="60" y="0" flags="0x0"/>
      <component glyphName="question" x="490" y="530" scale="-0.999938964844" flags="0x4"/>
    </TTGlyph>
    <TTGlyph name="quotedbl" xMin="50" yMin="515" xMax="316" yMax="750">
      <contour>
        <pt x="131" y="515" on="1"/>
        <pt x="65" y="515" on="1"/>
        <pt x="50" y="750" on="1"/>
        <pt x="146" y="750" on="1"/>
      </contour>
      <contour>
        <pt x="301" y="515" on="1"/>
        <pt x="235" y="515" on="1"/>
        <pt x="220" y="750" on="1"/>
        <pt x="316" y="750" on="1"/>
      </contour>
    </TTGlyph>
    <TTGlyph name="quotedblbase" xMin="47" yMin="-168" xMax="383" yMax="121">
      <component glyphName=".ttfautohint" x="47" y="0" flags="0x0"/>
      <component glyphName="quotedblleft" x="433" y="636" scale="-0.999938964844" flags="0x4"/>
    </TTGlyph>
    <TTGlyph name="quotedblleft" xMin="50" yMin="515" xMax="386" yMax="804">
      <contour>
        <pt x="151" y="679" on="1"/>
        <pt x="151" y="662" on="0"/>
        <pt x="161" y="641" on="0"/>
        <pt x="173" y="622" on="0"/>
        <pt x="183" y="600" on="0"/>
        <pt x="183" y="583" on="1"/>
        <pt x="183" y="548" on="0"/>
        <pt x="146" y="515" on="0"/>
        <pt x="117" y="515" on="1"/>
        <pt x="88" y="515" on="0"/>
        <pt x="50" y="548" on="0"/>
        <pt x="50" y="583" on="1"/>
        <pt x="50" y="609" on="0"/>
        <pt x="65" y="670" on="0"/>
        <pt x="91" y="730" on="0"/>
        <pt x="124" y="784" on="0"/>
        <pt x="141" y="804" on="1"/>
        <pt x="186" y="774" on="1"/>
        <pt x="172" y="754" on="0"/>
        <pt x="151" y="703" on="0"/>
      </contour>
      <contour>
        <pt x="351" y="679" on="1"/>
        <pt x="351" y="662" on="0"/>
        <pt x="361" y="641" on="0"/>
        <pt x="373" y="622" on="0"/>
        <pt x="383" y="600" on="0"/>
        <pt x="383" y="583" on="1"/>
        <pt x="383" y="548" on="0"/>
        <pt x="346" y="515" on="0"/>
        <pt x="317" y="515" on="1"/>
        <pt x="288" y="515" on="0"/>
        <pt x="250" y="548" on="0"/>
        <pt x="250" y="583" on="1"/>
        <pt x="250" y="609" on="0"/>
        <pt x="265" y="670" on="0"/>
        <pt x="291" y="730" on="0"/>
        <pt x="324" y="784" on="0"/>
        <pt x="341" y="804" on="1"/>
        <pt x="386" y="774" on="1"/>
        <pt x="372" y="754" on="0"/>
        <pt x="351" y="703" on="0"/>
      </contour>
    </TTGlyph>
    <TTGlyph name="quotedblright" xMin="50" yMin="510" xMax="386" yMax="799">
      <component glyphName=".ttfautohint" x="50" y="510" flags="0x0"/>
      <component glyphName="quotedblleft" x="436" y="1314" scale="-0.999938964844" flags="0x4"/>
    </TTGlyph>
    <TTGlyph name="quoteleft" xMin="50" yMin="515" xMax="186" yMax="804">
      <contour>
        <pt x="151" y="679" on="1"/>
        <pt x="151" y="662" on="0"/>
        <pt x="161" y="641" on="0"/>
        <pt x="173" y="622" on="0"/>
        <pt x="183" y="600" on="0"/>
        <pt x="183" y="583" on="1"/>
        <pt x="183" y="548" on="0"/>
        <pt x="146" y="515" on="0"/>
        <pt x="117" y="515" on="1"/>
        <pt x="88" y="515" on="0"/>
        <pt x="50" y="548" on="0"/>
        <pt x="50" y="583" on="1"/>
        <pt x="50" y="609" on="0"/>
        <pt x="65" y="670" on="0"/>
        <pt x="91" y="730" on="0"/>
        <pt x="124" y="784" on="0"/>
        <pt x="141" y="804" on="1"/>
        <pt x="186" y="774" on="1"/>
        <pt x="172" y="754" on="0"/>
        <pt x="151" y="703" on="0"/>
      </contour>
    </TTGlyph>
    <TTGlyph name="quoteright" xMin="50" yMin="510" xMax="186" yMax="799">
      <component glyphName=".ttfautohint" x="50" y="510" flags="0x0"/>
      <component glyphName="quoteleft" x="236" y="1314" scale="-0.999938964844" flags="0x4"/>
    </TTGlyph>
    <TTGlyph name="quotesinglbase" xMin="47" yMin="-168" xMax="183" yMax="121">
      <component glyphName=".ttfautohint" x="47" y="0" flags="0x0"/>
      <component glyphName="comma" x="0" y="0" flags="0x204"/>
    </TTGlyph>
    <TTGlyph name="quotesingle" xMin="50" yMin="515" xMax="146" yMax="750">
      <contour>
        <pt x="131" y="515" on="1"/>
        <pt x="65" y="515" on="1"/>
        <pt x="50" y="750" on="1"/>
        <pt x="146" y="750" on="1"/>
      </contour>
    </TTGlyph>
    <TTGlyph name="r" xMin="100" yMin="0" xMax="356" yMax="545">
      <contour>
        <pt x="181" y="530" on="1"/>
        <pt x="186" y="465" on="1"/>
        <pt x="217" y="500" on="0"/>
        <pt x="303" y="543" on="0"/>
        <pt x="351" y="545" on="1"/>
        <pt x="356" y="473" on="1"/>
        <pt x="344" y="462" on="1"/>
        <pt x="297" y="461" on="0"/>
        <pt x="222" y="430" on="0"/>
        <pt x="196" y="403" on="1"/>
        <pt x="196" y="0" on="1"/>
        <pt x="100" y="0" on="1"/>
        <pt x="100" y="530" on="1"/>
      </contour>
    </TTGlyph>
    <TTGlyph name="radical" xMin="90" yMin="-100" xMax="644" yMax="765">
      <contour>
        <pt x="644" y="700" on="1"/>
        <pt x="514" y="700" on="1"/>
        <pt x="327" y="-100" on="1"/>
        <pt x="180" y="-100" on="1"/>
        <pt x="90" y="335" on="1"/>
        <pt x="184" y="335" on="1"/>
        <pt x="262" y="-41" on="1"/>
        <pt x="450" y="765" on="1"/>
        <pt x="644" y="765" on="1"/>
      </contour>
    </TTGlyph>
    <TTGlyph name="registered" xMin="60" yMin="156" xMax="720" yMax="816">
      <contour>
        <pt x="60" y="486" on="1"/>
        <pt x="60" y="568" on="0"/>
        <pt x="112" y="691" on="0"/>
        <pt x="202" y="774" on="0"/>
        <pt x="322" y="816" on="0"/>
        <pt x="390" y="816" on="1"/>
        <pt x="458" y="816" on="0"/>
        <pt x="578" y="774" on="0"/>
        <pt x="668" y="691" on="0"/>
        <pt x="720" y="568" on="0"/>
        <pt x="720" y="486" on="1"/>
        <pt x="720" y="404" on="0"/>
        <pt x="668" y="281" on="0"/>
        <pt x="578" y="198" on="0"/>
        <pt x="458" y="156" on="0"/>
        <pt x="390" y="156" on="1"/>
        <pt x="322" y="156" on="0"/>
        <pt x="202" y="198" on="0"/>
        <pt x="112" y="281" on="0"/>
        <pt x="60" y="404" on="0"/>
      </contour>
      <contour>
        <pt x="115" y="486" on="1"/>
        <pt x="115" y="418" on="0"/>
        <pt x="158" y="315" on="0"/>
        <pt x="233" y="246" on="0"/>
        <pt x="333" y="211" on="0"/>
        <pt x="390" y="211" on="1"/>
        <pt x="447" y="211" on="0"/>
        <pt x="547" y="246" on="0"/>
        <pt x="622" y="315" on="0"/>
        <pt x="665" y="418" on="0"/>
        <pt x="665" y="486" on="1"/>
        <pt x="665" y="554" on="0"/>
        <pt x="622" y="657" on="0"/>
        <pt x="547" y="726" on="0"/>
        <pt x="447" y="761" on="0"/>
        <pt x="390" y="761" on="1"/>
        <pt x="333" y="761" on="0"/>
        <pt x="233" y="726" on="0"/>
        <pt x="158" y="657" on="0"/>
        <pt x="115" y="554" on="0"/>
      </contour>
      <contour>
        <pt x="416" y="418" on="1"/>
        <pt x="406" y="440" on="0"/>
        <pt x="387" y="440" on="1"/>
        <pt x="334" y="440" on="1"/>
        <pt x="334" y="272" on="1"/>
        <pt x="260" y="272" on="1"/>
        <pt x="260" y="699" on="1"/>
        <pt x="387" y="699" on="1"/>
        <pt x="424" y="699" on="0"/>
        <pt x="480" y="679" on="0"/>
        <pt x="517" y="643" on="0"/>
        <pt x="536" y="595" on="0"/>
        <pt x="536" y="567" on="1"/>
        <pt x="536" y="529" on="0"/>
        <pt x="505" y="474" on="0"/>
        <pt x="471" y="457" on="1"/>
        <pt x="477" y="452" on="0"/>
        <pt x="483" y="441" on="0"/>
        <pt x="486" y="436" on="1"/>
        <pt x="564" y="272" on="1"/>
        <pt x="484" y="272" on="1"/>
      </contour>
      <contour>
        <pt x="334" y="636" on="1"/>
        <pt x="334" y="502" on="1"/>
        <pt x="387" y="502" on="1"/>
        <pt x="410" y="502" on="0"/>
        <pt x="440" y="514" on="0"/>
        <pt x="457" y="533" on="0"/>
        <pt x="464" y="557" on="0"/>
        <pt x="464" y="569" on="1"/>
        <pt x="464" y="581" on="0"/>
        <pt x="457" y="605" on="0"/>
        <pt x="440" y="624" on="0"/>
        <pt x="410" y="636" on="0"/>
        <pt x="387" y="636" on="1"/>
      </contour>
    </TTGlyph>
    <TTGlyph name="ring" xMin="38" yMin="584" xMax="259" yMax="810">
      <contour>
        <pt x="38" y="697" on="1"/>
        <pt x="38" y="755" on="0"/>
        <pt x="100" y="810" on="0"/>
        <pt x="148" y="810" on="1"/>
        <pt x="196" y="810" on="0"/>
        <pt x="259" y="755" on="0"/>
        <pt x="259" y="697" on="1"/>
        <pt x="259" y="639" on="0"/>
        <pt x="196" y="584" on="0"/>
        <pt x="148" y="584" on="1"/>
        <pt x="100" y="584" on="0"/>
        <pt x="38" y="639" on="0"/>
      </contour>
      <contour>
        <pt x="96" y="697" on="1"/>
        <pt x="96" y="669" on="0"/>
        <pt x="125" y="643" on="0"/>
        <pt x="148" y="643" on="1"/>
        <pt x="171" y="643" on="0"/>
        <pt x="201" y="669" on="0"/>
        <pt x="201" y="697" on="1"/>
        <pt x="201" y="725" on="0"/>
        <pt x="171" y="751" on="0"/>
        <pt x="148" y="751" on="1"/>
        <pt x="125" y="751" on="0"/>
        <pt x="96" y="725" on="0"/>
      </contour>
    </TTGlyph>
    <TTGlyph name="ring.case" xMin="38" yMin="734" xMax="259" yMax="960">
      <component glyphName=".ttfautohint" x="38" y="734" flags="0x0"/>
      <component glyphName="ring" x="0" y="150" flags="0x204"/>
    </TTGlyph>
    <TTGlyph name="s" xMin="56" yMin="-15" xMax="438" yMax="545">
      <contour>
        <pt x="256" y="472" on="1"/>
        <pt x="218" y="472" on="0"/>
        <pt x="166" y="438" on="0"/>
        <pt x="166" y="403" on="1"/>
        <pt x="166" y="375" on="0"/>
        <pt x="206" y="338" on="0"/>
        <pt x="266" y="308" on="0"/>
        <pt x="335" y="278" on="0"/>
        <pt x="395" y="237" on="0"/>
        <pt x="435" y="178" on="0"/>
        <pt x="435" y="133" on="1"/>
        <pt x="435" y="66" on="0"/>
        <pt x="337" y="-15" on="0"/>
        <pt x="250" y="-15" on="1"/>
        <pt x="164" y="-15" on="0"/>
        <pt x="73" y="66" on="0"/>
        <pt x="56" y="138" on="1"/>
        <pt x="139" y="166" on="1"/>
        <pt x="144" y="133" on="0"/>
        <pt x="167" y="91" on="0"/>
        <pt x="199" y="67" on="0"/>
        <pt x="237" y="58" on="0"/>
        <pt x="257" y="58" on="1"/>
        <pt x="291" y="58" on="0"/>
        <pt x="343" y="91" on="0"/>
        <pt x="343" y="126" on="1"/>
        <pt x="343" y="152" on="0"/>
        <pt x="303" y="186" on="0"/>
        <pt x="243" y="216" on="0"/>
        <pt x="174" y="247" on="0"/>
        <pt x="114" y="291" on="0"/>
        <pt x="74" y="354" on="0"/>
        <pt x="74" y="401" on="1"/>
        <pt x="74" y="424" on="0"/>
        <pt x="92" y="475" on="0"/>
        <pt x="135" y="517" on="0"/>
        <pt x="206" y="545" on="0"/>
        <pt x="258" y="545" on="1"/>
        <pt x="327" y="545" on="0"/>
        <pt x="418" y="484" on="0"/>
        <pt x="438" y="412" on="1"/>
        <pt x="355" y="384" on="1"/>
        <pt x="344" y="425" on="0"/>
        <pt x="294" y="472" on="0"/>
      </contour>
    </TTGlyph>
    <TTGlyph name="scaron" xMin="49" yMin="-15" xMax="431" yMax="787">
      <component glyphName=".ttfautohint" x="49" y="0" flags="0x0"/>
      <component glyphName="s" x="-7" y="0" flags="0x204"/>
      <component glyphName="caron" x="35" y="0" flags="0x4"/>
    </TTGlyph>
    <TTGlyph name="section" xMin="65" yMin="-235" xMax="519" yMax="715">
      <contour>
        <pt x="291" y="-157" on="1"/>
        <pt x="346" y="-157" on="0"/>
        <pt x="419" y="-103" on="0"/>
        <pt x="419" y="-62" on="1"/>
        <pt x="419" y="-24" on="0"/>
        <pt x="368" y="24" on="0"/>
        <pt x="292" y="61" on="0"/>
        <pt x="203" y="96" on="0"/>
        <pt x="127" y="146" on="0"/>
        <pt x="76" y="219" on="0"/>
        <pt x="76" y="275" on="1"/>
        <pt x="76" y="306" on="0"/>
        <pt x="103" y="376" on="0"/>
        <pt x="136" y="404" on="1"/>
        <pt x="110" y="427" on="0"/>
        <pt x="78" y="489" on="0"/>
        <pt x="78" y="534" on="1"/>
        <pt x="78" y="562" on="0"/>
        <pt x="101" y="626" on="0"/>
        <pt x="154" y="680" on="0"/>
        <pt x="241" y="715" on="0"/>
        <pt x="305" y="715" on="1"/>
        <pt x="388" y="715" on="0"/>
        <pt x="496" y="644" on="0"/>
        <pt x="519" y="563" on="1"/>
        <pt x="435" y="533" on="1"/>
        <pt x="419" y="582" on="0"/>
        <pt x="344" y="637" on="0"/>
        <pt x="289" y="637" on="1"/>
        <pt x="238" y="637" on="0"/>
        <pt x="174" y="586" on="0"/>
        <pt x="174" y="541" on="1"/>
        <pt x="174" y="503" on="0"/>
        <pt x="225" y="453" on="0"/>
        <pt x="301" y="415" on="0"/>
        <pt x="391" y="380" on="0"/>
        <pt x="467" y="332" on="0"/>
        <pt x="518" y="265" on="0"/>
        <pt x="518" y="213" on="1"/>
        <pt x="518" y="180" on="0"/>
        <pt x="489" y="107" on="0"/>
        <pt x="454" y="78" on="1"/>
        <pt x="482" y="55" on="0"/>
        <pt x="516" y="-4" on="0"/>
        <pt x="516" y="-46" on="1"/>
        <pt x="516" y="-76" on="0"/>
        <pt x="491" y="-143" on="0"/>
        <pt x="436" y="-198" on="0"/>
        <pt x="345" y="-235" on="0"/>
        <pt x="279" y="-235" on="1"/>
        <pt x="196" y="-235" on="0"/>
        <pt x="88" y="-164" on="0"/>
        <pt x="65" y="-83" on="1"/>
        <pt x="149" y="-53" on="1"/>
        <pt x="165" y="-102" on="0"/>
        <pt x="236" y="-157" on="0"/>
      </contour>
      <contour>
        <pt x="421" y="197" on="1"/>
        <pt x="421" y="230" on="0"/>
        <pt x="382" y="274" on="0"/>
        <pt x="320" y="308" on="0"/>
        <pt x="244" y="338" on="0"/>
        <pt x="208" y="356" on="1"/>
        <pt x="172" y="331" on="0"/>
        <pt x="172" y="282" on="1"/>
        <pt x="172" y="250" on="0"/>
        <pt x="209" y="205" on="0"/>
        <pt x="268" y="170" on="0"/>
        <pt x="340" y="140" on="0"/>
        <pt x="376" y="124" on="1"/>
        <pt x="397" y="137" on="0"/>
        <pt x="421" y="174" on="0"/>
      </contour>
    </TTGlyph>
    <TTGlyph name="semicolon" xMin="47" yMin="-168" xMax="183" yMax="500">
      <component glyphName=".ttfautohint" x="47" y="0" flags="0x0"/>
      <component glyphName="comma" x="0" y="0" flags="0x204"/>
      <component glyphName="period" x="0" y="379" flags="0x4"/>
    </TTGlyph>
    <TTGlyph name="seven" xMin="10" yMin="0" xMax="440" yMax="660">
      <contour>
        <pt x="440" y="616" on="1"/>
        <pt x="172" y="0" on="1"/>
        <pt x="77" y="0" on="1"/>
        <pt x="332" y="582" on="1"/>
        <pt x="10" y="582" on="1"/>
        <pt x="10" y="660" on="1"/>
        <pt x="440" y="660" on="1"/>
      </contour>
    </TTGlyph>
    <TTGlyph name="seveninferior" xMin="29" yMin="-200" xMax="298" yMax="204">
      <contour>
        <pt x="298" y="168" on="1"/>
        <pt x="138" y="-200" on="1"/>
        <pt x="63" y="-200" on="1"/>
        <pt x="212" y="140" on="1"/>
        <pt x="29" y="140" on="1"/>
        <pt x="29" y="204" on="1"/>
        <pt x="298" y="204" on="1"/>
      </contour>
    </TTGlyph>
    <TTGlyph name="six" xMin="60" yMin="-15" xMax="521" yMax="675">
      <contour>
        <pt x="323" y="597" on="1"/>
        <pt x="288" y="597" on="0"/>
        <pt x="228" y="564" on="0"/>
        <pt x="184" y="498" on="0"/>
        <pt x="158" y="396" on="0"/>
        <pt x="157" y="327" on="1"/>
        <pt x="186" y="367" on="0"/>
        <pt x="272" y="404" on="0"/>
        <pt x="318" y="404" on="1"/>
        <pt x="356" y="404" on="0"/>
        <pt x="429" y="379" on="0"/>
        <pt x="486" y="329" on="0"/>
        <pt x="521" y="257" on="0"/>
        <pt x="521" y="211" on="1"/>
        <pt x="521" y="170" on="0"/>
        <pt x="492" y="89" on="0"/>
        <pt x="433" y="25" on="0"/>
        <pt x="347" y="-15" on="0"/>
        <pt x="290" y="-15" on="1"/>
        <pt x="182" y="-15" on="0"/>
        <pt x="60" y="148" on="0"/>
        <pt x="60" y="310" on="1"/>
        <pt x="60" y="400" on="0"/>
        <pt x="100" y="537" on="0"/>
        <pt x="171" y="629" on="0"/>
        <pt x="268" y="675" on="0"/>
        <pt x="324" y="675" on="1"/>
        <pt x="388" y="675" on="0"/>
        <pt x="480" y="627" on="0"/>
        <pt x="506" y="570" on="1"/>
        <pt x="425" y="529" on="1"/>
        <pt x="409" y="563" on="0"/>
        <pt x="355" y="597" on="0"/>
      </contour>
      <contour>
        <pt x="172" y="197" on="1"/>
        <pt x="172" y="169" on="0"/>
        <pt x="192" y="120" on="0"/>
        <pt x="227" y="84" on="0"/>
        <pt x="273" y="63" on="0"/>
        <pt x="300" y="63" on="1"/>
        <pt x="327" y="63" on="0"/>
        <pt x="374" y="84" on="0"/>
        <pt x="409" y="120" on="0"/>
        <pt x="429" y="169" on="0"/>
        <pt x="429" y="197" on="1"/>
        <pt x="429" y="225" on="0"/>
        <pt x="409" y="274" on="0"/>
        <pt x="374" y="311" on="0"/>
        <pt x="327" y="332" on="0"/>
        <pt x="300" y="332" on="1"/>
        <pt x="273" y="332" on="0"/>
        <pt x="227" y="311" on="0"/>
        <pt x="192" y="274" on="0"/>
        <pt x="172" y="225" on="0"/>
      </contour>
    </TTGlyph>
    <TTGlyph name="sixinferior" xMin="59" yMin="-209" xMax="346" yMax="212">
      <contour>
        <pt x="221" y="149" on="1"/>
        <pt x="186" y="149" on="0"/>
        <pt x="139" y="85" on="0"/>
        <pt x="134" y="23" on="1"/>
        <pt x="152" y="40" on="0"/>
        <pt x="195" y="53" on="0"/>
        <pt x="218" y="53" on="1"/>
        <pt x="242" y="53" on="0"/>
        <pt x="288" y="37" on="0"/>
        <pt x="324" y="7" on="0"/>
        <pt x="346" y="-38" on="0"/>
        <pt x="346" y="-67" on="1"/>
        <pt x="346" y="-93" on="0"/>
        <pt x="327" y="-144" on="0"/>
        <pt x="291" y="-184" on="0"/>
        <pt x="237" y="-209" on="0"/>
        <pt x="202" y="-209" on="1"/>
        <pt x="134" y="-209" on="0"/>
        <pt x="59" y="-110" on="0"/>
        <pt x="59" y="-10" on="1"/>
        <pt x="59" y="45" on="0"/>
        <pt x="84" y="128" on="0"/>
        <pt x="127" y="184" on="0"/>
        <pt x="186" y="212" on="0"/>
        <pt x="221" y="212" on="1"/>
        <pt x="262" y="212" on="0"/>
        <pt x="321" y="179" on="0"/>
        <pt x="340" y="138" on="1"/>
        <pt x="277" y="106" on="1"/>
        <pt x="255" y="149" on="0"/>
      </contour>
      <contour>
        <pt x="141" y="-76" on="1"/>
        <pt x="141" y="-105" on="0"/>
        <pt x="180" y="-145" on="0"/>
        <pt x="208" y="-145" on="1"/>
        <pt x="236" y="-145" on="0"/>
        <pt x="274" y="-105" on="0"/>
        <pt x="274" y="-76" on="1"/>
        <pt x="274" y="-47" on="0"/>
        <pt x="236" y="-6" on="0"/>
        <pt x="208" y="-6" on="1"/>
        <pt x="180" y="-6" on="0"/>
        <pt x="141" y="-47" on="0"/>
      </contour>
    </TTGlyph>
    <TTGlyph name="slash" xMin="0" yMin="-15" xMax="382" yMax="715">
      <contour>
        <pt x="75" y="-15" on="1"/>
        <pt x="0" y="-15" on="1"/>
        <pt x="306" y="715" on="1"/>
        <pt x="382" y="715" on="1"/>
      </contour>
    </TTGlyph>
    <TTGlyph name="sterling" xMin="55" yMin="0" xMax="521" yMax="675">
      <contour>
        <pt x="86" y="44" on="1"/>
        <pt x="116" y="77" on="0"/>
        <pt x="138" y="163" on="0"/>
        <pt x="138" y="212" on="1"/>
        <pt x="138" y="249" on="0"/>
        <pt x="132" y="324" on="0"/>
        <pt x="126" y="392" on="0"/>
        <pt x="120" y="448" on="0"/>
        <pt x="120" y="466" on="1"/>
        <pt x="120" y="506" on="0"/>
        <pt x="141" y="581" on="0"/>
        <pt x="190" y="639" on="0"/>
        <pt x="271" y="675" on="0"/>
        <pt x="330" y="675" on="1"/>
        <pt x="407" y="675" on="0"/>
        <pt x="499" y="597" on="0"/>
        <pt x="521" y="523" on="1"/>
        <pt x="437" y="493" on="1"/>
        <pt x="423" y="542" on="0"/>
        <pt x="366" y="597" on="0"/>
        <pt x="317" y="597" on="1"/>
        <pt x="272" y="597" on="0"/>
        <pt x="216" y="537" on="0"/>
        <pt x="216" y="466" on="1"/>
        <pt x="216" y="452" on="0"/>
        <pt x="219" y="392" on="0"/>
        <pt x="224" y="320" on="0"/>
        <pt x="227" y="243" on="0"/>
        <pt x="227" y="212" on="1"/>
        <pt x="227" y="171" on="0"/>
        <pt x="213" y="107" on="0"/>
        <pt x="199" y="78" on="1"/>
        <pt x="516" y="78" on="1"/>
        <pt x="516" y="0" on="1"/>
        <pt x="86" y="0" on="1"/>
      </contour>
      <contour>
        <pt x="55" y="336" on="1"/>
        <pt x="395" y="336" on="1"/>
        <pt x="395" y="266" on="1"/>
        <pt x="55" y="266" on="1"/>
      </contour>
    </TTGlyph>
    <TTGlyph name="summation" xMin="20" yMin="-100" xMax="510" yMax="700">
      <contour>
        <pt x="20" y="-56" on="1"/>
        <pt x="267" y="300" on="1"/>
        <pt x="30" y="656" on="1"/>
        <pt x="30" y="700" on="1"/>
        <pt x="492" y="700" on="1"/>
        <pt x="492" y="622" on="1"/>
        <pt x="161" y="622" on="1"/>
        <pt x="367" y="314" on="1"/>
        <pt x="350" y="286" on="1"/>
        <pt x="136" y="-22" on="1"/>
        <pt x="510" y="-22" on="1"/>
        <pt x="510" y="-100" on="1"/>
        <pt x="20" y="-100" on="1"/>
      </contour>
    </TTGlyph>
    <TTGlyph name="t" xMin="55" yMin="-15" xMax="377" yMax="660">
      <contour>
        <pt x="55" y="530" on="1"/>
        <pt x="131" y="530" on="1"/>
        <pt x="131" y="640" on="1"/>
        <pt x="207" y="660" on="1"/>
        <pt x="227" y="660" on="1"/>
        <pt x="227" y="530" on="1"/>
        <pt x="367" y="530" on="1"/>
        <pt x="367" y="460" on="1"/>
        <pt x="227" y="460" on="1"/>
        <pt x="227" y="114" on="1"/>
        <pt x="227" y="66" on="0"/>
        <pt x="274" y="66" on="1"/>
        <pt x="305" y="66" on="0"/>
        <pt x="351" y="94" on="1"/>
        <pt x="377" y="34" on="1"/>
        <pt x="347" y="11" on="0"/>
        <pt x="272" y="-15" on="0"/>
        <pt x="239" y="-15" on="1"/>
        <pt x="186" y="-15" on="0"/>
        <pt x="131" y="56" on="0"/>
        <pt x="131" y="124" on="1"/>
        <pt x="131" y="460" on="1"/>
        <pt x="55" y="460" on="1"/>
      </contour>
    </TTGlyph>
    <TTGlyph name="thin-slash" xMin="30" yMin="-55" xMax="352" yMax="755">
      <contour>
        <pt x="95" y="-55" on="1"/>
        <pt x="30" y="-55" on="1"/>
        <pt x="286" y="755" on="1"/>
        <pt x="352" y="755" on="1"/>
      </contour>
    </TTGlyph>
    <TTGlyph name="thorn" xMin="100" yMin="-221" xMax="555" yMax="750">
      <contour>
        <pt x="352" y="545" on="1"/>
        <pt x="398" y="545" on="0"/>
        <pt x="473" y="510" on="0"/>
        <pt x="526" y="439" on="0"/>
        <pt x="555" y="334" on="0"/>
        <pt x="555" y="265" on="1"/>
        <pt x="555" y="196" on="0"/>
        <pt x="519" y="91" on="0"/>
        <pt x="457" y="20" on="0"/>
        <pt x="373" y="-15" on="0"/>
        <pt x="325" y="-15" on="1"/>
        <pt x="288" y="-15" on="0"/>
        <pt x="223" y="7" on="0"/>
        <pt x="196" y="26" on="1"/>
        <pt x="196" y="-221" on="1"/>
        <pt x="100" y="-221" on="1"/>
        <pt x="100" y="750" on="1"/>
        <pt x="196" y="750" on="1"/>
        <pt x="196" y="478" on="1"/>
        <pt x="224" y="505" on="0"/>
        <pt x="301" y="545" on="0"/>
      </contour>
      <contour>
        <pt x="331" y="467" on="1"/>
        <pt x="291" y="467" on="0"/>
        <pt x="224" y="435" on="0"/>
        <pt x="196" y="408" on="1"/>
        <pt x="196" y="105" on="1"/>
        <pt x="219" y="87" on="0"/>
        <pt x="283" y="63" on="0"/>
        <pt x="321" y="63" on="1"/>
        <pt x="380" y="63" on="0"/>
        <pt x="455" y="162" on="0"/>
        <pt x="455" y="265" on="1"/>
        <pt x="455" y="368" on="0"/>
        <pt x="386" y="467" on="0"/>
      </contour>
    </TTGlyph>
</ttFont>
